{"glyphs":{"0":{"ha":722,"x_min":88,"x_max":635,"o":"m 304 89 l 418 89 q 535 210 535 89 l 535 683 q 418 804 535 804 l 304 804 q 189 683 189 804 l 189 210 q 304 89 189 89 m 431 0 l 292 0 q 142 54 197 0 q 88 206 88 108 l 88 688 q 142 838 88 783 q 292 893 197 893 l 431 893 q 580 838 525 893 q 635 688 635 783 l 635 206 q 580 54 635 108 q 431 0 525 0 z "},"1":{"ha":447,"x_min":46,"x_max":338,"o":"m 46 701 l 46 757 q 63 788 46 778 l 224 881 q 260 893 246 893 l 318 893 q 338 874 338 893 l 338 19 q 318 0 338 0 l 256 0 q 236 19 236 0 l 236 785 l 71 690 q 46 701 46 676 z "},"2":{"ha":669,"x_min":74,"x_max":596,"o":"m 79 19 l 79 144 q 157 297 79 238 l 425 508 q 494 639 494 561 l 494 689 q 375 807 494 807 l 290 807 q 174 689 174 807 l 174 632 q 154 611 174 611 l 92 611 q 74 632 74 611 l 74 690 q 128 840 74 786 q 278 893 182 893 l 389 893 q 539 840 485 893 q 593 690 593 786 l 593 633 q 507 457 593 525 l 235 242 q 189 154 189 206 l 189 90 l 576 90 q 596 71 596 90 l 596 19 q 576 0 596 0 l 99 0 q 79 19 79 0 z "},"3":{"ha":694,"x_min":76,"x_max":608,"o":"m 310 492 l 390 492 q 508 610 508 492 l 508 689 q 390 807 508 807 l 294 807 q 178 689 178 807 l 178 644 q 158 624 178 624 l 96 624 q 76 644 76 624 l 76 690 q 131 840 76 786 q 282 893 186 893 l 403 893 q 553 840 499 893 q 608 690 608 786 l 608 608 q 494 449 608 485 q 608 290 608 419 l 608 203 q 553 53 608 107 q 403 0 499 0 l 282 0 q 131 53 186 0 q 76 203 76 107 l 76 258 q 96 279 76 279 l 158 279 q 178 258 178 279 l 178 204 q 294 86 178 86 l 390 86 q 508 204 508 86 l 508 289 q 390 407 508 407 l 310 407 q 290 426 290 407 l 290 472 q 310 492 290 492 z "},"4":{"ha":731,"x_min":60,"x_max":693,"o":"m 475 265 l 475 811 l 161 265 l 475 265 m 551 0 l 493 0 q 475 19 475 0 l 475 176 l 89 176 q 60 206 60 176 l 60 239 q 69 281 60 263 l 408 865 q 450 893 421 893 l 540 893 q 571 864 571 893 l 571 265 l 674 265 q 693 247 693 265 l 693 197 q 674 176 693 176 l 571 176 l 571 19 q 551 0 571 0 z "},"5":{"ha":679,"x_min":82,"x_max":606,"o":"m 386 489 l 283 489 q 207 455 225 489 q 171 421 189 421 l 107 421 q 88 440 88 421 l 88 874 q 107 893 88 893 l 567 893 q 588 874 588 893 l 588 818 q 567 799 588 799 l 189 799 l 189 503 q 307 572 215 572 l 407 572 q 553 521 501 572 q 606 374 606 469 l 606 206 q 551 54 606 108 q 401 0 497 0 l 288 0 q 137 54 192 0 q 82 206 82 108 l 82 249 q 101 269 82 269 l 164 269 q 183 249 183 269 l 183 207 q 299 86 183 86 l 389 86 q 507 207 507 86 l 507 361 q 478 458 507 426 q 386 489 449 489 z "},"6":{"ha":701,"x_min":78,"x_max":619,"o":"m 296 89 l 403 89 q 519 210 519 89 l 519 332 q 403 453 519 453 l 179 453 l 179 210 q 296 89 179 89 m 415 0 l 283 0 q 133 55 188 0 q 78 206 78 110 l 78 688 q 133 838 78 783 q 283 893 188 893 l 553 893 q 572 874 572 893 l 572 822 q 553 804 572 804 l 296 804 q 179 683 179 804 l 179 542 l 415 542 q 565 488 511 542 q 619 336 619 433 l 619 206 q 565 54 619 108 q 415 0 511 0 z "},"7":{"ha":549,"x_min":24,"x_max":521,"o":"m 188 0 l 122 0 q 111 24 100 0 l 413 800 l 43 800 q 24 819 24 800 l 24 874 q 43 893 24 893 l 501 893 q 521 874 521 893 l 521 815 q 510 771 521 793 l 219 18 q 188 0 213 0 z "},"8":{"ha":731,"x_min":88,"x_max":643,"o":"m 304 89 l 426 89 q 543 206 543 89 l 543 289 q 426 408 543 408 l 304 408 q 188 289 188 408 l 188 206 q 304 89 188 89 m 304 490 l 426 490 q 543 611 543 490 l 543 688 q 426 804 543 804 l 304 804 q 188 688 188 804 l 188 611 q 304 490 188 490 m 439 0 l 292 0 q 142 52 196 0 q 88 199 88 104 l 88 283 q 185 450 88 408 q 88 617 88 488 l 88 694 q 142 842 88 790 q 292 893 196 893 l 439 893 q 589 842 535 893 q 643 694 643 790 l 643 617 q 617 509 643 553 q 546 450 590 465 q 643 282 643 410 l 643 199 q 589 52 643 104 q 439 0 535 0 z "},"9":{"ha":701,"x_min":74,"x_max":614,"o":"m 290 436 l 514 436 l 514 683 q 397 804 514 804 l 290 804 q 175 683 175 804 l 175 556 q 290 436 175 436 m 410 0 l 136 0 q 115 19 115 0 l 115 71 q 136 89 115 89 l 397 89 q 514 210 514 89 l 514 347 l 278 347 q 128 401 183 347 q 74 551 74 456 l 74 688 q 128 838 74 783 q 278 893 183 893 l 410 893 q 560 838 506 893 q 614 688 614 783 l 614 206 q 560 54 614 108 q 410 0 506 0 z "},"\u0000":{"ha":0,"x_min":0,"x_max":0,"o":""},"\r":{"ha":0,"x_min":0,"x_max":0,"o":""}," ":{"ha":353,"x_min":0,"x_max":0,"o":""},"!":{"ha":329,"x_min":108,"x_max":221,"o":"m 108 713 l 108 874 q 128 893 108 893 l 201 893 q 221 874 221 893 l 221 713 q 213 456 221 581 q 201 314 204 331 q 183 297 199 297 l 146 297 q 126 318 128 297 q 115 508 121 372 q 108 713 108 644 m 218 188 l 218 19 q 199 0 218 0 l 132 0 q 114 21 114 0 l 114 188 q 132 206 114 206 l 199 206 q 218 188 218 206 z "},"\"":{"ha":468,"x_min":76,"x_max":390,"o":"m 131 596 l 119 596 q 99 618 101 596 l 76 874 q 94 893 76 893 l 156 893 q 172 874 175 893 l 151 617 q 131 596 150 596 m 349 596 l 336 596 q 317 618 319 596 l 294 874 q 313 893 294 893 l 374 893 q 390 874 393 893 l 369 617 q 349 596 367 596 z "},"#":{"ha":938,"x_min":68,"x_max":869,"o":"m 850 674 q 869 654 869 674 l 869 608 q 850 589 869 589 l 711 589 l 635 304 l 764 304 q 783 285 783 304 l 783 239 q 764 219 783 219 l 611 219 l 558 21 q 535 0 553 0 l 488 0 q 474 25 468 0 l 526 219 l 293 219 l 240 21 q 215 0 235 0 l 171 0 q 157 25 149 0 l 210 219 l 88 219 q 68 239 68 219 l 68 285 q 88 304 68 304 l 232 304 l 308 589 l 174 589 q 153 608 153 589 l 153 654 q 174 674 153 674 l 332 674 l 385 872 q 407 893 389 893 l 451 893 q 468 868 476 893 l 415 674 l 649 674 l 701 872 q 728 893 708 893 l 769 893 q 786 868 792 893 l 733 674 l 850 674 m 549 304 l 625 589 l 393 589 l 317 304 l 549 304 z "},"$":{"ha":710,"x_min":86,"x_max":624,"o":"m 390 -136 l 343 -136 q 324 -117 324 -136 l 324 0 l 290 0 q 142 56 197 0 q 88 206 88 111 l 88 244 q 106 264 88 264 l 169 264 q 188 244 188 264 l 188 214 q 311 89 188 89 l 399 89 q 522 217 522 89 l 522 282 q 486 374 522 347 q 376 403 450 400 l 300 404 q 143 453 200 408 q 86 613 86 497 l 86 689 q 141 840 86 785 q 290 894 196 894 l 324 894 l 324 1013 q 343 1032 324 1032 l 390 1032 q 410 1013 410 1032 l 410 894 l 419 894 q 564 839 510 894 q 618 689 618 783 l 618 654 q 599 633 618 633 l 536 633 q 517 654 517 633 l 517 681 q 393 806 517 806 l 311 806 q 188 675 188 806 l 188 610 q 223 523 188 547 q 332 496 258 499 l 418 493 q 568 443 513 489 q 624 286 624 397 l 624 206 q 569 55 624 110 q 419 0 514 0 l 410 0 l 410 -117 q 390 -136 410 -136 z "},"%":{"ha":1006,"x_min":69,"x_max":936,"o":"m 771 350 l 744 350 q 672 328 692 350 q 653 253 653 307 l 653 163 q 672 88 653 110 q 744 65 692 65 l 771 65 q 842 88 822 65 q 861 163 861 110 l 861 253 q 842 328 861 307 q 771 350 822 350 m 732 415 l 781 415 q 936 257 936 415 l 936 160 q 781 0 936 0 l 732 0 q 576 160 576 0 l 576 257 q 732 415 576 415 m 263 832 l 236 832 q 165 810 185 832 q 146 736 146 789 l 146 644 q 165 569 146 590 q 236 547 185 547 l 263 547 q 333 569 314 547 q 353 644 353 592 l 353 736 q 333 810 353 789 q 263 832 314 832 m 225 897 l 274 897 q 429 739 429 897 l 429 642 q 274 483 429 483 l 225 483 q 69 642 69 483 l 69 739 q 225 897 69 897 m 336 0 l 296 0 q 283 22 274 0 q 463 448 303 74 q 643 872 624 822 q 668 893 653 893 l 708 893 q 721 869 731 893 l 363 21 q 336 0 354 0 z "},"&":{"ha":838,"x_min":86,"x_max":761,"o":"m 303 90 l 394 90 q 501 174 488 90 l 283 428 q 183 304 183 422 l 183 207 q 303 90 183 90 m 394 0 l 290 0 q 140 53 194 0 q 86 203 86 107 l 86 310 q 122 431 86 379 q 231 488 158 483 q 169 650 169 561 l 169 690 q 226 840 169 786 q 379 893 283 893 l 417 893 q 567 840 513 893 q 621 690 621 786 l 621 632 q 603 611 621 611 l 540 611 q 521 632 521 611 l 521 689 q 410 807 521 807 l 388 807 q 272 689 272 807 l 272 649 q 333 513 272 581 l 414 419 l 739 419 q 760 400 760 419 l 760 349 q 739 331 760 331 l 489 331 l 758 15 q 761 6 763 11 q 753 0 760 0 l 672 0 q 640 14 653 0 l 565 101 q 394 0 531 0 z "},"'":{"ha":258,"x_min":82,"x_max":176,"o":"m 136 618 l 122 618 q 103 636 104 618 l 82 854 q 100 872 81 872 l 158 872 q 176 854 178 872 l 157 636 q 136 618 151 618 z "},"(":{"ha":403,"x_min":74,"x_max":315,"o":"m 296 817 l 292 817 q 193 776 228 817 q 158 661 158 736 l 158 90 q 193 -25 158 15 q 293 -65 228 -65 l 296 -65 q 315 -83 315 -65 l 315 -126 q 296 -142 315 -142 l 292 -142 q 132 -81 190 -142 q 74 99 74 -19 l 74 653 q 132 832 74 771 q 292 893 190 893 l 297 893 q 315 878 315 893 l 315 835 q 296 817 315 817 z "},")":{"ha":403,"x_min":74,"x_max":315,"o":"m 74 -126 l 74 -83 q 92 -65 74 -65 l 96 -65 q 194 -25 158 -65 q 229 90 229 15 l 229 661 q 194 776 229 736 q 96 817 158 817 l 92 817 q 74 835 74 817 l 74 878 q 92 893 74 893 l 96 893 q 256 832 197 893 q 315 653 315 771 l 315 99 q 256 -81 315 -19 q 96 -142 197 -142 l 92 -142 q 74 -126 74 -142 z "},"*":{"ha":561,"x_min":83,"x_max":478,"o":"m 240 856 l 240 875 q 258 893 240 893 l 300 893 q 319 875 319 893 l 319 856 q 281 693 319 763 q 422 782 360 763 l 442 788 q 465 776 460 793 l 478 736 q 465 713 485 718 l 447 707 q 281 693 358 678 q 299 682 282 692 q 332 661 315 672 q 421 569 386 622 q 417 544 431 556 l 382 519 q 356 524 367 511 l 346 539 q 281 693 289 614 q 269 650 281 686 q 218 538 249 579 l 207 521 q 181 518 197 507 l 147 543 q 143 569 132 551 l 154 583 q 281 693 201 650 q 114 704 172 686 l 94 710 q 83 733 76 717 l 97 774 q 121 785 101 790 q 281 693 222 750 q 275 706 281 694 q 265 733 269 718 q 253 767 260 749 q 240 856 240 807 z "},"+":{"ha":743,"x_min":97,"x_max":646,"o":"m 417 489 l 625 489 q 646 468 646 489 l 646 424 q 625 404 646 404 l 417 404 l 417 193 q 396 171 417 171 l 349 171 q 328 193 328 171 l 328 404 l 118 404 q 97 424 97 404 l 97 468 q 118 489 97 489 l 328 489 l 328 699 q 349 721 328 721 l 396 721 q 417 699 417 721 l 417 489 z "},",":{"ha":269,"x_min":82,"x_max":189,"o":"m 189 188 l 189 78 q 168 -3 189 47 l 113 -133 q 96 -144 106 -144 q 82 -126 82 -144 l 82 188 q 100 206 82 206 l 171 206 q 189 188 189 206 z "},"-":{"ha":433,"x_min":56,"x_max":378,"o":"m 358 401 l 75 401 q 56 421 56 401 l 56 467 q 75 486 56 486 l 358 486 q 378 467 378 486 l 378 421 q 358 401 378 401 z "},".":{"ha":269,"x_min":82,"x_max":189,"o":"m 189 188 l 189 19 q 171 0 189 0 l 100 0 q 82 19 82 0 l 82 188 q 100 206 82 206 l 171 206 q 189 188 189 206 z "},"/":{"ha":556,"x_min":74,"x_max":482,"o":"m 147 0 l 90 0 q 74 22 65 0 q 231 453 96 78 q 383 872 367 829 q 410 893 392 893 l 468 893 q 482 869 492 893 l 174 21 q 147 0 167 0 z "},":":{"ha":269,"x_min":82,"x_max":189,"o":"m 189 690 l 189 522 q 171 503 189 503 l 100 503 q 82 524 82 503 l 82 689 q 100 708 82 708 l 171 708 q 189 690 189 708 m 189 188 l 189 19 q 171 0 189 0 l 100 0 q 82 21 82 0 l 82 188 q 100 206 82 206 l 171 206 q 189 188 189 206 z "},";":{"ha":269,"x_min":82,"x_max":189,"o":"m 189 188 l 189 78 q 168 -3 189 47 l 113 -133 q 96 -144 106 -144 q 82 -126 82 -144 l 82 188 q 100 206 82 206 l 171 206 q 189 188 189 206 m 189 690 l 189 522 q 171 503 189 503 l 100 503 q 82 524 82 503 l 82 689 q 100 708 82 708 l 171 708 q 189 690 189 708 z "},"<":{"ha":733,"x_min":92,"x_max":642,"o":"m 642 675 l 642 625 q 624 599 642 604 l 178 450 l 624 300 q 642 275 642 297 l 642 224 q 618 210 642 201 l 115 392 q 92 425 92 401 l 92 474 q 115 507 92 499 l 618 689 q 642 675 642 697 z "},"=":{"ha":753,"x_min":101,"x_max":651,"o":"m 122 617 l 629 617 q 651 596 651 617 l 651 553 q 629 532 651 532 l 122 532 q 101 553 101 532 l 101 596 q 122 617 101 617 m 122 360 l 629 360 q 651 339 651 360 l 651 297 q 629 276 651 276 l 122 276 q 101 297 101 276 l 101 339 q 122 360 101 360 z "},">":{"ha":753,"x_min":101,"x_max":651,"o":"m 101 625 l 101 675 q 125 689 101 697 l 628 507 q 651 474 651 499 l 651 425 q 628 392 651 401 l 125 210 q 101 224 101 201 l 101 275 q 119 300 101 297 l 565 450 l 119 599 q 101 625 101 604 z "},"?":{"ha":654,"x_min":86,"x_max":568,"o":"m 383 188 l 383 19 q 365 0 383 0 l 294 0 q 276 21 276 0 l 276 188 q 294 206 276 206 l 365 206 q 383 188 383 206 m 381 364 l 381 317 q 361 297 381 297 l 303 297 q 283 317 283 297 l 283 361 q 299 445 283 415 q 360 513 315 475 l 418 563 q 469 658 469 606 l 469 688 q 350 806 469 806 l 303 806 q 186 688 186 806 l 186 638 q 167 618 186 618 l 104 618 q 86 638 86 618 l 86 689 q 140 838 86 785 q 290 892 194 892 l 363 892 q 513 838 458 892 q 568 689 568 785 l 568 653 q 503 526 568 581 l 431 465 q 390 418 399 438 q 381 364 381 399 z "},"@":{"ha":1043,"x_min":104,"x_max":944,"o":"m 706 -81 l 454 -81 q 207 13 310 -81 q 104 263 104 106 l 104 492 q 204 742 104 646 q 443 838 304 838 l 718 838 q 882 777 819 838 q 944 621 944 717 l 944 301 q 893 167 944 218 q 758 115 842 115 l 704 115 q 660 130 678 115 q 642 169 642 144 l 642 190 l 636 190 q 492 117 601 117 q 356 169 407 117 q 304 317 304 222 l 304 433 q 357 584 304 529 q 499 639 410 639 l 708 639 q 728 619 728 639 l 728 196 q 747 182 728 182 l 754 182 q 876 308 876 182 l 876 615 q 832 731 876 690 q 713 772 788 772 l 447 772 q 251 694 329 772 q 172 488 172 617 l 172 269 q 253 63 172 140 q 453 -15 333 -15 l 706 -15 q 725 -33 725 -15 l 725 -61 q 706 -81 725 -81 m 642 324 l 642 546 q 628 560 642 560 l 511 560 q 394 439 394 560 l 394 317 q 511 196 394 196 l 514 196 q 609 229 576 196 q 642 324 642 263 z "},"A":{"ha":750,"x_min":39,"x_max":711,"o":"m 121 0 l 51 0 q 39 19 33 0 l 299 874 q 325 893 304 893 l 425 893 q 451 874 446 893 l 711 19 q 699 0 717 0 l 628 0 q 608 19 613 0 l 543 222 l 207 222 l 142 19 q 121 0 136 0 m 372 789 l 229 308 l 521 308 l 378 789 l 372 789 z "},"B":{"ha":763,"x_min":110,"x_max":671,"o":"m 225 86 l 453 86 q 572 204 572 86 l 572 294 q 444 413 572 413 l 225 413 q 211 400 211 413 l 211 100 q 225 86 211 86 m 225 497 l 439 497 q 561 615 561 497 l 561 689 q 443 807 561 807 l 225 807 q 211 793 211 807 l 211 510 q 225 497 211 497 m 110 19 l 110 874 q 129 893 110 893 l 456 893 q 606 840 551 893 q 660 690 660 786 l 660 614 q 543 454 660 490 q 633 408 596 450 q 671 296 671 365 l 671 203 q 616 53 671 107 q 465 0 561 0 l 129 0 q 110 19 110 0 z "},"C":{"ha":751,"x_min":96,"x_max":674,"o":"m 468 0 l 301 0 q 151 54 206 0 q 96 206 96 108 l 96 688 q 151 839 96 785 q 301 893 206 893 l 468 893 q 619 839 564 893 q 674 688 674 785 l 674 619 q 654 600 674 600 l 592 600 q 572 619 572 600 l 572 683 q 456 804 572 804 l 313 804 q 197 683 197 804 l 197 210 q 313 89 197 89 l 456 89 q 572 210 572 89 l 572 274 q 592 293 572 293 l 654 293 q 674 274 674 293 l 674 206 q 619 54 674 108 q 468 0 564 0 z "},"D":{"ha":772,"x_min":110,"x_max":676,"o":"m 225 89 l 458 89 q 575 210 575 89 l 575 683 q 458 804 575 804 l 225 804 q 211 792 211 804 l 211 101 q 225 89 211 89 m 110 19 l 110 874 q 129 893 110 893 l 471 893 q 622 838 567 893 q 676 688 676 783 l 676 206 q 622 55 676 110 q 471 0 567 0 l 129 0 q 110 19 110 0 z "},"E":{"ha":667,"x_min":110,"x_max":585,"o":"m 565 0 l 129 0 q 110 19 110 0 l 110 874 q 129 893 110 893 l 565 893 q 585 874 585 893 l 585 824 q 565 804 585 804 l 225 804 q 211 792 211 804 l 211 511 q 225 499 211 499 l 522 499 q 542 479 542 499 l 542 429 q 522 410 542 410 l 225 410 q 211 397 211 410 l 211 101 q 225 89 211 89 l 565 89 q 585 69 585 89 l 585 19 q 565 0 585 0 z "},"F":{"ha":635,"x_min":110,"x_max":581,"o":"m 192 0 l 129 0 q 110 19 110 0 l 110 874 q 129 893 110 893 l 561 893 q 581 874 581 893 l 581 824 q 561 804 581 804 l 225 804 q 211 792 211 804 l 211 489 q 225 476 211 476 l 522 476 q 542 457 542 476 l 542 407 q 522 388 542 388 l 225 388 q 211 374 211 388 l 211 19 q 192 0 211 0 z "},"G":{"ha":751,"x_min":96,"x_max":656,"o":"m 451 0 l 301 0 q 151 54 206 0 q 96 206 96 108 l 96 688 q 151 839 96 785 q 301 893 206 893 l 451 893 q 601 838 547 893 q 656 688 656 783 l 656 631 q 636 610 656 610 l 574 610 q 554 631 554 610 l 554 683 q 439 804 554 804 l 313 804 q 197 683 197 804 l 197 210 q 313 89 197 89 l 439 89 q 554 210 554 89 l 554 365 q 542 379 554 379 l 404 379 q 385 397 385 379 l 385 449 q 404 468 385 468 l 628 468 q 656 439 656 468 l 656 206 q 601 54 656 108 q 451 0 547 0 z "},"H":{"ha":794,"x_min":110,"x_max":685,"o":"m 192 0 l 129 0 q 110 19 110 0 l 110 874 q 129 893 110 893 l 192 893 q 211 874 211 893 l 211 508 q 225 496 211 496 l 569 496 q 583 508 583 496 l 583 874 q 603 893 583 893 l 665 893 q 685 874 685 893 l 685 19 q 665 0 685 0 l 603 0 q 583 19 583 0 l 583 394 q 569 407 583 407 l 225 407 q 211 394 211 407 l 211 19 q 192 0 211 0 z "},"I":{"ha":335,"x_min":117,"x_max":218,"o":"m 218 874 l 218 19 q 199 0 218 0 l 136 0 q 117 19 117 0 l 117 874 q 136 893 117 893 l 199 893 q 218 874 218 893 z "},"J":{"ha":701,"x_min":50,"x_max":599,"o":"m 518 893 l 581 893 q 599 875 599 893 l 599 206 q 544 54 599 108 q 394 0 489 0 l 256 0 q 105 55 160 0 q 50 206 50 110 l 50 325 q 69 344 50 344 l 132 344 q 151 325 151 344 l 151 210 q 268 89 151 89 l 382 89 q 499 210 499 89 l 499 874 q 518 893 499 893 z "},"K":{"ha":747,"x_min":110,"x_max":714,"o":"m 192 0 l 129 0 q 110 19 110 0 l 110 874 q 129 893 110 893 l 192 893 q 211 874 211 893 l 211 394 l 215 394 q 246 451 225 424 l 557 874 q 593 893 569 893 l 668 893 q 675 872 692 893 l 400 500 l 714 22 q 701 0 729 0 l 644 0 q 604 19 615 0 l 338 426 l 211 275 l 211 19 q 192 0 211 0 z "},"L":{"ha":626,"x_min":110,"x_max":594,"o":"m 575 0 l 129 0 q 110 19 110 0 l 110 874 q 129 893 110 893 l 192 893 q 211 874 211 893 l 211 104 q 225 92 211 92 l 575 92 q 594 71 594 92 l 594 19 q 575 0 594 0 z "},"M":{"ha":979,"x_min":110,"x_max":869,"o":"m 738 893 l 850 893 q 869 874 869 893 l 869 19 q 850 0 869 0 l 789 0 q 769 19 769 0 l 769 757 l 764 757 l 549 213 q 524 194 540 194 l 457 194 q 433 213 439 194 l 214 758 l 208 758 l 208 19 q 190 0 208 0 l 129 0 q 110 19 110 0 l 110 874 q 129 893 110 893 l 242 893 q 258 882 254 893 l 486 307 l 493 307 l 721 882 q 738 893 724 893 z "},"N":{"ha":807,"x_min":110,"x_max":697,"o":"m 190 0 l 129 0 q 110 19 110 0 l 110 874 q 129 893 110 893 l 186 893 q 208 882 203 893 l 592 208 l 597 208 l 597 874 q 617 893 597 893 l 678 893 q 697 874 697 893 l 697 19 q 678 0 697 0 l 626 0 q 597 18 611 0 l 215 685 l 210 685 l 210 19 q 190 0 210 0 z "},"O":{"ha":768,"x_min":96,"x_max":672,"o":"m 313 89 l 454 89 q 571 210 571 89 l 571 683 q 454 804 571 804 l 313 804 q 197 683 197 804 l 197 210 q 313 89 197 89 m 467 0 l 301 0 q 151 54 206 0 q 96 206 96 108 l 96 688 q 151 839 96 785 q 301 893 206 893 l 467 893 q 617 838 563 893 q 672 688 672 783 l 672 206 q 617 55 672 110 q 467 0 563 0 z "},"P":{"ha":731,"x_min":110,"x_max":658,"o":"m 192 0 l 129 0 q 110 19 110 0 l 110 874 q 129 893 110 893 l 454 893 q 604 838 550 893 q 658 688 658 783 l 658 533 q 604 382 658 436 q 454 328 550 328 l 225 328 q 211 315 211 328 l 211 19 q 192 0 211 0 m 225 418 l 440 418 q 557 538 557 418 l 557 683 q 440 804 557 804 l 225 804 q 211 792 211 804 l 211 431 q 225 418 211 418 z "},"Q":{"ha":778,"x_min":101,"x_max":676,"o":"m 318 89 l 460 89 q 576 210 576 89 l 576 683 q 460 804 576 804 l 318 804 q 203 683 203 804 l 203 210 q 318 89 203 89 m 585 -185 l 528 -185 q 492 -165 503 -185 l 392 0 l 306 0 q 156 54 211 0 q 101 206 101 108 l 101 688 q 156 838 101 783 q 306 893 211 893 l 471 893 q 622 839 567 893 q 676 688 676 785 l 676 206 q 629 63 676 117 q 499 3 582 10 l 597 -162 q 599 -178 603 -172 q 585 -185 594 -185 z "},"R":{"ha":746,"x_min":110,"x_max":675,"o":"m 192 0 l 129 0 q 110 19 110 0 l 110 874 q 129 893 110 893 l 449 893 q 600 838 544 893 q 656 688 656 783 l 656 561 q 618 433 656 483 q 514 365 581 382 l 514 360 l 675 22 q 661 0 688 0 l 599 0 q 564 19 575 0 l 408 356 l 225 356 q 211 343 211 356 l 211 19 q 192 0 211 0 m 225 440 l 435 440 q 554 560 554 440 l 554 683 q 435 804 554 804 l 225 804 q 211 792 211 804 l 211 453 q 225 440 211 440 z "},"S":{"ha":771,"x_min":100,"x_max":671,"o":"m 100 206 l 100 250 q 119 269 100 269 l 182 269 q 201 250 201 269 l 201 214 q 325 89 201 89 l 447 89 q 571 217 571 89 l 571 264 q 406 394 571 364 q 267 424 336 407 q 149 488 197 440 q 100 619 100 536 l 100 688 q 155 838 100 783 q 306 893 210 893 l 460 893 q 610 838 554 893 q 665 688 665 783 l 665 653 q 647 632 665 632 l 583 632 q 565 653 565 632 l 565 678 q 442 804 565 804 l 324 804 q 200 672 200 804 l 200 617 q 293 519 200 546 q 385 499 335 508 q 485 476 435 490 q 578 440 536 461 q 645 374 619 418 q 671 268 671 331 l 671 206 q 615 55 671 110 q 465 0 560 0 l 306 0 q 156 55 211 0 q 100 206 100 110 z "},"T":{"ha":593,"x_min":22,"x_max":571,"o":"m 328 0 l 265 0 q 246 19 246 0 l 246 792 q 232 804 246 804 l 43 804 q 22 824 22 804 l 22 874 q 43 893 22 893 l 550 893 q 571 874 571 893 l 571 824 q 550 804 571 804 l 361 804 q 347 792 347 804 l 347 19 q 328 0 347 0 z "},"U":{"ha":769,"x_min":103,"x_max":667,"o":"m 585 893 l 647 893 q 667 875 667 893 l 667 206 q 613 54 667 108 q 463 0 558 0 l 308 0 q 158 54 213 0 q 103 206 103 108 l 103 874 q 122 893 103 893 l 185 893 q 204 874 204 893 l 204 210 q 319 89 204 89 l 450 89 q 567 210 567 89 l 567 874 q 585 893 567 893 z "},"V":{"ha":703,"x_min":33,"x_max":669,"o":"m 401 0 l 303 0 q 279 19 285 0 l 33 872 q 51 893 29 893 l 119 893 q 142 874 138 893 l 349 114 l 354 114 l 561 874 q 583 893 565 893 l 653 893 q 669 872 674 893 l 424 19 q 401 0 418 0 z "},"W":{"ha":1107,"x_min":38,"x_max":1071,"o":"m 346 0 l 239 0 q 215 19 219 0 l 38 874 q 56 893 33 893 l 131 893 q 153 874 151 893 l 293 108 l 301 108 l 489 875 q 511 893 493 893 l 594 893 q 617 875 613 893 l 807 108 l 815 108 l 954 872 q 978 893 958 893 l 1053 893 q 1071 872 1075 893 l 892 19 q 869 0 888 0 l 763 0 q 739 19 743 0 l 557 765 l 551 765 l 368 19 q 346 0 364 0 z "},"X":{"ha":714,"x_min":43,"x_max":672,"o":"m 129 0 l 57 0 q 44 6 47 0 q 44 21 40 13 l 288 467 l 57 872 q 56 887 51 881 q 69 893 60 893 l 139 893 q 169 874 161 893 l 356 532 l 361 532 l 544 874 q 575 893 556 893 l 647 893 q 660 887 657 893 q 660 872 664 881 l 428 468 l 669 21 q 672 6 675 13 q 658 0 668 0 l 585 0 q 558 18 565 0 l 360 390 l 354 390 l 157 18 q 129 0 147 0 z "},"Y":{"ha":694,"x_min":32,"x_max":663,"o":"m 378 0 l 315 0 q 296 19 296 0 l 296 335 l 32 872 q 32 888 28 882 q 44 893 36 893 l 122 893 q 146 874 138 893 l 344 453 l 351 453 l 549 874 q 571 893 554 893 l 650 893 q 663 872 674 893 l 397 335 l 397 19 q 378 0 397 0 z "},"Z":{"ha":685,"x_min":61,"x_max":624,"o":"m 61 19 l 61 69 q 69 106 61 94 l 500 793 l 500 799 l 99 799 q 79 818 79 799 l 79 874 q 99 893 79 893 l 590 893 q 610 874 610 893 l 610 807 q 599 768 610 785 l 179 100 l 179 94 l 604 94 q 624 76 624 94 l 624 21 q 604 0 624 0 l 81 0 q 61 19 61 0 z "},"[":{"ha":413,"x_min":93,"x_max":321,"o":"m 301 -139 l 113 -139 q 93 -119 93 -139 l 93 874 q 113 893 93 893 l 301 893 q 321 874 321 893 l 321 839 q 301 819 321 819 l 193 819 q 179 806 179 819 l 179 -51 q 193 -65 179 -65 l 301 -65 q 321 -85 321 -65 l 321 -121 q 301 -139 321 -139 z "},"\\":{"ha":556,"x_min":74,"x_max":482,"o":"m 88 893 l 147 893 q 174 872 164 893 q 328 447 193 821 q 482 22 463 72 q 467 0 490 0 l 408 0 q 382 21 392 0 l 74 869 q 88 893 65 893 z "},"]":{"ha":413,"x_min":83,"x_max":310,"o":"m 83 -121 l 83 -85 q 103 -65 83 -65 l 211 -65 q 225 -51 225 -65 l 225 806 q 211 819 225 819 l 103 819 q 83 839 83 819 l 83 874 q 103 893 83 893 l 292 893 q 310 874 310 893 l 310 -119 q 292 -139 310 -139 l 103 -139 q 83 -121 83 -139 z "},"^":{"ha":665,"x_min":76,"x_max":588,"o":"m 146 506 l 90 506 q 76 528 64 506 l 254 865 q 296 893 267 893 l 368 893 q 410 865 397 893 l 588 528 q 574 506 600 506 l 518 506 q 490 525 501 506 l 332 829 l 174 525 q 146 506 163 506 z "},"_":{"ha":517,"x_min":0,"x_max":517,"o":"m 497 -143 l 19 -143 q 0 -124 0 -143 l 0 -99 q 19 -79 0 -79 l 497 -79 q 517 -99 517 -79 l 517 -124 q 497 -143 517 -143 z "},"`":{"ha":385,"x_min":89,"x_max":294,"o":"m 286 797 l 240 797 q 213 811 224 797 l 92 957 q 89 971 86 965 q 100 976 92 976 l 185 976 q 214 958 204 976 l 294 817 q 286 797 306 797 z "},"a":{"ha":704,"x_min":82,"x_max":608,"o":"m 360 0 l 288 0 q 137 54 192 0 q 82 206 82 108 l 82 503 q 137 654 82 600 q 288 708 192 708 l 589 708 q 608 689 608 708 l 608 19 q 589 0 608 0 l 526 0 q 507 19 507 0 l 507 74 l 501 74 q 360 0 467 0 m 507 217 l 507 607 q 493 619 507 619 l 299 619 q 183 499 183 619 l 183 210 q 299 89 183 89 l 378 89 q 474 122 440 89 q 507 217 507 156 z "},"b":{"ha":708,"x_min":96,"x_max":626,"o":"m 211 89 l 408 89 q 526 210 526 89 l 526 507 q 408 628 526 628 l 326 628 q 231 594 264 628 q 197 501 197 561 l 197 101 q 211 89 197 89 m 96 19 l 96 957 q 115 976 96 976 l 178 976 q 197 957 197 976 l 197 643 l 203 643 q 344 717 238 717 l 422 717 q 572 663 517 717 q 626 513 626 608 l 626 206 q 572 54 626 108 q 422 0 517 0 l 115 0 q 96 19 96 0 z "},"c":{"ha":554,"x_min":82,"x_max":508,"o":"m 508 69 l 508 18 q 489 0 508 0 l 288 0 q 137 54 192 0 q 82 206 82 108 l 82 503 q 137 654 82 600 q 288 708 192 708 l 489 708 q 508 689 508 708 l 508 638 q 489 619 508 619 l 299 619 q 183 499 183 619 l 183 210 q 299 89 183 89 l 489 89 q 508 69 508 89 z "},"d":{"ha":708,"x_min":82,"x_max":613,"o":"m 364 0 l 282 0 q 135 54 188 0 q 82 206 82 108 l 82 503 q 135 654 82 600 q 282 708 188 708 l 364 708 q 507 635 472 708 l 513 635 l 513 957 q 531 976 513 976 l 594 976 q 613 957 613 976 l 613 19 q 594 0 613 0 l 531 0 q 513 19 513 0 l 513 74 l 507 74 q 364 0 472 0 m 513 217 l 513 492 q 479 586 513 553 q 383 619 446 619 l 299 619 q 183 499 183 619 l 183 210 q 299 89 183 89 l 383 89 q 479 122 446 89 q 513 217 513 156 z "},"e":{"ha":683,"x_min":82,"x_max":608,"o":"m 582 0 l 288 0 q 137 54 192 0 q 82 206 82 108 l 82 503 q 137 654 82 600 q 288 708 192 708 l 404 708 q 554 654 500 708 q 608 503 608 600 l 608 326 q 589 306 608 306 l 196 306 q 182 293 182 306 l 182 208 q 299 88 182 88 l 582 88 q 601 68 601 88 l 601 18 q 582 0 601 0 m 196 379 l 496 379 q 510 393 510 379 l 510 500 q 393 619 510 619 l 299 619 q 182 500 182 619 l 182 393 q 196 379 182 379 z "},"f":{"ha":442,"x_min":44,"x_max":417,"o":"m 274 708 l 396 708 q 417 690 417 708 l 417 639 q 396 619 417 619 l 274 619 q 261 607 261 619 l 261 19 q 240 0 261 0 l 179 0 q 160 19 160 0 l 160 607 q 146 619 160 619 l 64 619 q 44 639 44 619 l 44 690 q 64 708 44 708 l 146 708 q 160 721 160 708 l 160 772 q 208 924 160 871 q 350 976 257 976 l 397 976 q 417 958 417 976 l 417 907 q 397 888 417 888 l 363 888 q 283 859 306 888 q 261 768 261 831 l 261 721 q 274 708 261 708 z "},"g":{"ha":708,"x_min":86,"x_max":613,"o":"m 364 38 l 286 38 q 139 92 192 38 q 86 243 86 146 l 86 503 q 141 654 86 600 q 292 708 196 708 l 593 708 q 613 689 613 708 l 613 0 q 558 -151 613 -96 q 407 -206 503 -206 l 151 -206 q 131 -186 131 -206 l 131 -135 q 151 -115 131 -115 l 394 -115 q 511 4 511 -115 l 511 111 l 506 111 q 364 38 469 38 m 511 254 l 511 607 q 497 619 511 619 l 304 619 q 188 499 188 619 l 188 247 q 304 126 188 126 l 382 126 q 478 160 444 126 q 511 254 511 193 z "},"h":{"ha":711,"x_min":96,"x_max":622,"o":"m 178 0 l 115 0 q 96 19 96 0 l 96 957 q 115 976 96 976 l 178 976 q 197 957 197 976 l 197 635 l 203 635 q 344 708 238 708 l 422 708 q 569 654 517 708 q 622 503 622 600 l 622 19 q 603 0 622 0 l 540 0 q 521 19 521 0 l 521 499 q 404 619 521 619 l 326 619 q 231 586 264 619 q 197 492 197 553 l 197 19 q 178 0 197 0 z "},"i":{"ha":307,"x_min":103,"x_max":204,"o":"m 103 825 l 103 956 q 121 975 103 975 l 185 975 q 204 956 204 975 l 204 825 q 185 806 204 806 l 121 806 q 103 825 103 806 m 103 19 l 103 689 q 121 708 103 708 l 185 708 q 204 689 204 708 l 204 19 q 185 0 204 0 l 122 0 q 103 19 103 0 z "},"j":{"ha":307,"x_min":-78,"x_max":204,"o":"m 103 825 l 103 956 q 121 975 103 975 l 185 975 q 204 956 204 975 l 204 825 q 185 806 204 806 l 121 806 q 103 825 103 806 m -1 -206 l -58 -206 q -78 -186 -78 -206 l -78 -135 q -58 -115 -78 -115 l -26 -115 q 103 15 103 -115 l 103 689 q 122 708 103 708 l 185 708 q 204 689 204 708 l 204 1 q 149 -150 204 -94 q -1 -206 94 -206 z "},"k":{"ha":615,"x_min":96,"x_max":600,"o":"m 497 708 l 567 708 q 581 702 578 708 q 578 686 585 696 l 374 369 l 374 364 l 599 22 q 600 6 604 13 q 585 0 596 0 l 519 0 q 481 19 493 0 l 267 350 q 267 379 258 364 l 464 690 q 497 708 472 708 m 178 0 l 115 0 q 96 19 96 0 l 96 957 q 115 976 96 976 l 178 976 q 197 957 197 976 l 197 19 q 178 0 197 0 z "},"l":{"ha":307,"x_min":103,"x_max":204,"o":"m 185 0 l 122 0 q 103 19 103 0 l 103 957 q 122 976 103 976 l 185 976 q 204 957 204 976 l 204 19 q 185 0 204 0 z "},"m":{"ha":1079,"x_min":96,"x_max":990,"o":"m 178 0 l 115 0 q 96 19 96 0 l 96 689 q 115 708 96 708 l 178 708 q 197 689 197 708 l 197 635 l 203 635 q 350 708 242 708 l 401 708 q 571 614 524 708 q 641 684 593 660 q 742 708 689 708 l 790 708 q 938 654 885 708 q 990 503 990 600 l 990 19 q 971 0 990 0 l 908 0 q 889 19 889 0 l 889 499 q 772 619 889 619 l 726 619 q 630 584 664 619 q 596 488 596 549 l 596 19 q 576 0 596 0 l 514 0 q 494 19 494 0 l 494 499 q 378 619 494 619 l 326 619 q 231 586 264 619 q 197 492 197 553 l 197 19 q 178 0 197 0 z "},"n":{"ha":711,"x_min":96,"x_max":622,"o":"m 178 0 l 115 0 q 96 19 96 0 l 96 689 q 115 708 96 708 l 178 708 q 197 689 197 708 l 197 635 l 203 635 q 344 708 238 708 l 422 708 q 569 654 517 708 q 622 503 622 600 l 622 19 q 603 0 622 0 l 540 0 q 521 19 521 0 l 521 499 q 404 619 521 619 l 326 619 q 231 586 264 619 q 197 492 197 553 l 197 19 q 178 0 197 0 z "},"o":{"ha":694,"x_min":82,"x_max":613,"o":"m 407 0 l 288 0 q 137 54 192 0 q 82 206 82 108 l 82 503 q 137 654 82 600 q 288 708 192 708 l 407 708 q 558 654 503 708 q 613 503 613 600 l 613 206 q 558 54 613 108 q 407 0 503 0 m 299 89 l 396 89 q 513 208 513 89 l 513 500 q 396 619 513 619 l 299 619 q 182 500 182 619 l 182 208 q 299 89 182 89 z "},"p":{"ha":708,"x_min":96,"x_max":626,"o":"m 178 -203 l 115 -203 q 96 -183 96 -203 l 96 689 q 115 708 96 708 l 178 708 q 197 689 197 708 l 197 635 l 203 635 q 344 708 238 708 l 428 708 q 574 654 522 708 q 626 503 626 600 l 626 206 q 574 54 626 108 q 428 0 522 0 l 344 0 q 203 74 238 0 l 197 74 l 197 -183 q 178 -203 197 -203 m 326 89 l 408 89 q 526 210 526 89 l 526 499 q 408 619 526 619 l 326 619 q 231 586 264 619 q 197 492 197 553 l 197 217 q 231 122 197 156 q 326 89 264 89 z "},"q":{"ha":704,"x_min":82,"x_max":608,"o":"m 507 221 l 507 607 q 493 619 507 619 l 299 619 q 183 499 183 619 l 183 210 q 299 89 183 89 l 375 89 q 473 124 439 89 q 507 221 507 160 m 356 0 l 288 0 q 137 54 192 0 q 82 206 82 108 l 82 503 q 137 654 82 600 q 288 708 192 708 l 589 708 q 608 689 608 708 l 608 -183 q 589 -203 608 -203 l 526 -203 q 507 -183 507 -203 l 507 75 l 501 75 q 356 0 461 0 z "},"r":{"ha":449,"x_min":96,"x_max":419,"o":"m 178 0 l 115 0 q 96 19 96 0 l 96 689 q 115 708 96 708 l 178 708 q 197 689 197 708 l 197 633 l 203 633 q 256 686 217 664 q 347 708 294 708 l 401 708 q 419 689 419 708 l 419 638 q 415 623 419 628 q 401 619 411 618 l 326 619 q 231 582 264 619 q 197 479 197 544 l 197 19 q 178 0 197 0 z "},"s":{"ha":601,"x_min":64,"x_max":535,"o":"m 336 0 l 89 0 q 69 19 69 0 l 69 68 q 89 86 69 86 l 322 86 q 431 167 431 86 l 431 193 q 360 294 431 267 l 196 364 q 94 433 125 393 q 64 538 64 472 q 251 708 64 708 l 479 708 q 499 689 499 708 l 499 640 q 479 622 499 622 l 269 622 q 194 601 219 622 q 168 553 168 581 l 168 529 q 247 440 168 471 l 411 367 q 509 293 483 339 q 535 167 535 247 q 336 0 535 0 z "},"t":{"ha":485,"x_min":26,"x_max":433,"o":"m 122 619 l 46 619 q 26 638 26 619 l 26 689 q 46 708 26 708 l 122 708 q 136 721 136 708 l 136 840 q 156 860 136 860 l 218 860 q 236 840 236 860 l 236 721 q 251 708 236 708 l 399 708 q 419 689 419 708 l 419 638 q 399 619 419 619 l 251 619 q 236 607 236 619 l 236 207 q 358 89 236 89 l 413 89 q 433 69 433 89 l 433 18 q 413 0 433 0 l 346 0 q 193 53 250 0 q 136 203 136 107 l 136 607 q 122 619 136 619 z "},"u":{"ha":711,"x_min":89,"x_max":615,"o":"m 367 0 l 289 0 q 142 54 194 0 q 89 206 89 108 l 89 689 q 108 708 89 708 l 171 708 q 190 689 190 708 l 190 210 q 306 89 190 89 l 385 89 q 481 122 447 89 q 514 217 514 156 l 514 689 q 533 708 514 708 l 596 708 q 615 689 615 708 l 615 19 q 596 0 615 0 l 533 0 q 514 19 514 0 l 514 74 l 508 74 q 367 0 474 0 z "},"v":{"ha":599,"x_min":28,"x_max":571,"o":"m 42 708 l 107 708 q 129 689 125 708 l 296 101 l 303 101 l 468 689 q 492 708 474 708 l 557 708 q 571 689 576 708 l 371 21 q 346 0 367 0 l 251 0 q 226 21 232 0 l 28 689 q 42 708 22 708 z "},"w":{"ha":953,"x_min":29,"x_max":924,"o":"m 315 0 l 231 0 q 207 19 211 0 l 29 689 q 43 708 25 708 l 114 708 q 136 689 132 708 l 271 122 l 279 122 l 422 689 q 444 708 426 708 l 508 708 q 533 689 528 708 l 672 122 l 681 122 l 817 689 q 839 708 821 708 l 910 708 q 924 689 928 708 l 746 19 q 722 0 742 0 l 636 0 q 614 19 618 0 l 479 572 l 472 572 l 339 19 q 315 0 335 0 z "},"x":{"ha":593,"x_min":35,"x_max":560,"o":"m 124 0 l 46 0 q 35 19 24 0 l 229 361 l 42 689 q 51 708 31 708 l 129 708 q 158 689 147 708 l 294 426 l 300 426 l 429 689 q 458 708 439 708 l 535 708 q 544 689 558 708 l 363 363 l 560 19 q 550 0 572 0 l 469 0 q 443 19 454 0 l 300 293 l 294 293 l 151 19 q 124 0 143 0 z "},"y":{"ha":643,"x_min":36,"x_max":607,"o":"m 153 -218 l 92 -218 q 72 -199 72 -218 l 72 -147 q 92 -128 72 -128 l 126 -128 q 251 -78 215 -128 q 304 38 281 -37 l 264 38 q 240 57 247 38 l 36 689 q 50 708 31 708 l 117 708 q 140 689 135 708 l 319 117 l 325 117 l 504 689 q 526 708 508 708 l 590 708 q 607 688 614 708 l 400 28 q 312 -154 365 -90 q 153 -218 258 -218 z "},"z":{"ha":581,"x_min":46,"x_max":535,"o":"m 46 19 l 46 46 q 60 89 46 71 l 403 614 l 403 619 l 76 619 q 57 640 57 619 l 57 689 q 76 708 57 708 l 503 708 q 524 689 524 708 l 524 643 q 511 606 524 618 l 179 94 l 179 89 l 515 89 q 535 68 535 89 l 535 19 q 515 0 535 0 l 67 0 q 46 19 46 0 z "},"{":{"ha":421,"x_min":46,"x_max":342,"o":"m 315 893 l 322 893 q 342 874 342 893 l 342 836 q 322 817 342 817 l 318 817 q 247 788 267 817 q 228 696 228 758 l 228 510 q 149 375 228 401 q 228 242 228 353 l 228 56 q 247 -36 228 -7 q 318 -65 267 -65 l 322 -65 q 342 -85 342 -65 l 342 -122 q 322 -142 342 -142 l 315 -142 q 143 64 143 -142 l 143 235 q 65 331 143 331 q 46 350 46 331 l 46 400 q 65 419 46 419 q 143 517 143 419 l 143 688 q 315 893 143 893 z "},"|":{"ha":297,"x_min":111,"x_max":186,"o":"m 186 874 l 186 19 q 167 0 186 0 l 129 0 q 111 19 111 0 l 111 874 q 129 893 111 893 l 167 893 q 186 874 186 893 z "},"}":{"ha":421,"x_min":46,"x_max":342,"o":"m 244 688 l 244 517 q 322 419 244 419 q 342 400 342 419 l 342 350 q 322 331 342 331 q 244 235 244 331 l 244 64 q 72 -142 244 -142 l 65 -142 q 46 -122 46 -142 l 46 -85 q 65 -65 46 -65 l 69 -65 q 140 -36 119 -65 q 160 56 160 -7 l 160 242 q 239 375 160 353 q 160 510 160 401 l 160 696 q 140 788 160 758 q 69 817 119 817 l 65 817 q 46 836 46 817 l 46 874 q 65 893 46 893 l 72 893 q 244 688 244 893 z "},"~":{"ha":743,"x_min":97,"x_max":646,"o":"m 513 388 q 486 388 513 388 q 367 408 460 388 q 238 429 275 429 q 158 413 200 429 q 113 396 117 396 q 97 413 97 396 l 97 454 q 126 489 97 475 q 230 510 178 510 q 372 488 282 510 q 503 467 463 467 q 586 484 544 467 q 632 501 628 501 q 646 485 646 501 l 646 442 q 617 408 646 421 q 513 388 565 388 z "}," ":{"ha":353,"x_min":0,"x_max":0,"o":""},"¡":{"ha":329,"x_min":108,"x_max":221,"o":"m 199 688 l 132 688 q 114 706 114 688 l 114 872 q 132 893 114 893 l 199 893 q 218 874 218 893 l 218 706 q 199 688 218 688 m 146 596 l 183 596 q 201 579 199 596 q 208 500 204 563 q 221 181 221 313 l 221 19 q 201 0 221 0 l 128 0 q 108 19 108 0 l 108 181 q 117 438 108 313 q 126 575 125 563 q 146 596 128 596 z "},"¢":{"ha":582,"x_min":82,"x_max":531,"o":"m 383 -126 l 333 -126 q 315 -107 315 -126 l 315 0 l 279 0 q 135 56 188 0 q 82 206 82 111 l 82 503 q 135 653 82 597 q 279 708 188 708 l 315 708 l 315 829 q 333 849 315 849 l 383 849 q 401 831 401 849 l 401 708 l 500 708 q 531 689 531 708 l 531 638 q 510 619 531 619 l 299 619 q 183 499 183 619 l 183 210 q 299 89 183 89 l 510 89 q 531 71 531 89 l 531 19 q 510 0 531 0 l 401 0 l 401 -108 q 383 -126 401 -126 z "},"£":{"ha":744,"x_min":46,"x_max":651,"o":"m 194 85 l 633 85 q 651 65 651 85 l 651 19 q 633 0 651 0 l 65 0 q 46 19 46 0 l 46 65 q 65 85 46 85 l 79 85 q 125 112 106 85 q 144 179 144 139 l 144 369 l 65 369 q 46 390 46 369 l 46 436 q 65 454 46 454 l 144 454 l 144 690 q 199 840 144 786 q 350 893 254 893 l 440 893 q 590 840 536 893 q 644 690 644 786 l 644 653 q 625 633 644 633 l 563 633 q 543 653 543 633 l 543 689 q 426 807 543 807 l 363 807 q 243 689 243 807 l 243 454 l 447 454 q 467 436 467 454 l 467 390 q 447 369 467 369 l 243 369 l 243 192 q 228 117 243 143 q 194 90 213 90 l 194 85 z "},"¥":{"ha":711,"x_min":39,"x_max":671,"o":"m 386 0 l 324 0 q 304 19 304 0 l 304 229 l 75 229 q 54 250 54 229 l 54 282 q 75 303 54 303 l 301 303 l 301 340 l 258 431 l 75 431 q 54 450 54 431 l 54 483 q 75 504 54 504 l 222 504 l 39 874 q 50 893 31 893 l 132 893 q 153 874 144 893 l 351 444 l 357 444 l 557 874 q 579 893 565 893 l 660 893 q 671 874 681 893 l 489 504 l 635 504 q 656 483 656 504 l 656 450 q 635 431 656 431 l 453 431 l 408 340 l 408 303 l 635 303 q 656 282 656 303 l 656 250 q 635 229 656 229 l 406 229 l 406 19 q 386 0 406 0 z "},"¦":{"ha":290,"x_min":106,"x_max":185,"o":"m 185 874 l 185 539 q 165 519 185 519 l 125 519 q 106 539 106 519 l 106 874 q 125 893 106 893 l 165 893 q 185 874 185 893 m 185 354 l 185 19 q 165 0 185 0 l 125 0 q 106 19 106 0 l 106 354 q 125 374 106 374 l 165 374 q 185 354 185 374 z "},"§":{"ha":644,"x_min":83,"x_max":561,"o":"m 467 419 q 444 483 467 461 q 376 514 422 504 l 265 535 q 178 572 210 549 l 178 481 q 267 381 178 400 l 378 360 q 467 326 436 349 l 467 419 m 358 0 l 117 0 q 97 19 97 0 l 97 71 q 117 89 97 89 l 353 89 q 438 115 415 89 q 460 185 460 142 q 436 249 460 229 q 360 279 413 268 l 221 306 q 83 475 83 333 l 83 715 q 130 844 83 796 q 276 893 176 893 l 503 893 q 522 874 522 893 l 522 822 q 503 804 522 804 l 279 804 q 185 711 185 804 q 206 649 185 671 q 283 617 226 628 l 422 590 q 561 425 561 563 l 561 188 q 358 0 561 0 z "},"¨":{"ha":508,"x_min":88,"x_max":421,"o":"m 88 817 l 88 957 q 106 976 88 976 l 164 976 q 183 958 183 976 l 183 817 q 164 797 183 797 l 106 797 q 88 817 88 797 m 324 817 l 324 957 q 343 976 324 976 l 401 976 q 421 958 421 976 l 421 817 q 401 797 421 797 l 343 797 q 324 817 324 797 z "},"©":{"ha":996,"x_min":97,"x_max":900,"o":"m 685 558 l 685 528 q 671 513 685 513 l 626 513 q 613 528 613 513 l 613 550 q 590 630 613 610 q 507 650 568 650 l 488 650 q 404 630 426 650 q 382 550 382 610 l 382 339 q 404 259 382 279 q 488 239 426 239 l 507 239 q 590 259 568 239 q 613 339 613 279 l 613 365 q 626 381 613 381 l 671 381 q 685 365 685 381 l 685 329 q 521 174 685 174 l 474 174 q 310 329 310 174 l 310 558 q 474 714 310 714 l 521 714 q 685 558 685 714 m 293 67 l 703 67 q 826 192 826 67 l 826 701 q 703 826 826 826 l 293 826 q 169 701 169 826 l 169 192 q 293 67 169 67 m 278 893 l 718 893 q 851 844 801 893 q 900 711 900 796 l 900 182 q 851 49 900 97 q 718 0 801 0 l 278 0 q 146 49 194 0 q 97 182 97 97 l 97 711 q 146 844 97 794 q 278 893 194 893 z "},"«":{"ha":608,"x_min":82,"x_max":526,"o":"m 526 179 l 526 133 q 520 117 526 121 q 504 122 514 114 l 310 300 q 290 338 290 317 l 290 374 q 310 410 290 393 l 504 588 q 520 592 514 596 q 526 578 526 589 l 526 532 q 510 504 526 515 l 350 356 l 510 207 q 526 179 526 196 m 317 179 l 317 133 q 311 117 317 121 q 296 122 306 114 l 101 300 q 82 338 82 315 l 82 374 q 101 410 82 393 l 296 588 q 311 592 306 596 q 317 578 317 589 l 317 532 q 301 504 317 517 l 142 356 l 301 207 q 317 179 317 194 z "},"®":{"ha":625,"x_min":92,"x_max":532,"o":"m 333 854 l 279 854 l 279 771 l 333 771 q 356 794 356 771 l 356 833 q 333 854 356 854 m 233 657 l 233 878 q 251 896 233 896 l 336 896 q 401 833 401 896 l 401 793 q 368 736 401 749 l 404 661 q 393 639 414 639 l 379 639 q 361 651 367 639 l 324 733 l 279 733 l 279 657 q 261 639 279 639 l 251 639 q 233 657 233 639 m 242 589 l 383 589 q 482 692 482 589 l 482 842 q 383 943 482 943 l 242 943 q 142 842 142 943 l 142 692 q 242 589 142 589 m 390 543 l 233 543 q 130 581 168 543 q 92 683 92 619 l 92 849 q 131 952 92 914 q 233 990 169 990 l 390 990 q 494 952 456 990 q 532 849 532 914 l 532 683 q 494 581 532 618 q 390 543 456 543 z "},"¯":{"ha":493,"x_min":88,"x_max":406,"o":"m 386 851 l 107 851 q 88 871 88 851 l 88 904 q 107 924 88 924 l 386 924 q 406 904 406 924 l 406 871 q 386 851 406 851 z "},"°":{"ha":446,"x_min":121,"x_max":325,"o":"m 256 710 l 189 710 q 121 778 121 710 l 121 913 q 189 978 121 978 l 256 978 q 306 960 288 978 q 325 913 325 943 l 325 778 q 306 728 325 746 q 256 710 288 710 m 232 757 q 264 765 256 757 q 272 797 272 774 l 272 888 q 264 920 272 913 q 232 928 256 928 l 214 928 q 181 920 189 928 q 174 888 174 913 l 174 797 q 181 765 174 774 q 214 757 189 757 l 232 757 z "},"±":{"ha":743,"x_min":97,"x_max":646,"o":"m 417 564 l 625 564 q 646 543 646 564 l 646 501 q 625 481 646 481 l 417 481 l 417 344 q 396 324 417 324 l 349 324 q 328 344 328 324 l 328 481 l 118 481 q 97 501 97 481 l 97 543 q 118 564 97 564 l 328 564 l 328 699 q 349 721 328 721 l 396 721 q 417 699 417 721 l 417 564 m 118 254 l 625 254 q 646 235 646 254 l 646 192 q 625 171 646 171 l 118 171 q 97 192 97 171 l 97 235 q 118 254 97 254 z "},"´":{"ha":385,"x_min":90,"x_max":297,"o":"m 201 976 l 285 976 q 297 971 294 976 q 294 957 300 965 l 172 811 q 144 797 161 797 l 100 797 q 90 817 82 797 l 171 958 q 201 976 181 976 z "},"¶":{"ha":725,"x_min":69,"x_max":611,"o":"m 307 0 l 258 0 q 240 19 240 0 l 240 446 q 115 487 161 446 q 69 613 69 528 l 69 726 q 256 893 69 893 l 590 893 q 611 875 611 893 l 611 19 q 592 0 611 0 l 544 0 q 525 19 525 0 l 525 800 q 511 813 525 813 l 340 813 q 325 800 325 813 l 325 19 q 307 0 325 0 z "},"·":{"ha":288,"x_min":90,"x_max":197,"o":"m 197 526 l 197 358 q 179 339 197 339 l 108 339 q 90 358 90 339 l 90 525 q 108 544 90 544 l 179 544 q 197 526 197 544 z "},"¸":{"ha":360,"x_min":89,"x_max":272,"o":"m 167 -65 q 272 -154 272 -65 l 272 -174 q 154 -261 272 -261 l 111 -261 q 93 -243 93 -261 l 93 -224 q 111 -206 93 -206 l 144 -206 q 199 -197 183 -206 q 214 -165 214 -187 l 214 -162 q 199 -128 214 -137 q 144 -119 185 -119 l 122 -119 q 89 -99 97 -119 q 97 -58 81 -78 l 174 28 l 249 28 l 167 -60 l 167 -65 z "},"»":{"ha":608,"x_min":82,"x_max":526,"o":"m 290 532 l 290 578 q 297 592 290 589 q 311 588 303 596 l 507 410 q 526 374 526 393 l 526 338 q 507 300 526 317 l 311 122 q 297 118 303 114 q 290 133 290 122 l 290 179 q 307 207 290 196 l 467 356 l 307 504 q 290 532 290 515 m 82 532 l 82 578 q 88 592 82 589 q 103 588 93 596 l 297 410 q 317 374 317 393 l 317 338 q 297 300 317 315 l 103 122 q 88 117 93 114 q 82 133 82 121 l 82 179 q 97 207 82 194 l 257 356 l 97 504 q 82 532 82 517 z "},"¿":{"ha":654,"x_min":86,"x_max":568,"o":"m 271 704 l 271 872 q 289 892 271 892 l 360 892 q 378 871 378 892 l 378 704 q 360 686 378 686 l 289 686 q 271 704 271 686 m 274 528 l 274 575 q 292 594 274 594 l 351 594 q 371 575 371 594 l 371 531 q 355 447 371 478 q 294 379 339 417 l 236 329 q 185 233 185 288 l 185 204 q 303 86 185 86 l 350 86 q 467 204 467 86 l 467 254 q 486 274 467 274 l 549 274 q 568 254 568 274 l 568 203 q 513 53 568 107 q 363 0 458 0 l 290 0 q 140 53 194 0 q 86 203 86 107 l 86 239 q 150 365 86 310 l 224 426 q 265 474 256 454 q 274 528 274 494 z "},"À":{"ha":749,"x_min":39,"x_max":711,"o":"m 393 982 l 347 982 q 319 996 331 982 l 199 1142 q 196 1156 193 1150 q 208 1161 199 1161 l 292 1161 q 321 1143 313 1161 l 401 1001 q 393 982 413 982 m 121 0 l 51 0 q 39 19 33 0 l 299 874 q 325 893 304 893 l 425 893 q 451 874 446 893 l 711 19 q 699 0 717 0 l 628 0 q 608 19 613 0 l 543 222 l 207 222 l 142 19 q 121 0 136 0 m 372 789 l 229 308 l 521 308 l 378 789 l 372 789 z "},"Á":{"ha":749,"x_min":39,"x_max":711,"o":"m 456 1161 l 539 1161 q 551 1156 549 1161 q 549 1142 554 1150 l 428 996 q 400 982 414 982 l 354 982 q 346 1001 335 982 l 426 1143 q 456 1161 435 1161 m 121 0 l 51 0 q 39 19 33 0 l 299 874 q 325 893 304 893 l 425 893 q 451 874 446 893 l 711 19 q 699 0 717 0 l 628 0 q 608 19 613 0 l 543 222 l 207 222 l 142 19 q 121 0 136 0 m 372 789 l 229 308 l 521 308 l 378 789 l 372 789 z "},"Â":{"ha":749,"x_min":39,"x_max":711,"o":"m 507 982 l 460 982 q 440 993 446 982 l 375 1115 l 308 993 q 290 982 304 982 l 243 982 q 235 999 225 982 l 322 1147 q 351 1161 332 1161 l 399 1161 q 426 1147 417 1161 l 515 999 q 507 982 525 982 m 121 0 l 51 0 q 39 19 33 0 l 299 874 q 325 893 304 893 l 425 893 q 451 874 446 893 l 711 19 q 699 0 717 0 l 628 0 q 608 19 613 0 l 543 222 l 207 222 l 142 19 q 121 0 136 0 m 372 789 l 229 308 l 521 308 l 378 789 l 372 789 z "},"Ã":{"ha":749,"x_min":39,"x_max":711,"o":"m 300 975 q 222 1082 222 975 l 222 1136 q 235 1150 222 1150 l 264 1150 q 276 1136 276 1150 l 276 1100 q 283 1046 276 1060 q 308 1032 290 1032 q 334 1043 325 1032 q 360 1092 343 1054 q 394 1143 378 1131 q 450 1156 411 1156 q 529 1047 529 1156 l 529 993 q 517 978 529 978 l 486 978 q 474 993 474 978 l 474 1031 q 467 1084 474 1071 q 442 1097 460 1097 q 417 1089 424 1097 q 403 1064 410 1081 q 356 988 374 1001 q 300 975 339 975 m 121 0 l 51 0 q 39 19 33 0 l 299 874 q 325 893 304 893 l 425 893 q 451 874 446 893 l 711 19 q 699 0 717 0 l 628 0 q 608 19 613 0 l 543 222 l 207 222 l 142 19 q 121 0 136 0 m 372 789 l 229 308 l 521 308 l 378 789 l 372 789 z "},"Ä":{"ha":749,"x_min":39,"x_max":711,"o":"m 208 1001 l 208 1142 q 226 1161 208 1161 l 286 1161 q 303 1143 303 1161 l 303 1001 q 286 982 303 982 l 226 982 q 208 1001 208 982 m 446 1001 l 446 1142 q 464 1161 446 1161 l 524 1161 q 540 1143 540 1161 l 540 1001 q 524 982 540 982 l 464 982 q 446 1001 446 982 m 121 0 l 51 0 q 39 19 33 0 l 299 874 q 325 893 304 893 l 425 893 q 451 874 446 893 l 711 19 q 699 0 717 0 l 628 0 q 608 19 613 0 l 543 222 l 207 222 l 142 19 q 121 0 136 0 m 372 789 l 229 308 l 521 308 l 378 789 l 372 789 z "},"Å":{"ha":749,"x_min":39,"x_max":711,"o":"m 394 968 l 351 968 q 260 1063 260 968 l 260 1119 q 351 1211 260 1211 l 394 1211 q 463 1187 439 1211 q 488 1119 488 1163 l 488 1063 q 463 993 488 1018 q 394 968 439 968 m 364 1014 l 381 1014 q 436 1074 436 1014 l 436 1106 q 382 1165 436 1165 l 364 1165 q 308 1106 308 1165 l 308 1074 q 364 1014 308 1014 m 121 0 l 51 0 q 39 19 33 0 l 299 874 q 325 893 304 893 l 425 893 q 451 874 446 893 l 711 19 q 699 0 717 0 l 628 0 q 608 19 613 0 l 543 222 l 207 222 l 142 19 q 121 0 136 0 m 372 789 l 229 308 l 521 308 l 378 789 l 372 789 z "},"Æ":{"ha":1076,"x_min":6,"x_max":994,"o":"m 88 0 l 17 0 q 6 21 -6 0 l 450 874 q 482 893 461 893 l 976 893 q 994 874 994 893 l 994 824 q 976 804 994 804 l 636 804 q 621 792 621 804 l 621 511 q 636 499 621 499 l 932 499 q 953 479 953 499 l 953 429 q 932 410 953 410 l 636 410 q 621 397 621 410 l 621 101 q 636 89 621 89 l 976 89 q 994 69 994 89 l 994 19 q 976 0 994 0 l 539 0 q 521 19 521 0 l 521 224 l 221 224 l 113 19 q 88 0 104 0 m 521 314 l 521 792 l 515 792 l 263 314 l 521 314 z "},"Ç":{"ha":751,"x_min":96,"x_max":674,"o":"m 654 600 l 592 600 q 572 619 572 600 l 572 683 q 456 804 572 804 l 313 804 q 197 683 197 804 l 197 210 q 313 89 197 89 l 456 89 q 572 210 572 89 l 572 274 q 592 293 572 293 l 654 293 q 674 274 674 293 l 674 206 q 619 54 674 108 q 468 0 564 0 l 449 0 l 388 -64 l 388 -69 q 494 -160 494 -69 l 494 -178 q 375 -267 494 -267 l 332 -267 q 314 -249 314 -267 l 314 -229 q 332 -211 314 -211 l 365 -211 q 421 -202 406 -211 q 436 -171 436 -193 l 436 -167 q 422 -133 436 -142 q 365 -125 407 -125 l 343 -125 q 310 -104 318 -125 q 319 -64 303 -83 l 375 0 l 301 0 q 151 54 206 0 q 96 206 96 108 l 96 688 q 151 839 96 785 q 301 893 206 893 l 468 893 q 619 839 564 893 q 674 688 674 785 l 674 619 q 654 600 674 600 z "},"È":{"ha":667,"x_min":110,"x_max":585,"o":"m 379 982 l 333 982 q 306 996 317 982 l 185 1142 q 182 1156 179 1150 q 194 1161 185 1161 l 278 1161 q 307 1143 299 1161 l 388 1001 q 379 982 399 982 m 565 0 l 129 0 q 110 19 110 0 l 110 874 q 129 893 110 893 l 565 893 q 585 874 585 893 l 585 824 q 565 804 585 804 l 225 804 q 211 792 211 804 l 211 511 q 225 499 211 499 l 522 499 q 542 479 542 499 l 542 429 q 522 410 542 410 l 225 410 q 211 397 211 410 l 211 101 q 225 89 211 89 l 565 89 q 585 69 585 89 l 585 19 q 565 0 585 0 z "},"É":{"ha":667,"x_min":110,"x_max":585,"o":"m 413 1161 l 496 1161 q 508 1156 506 1161 q 506 1142 511 1150 l 383 996 q 357 982 372 982 l 311 982 q 303 1001 292 982 l 382 1143 q 413 1161 392 1161 m 565 0 l 129 0 q 110 19 110 0 l 110 874 q 129 893 110 893 l 565 893 q 585 874 585 893 l 585 824 q 565 804 585 804 l 225 804 q 211 792 211 804 l 211 511 q 225 499 211 499 l 522 499 q 542 479 542 499 l 542 429 q 522 410 542 410 l 225 410 q 211 397 211 410 l 211 101 q 225 89 211 89 l 565 89 q 585 69 585 89 l 585 19 q 565 0 585 0 z "},"Ê":{"ha":667,"x_min":110,"x_max":585,"o":"m 479 982 l 431 982 q 413 993 417 982 l 346 1115 l 281 993 q 261 982 275 982 l 214 982 q 206 999 196 982 l 294 1147 q 322 1161 304 1161 l 369 1161 q 399 1147 389 1161 l 486 999 q 479 982 496 982 m 565 0 l 129 0 q 110 19 110 0 l 110 874 q 129 893 110 893 l 565 893 q 585 874 585 893 l 585 824 q 565 804 585 804 l 225 804 q 211 792 211 804 l 211 511 q 225 499 211 499 l 522 499 q 542 479 542 499 l 542 429 q 522 410 542 410 l 225 410 q 211 397 211 410 l 211 101 q 225 89 211 89 l 565 89 q 585 69 585 89 l 585 19 q 565 0 585 0 z "},"Ë":{"ha":667,"x_min":110,"x_max":585,"o":"m 181 1001 l 181 1142 q 199 1161 181 1161 l 258 1161 q 276 1143 276 1161 l 276 1001 q 258 982 276 982 l 199 982 q 181 1001 181 982 m 418 1001 l 418 1142 q 436 1161 418 1161 l 496 1161 q 514 1143 514 1161 l 514 1001 q 496 982 514 982 l 436 982 q 418 1001 418 982 m 565 0 l 129 0 q 110 19 110 0 l 110 874 q 129 893 110 893 l 565 893 q 585 874 585 893 l 585 824 q 565 804 585 804 l 225 804 q 211 792 211 804 l 211 511 q 225 499 211 499 l 522 499 q 542 479 542 499 l 542 429 q 522 410 542 410 l 225 410 q 211 397 211 410 l 211 101 q 225 89 211 89 l 565 89 q 585 69 585 89 l 585 19 q 565 0 585 0 z "},"Ì":{"ha":335,"x_min":-6,"x_max":218,"o":"m 190 982 l 144 982 q 118 996 129 982 l -3 1142 q -6 1156 -8 1150 q 6 1161 -3 1161 l 89 1161 q 119 1143 110 1161 l 200 1001 q 190 982 211 982 m 218 874 l 218 19 q 199 0 218 0 l 136 0 q 117 19 117 0 l 117 874 q 136 893 117 893 l 199 893 q 218 874 218 893 z "},"Í":{"ha":335,"x_min":117,"x_max":342,"o":"m 244 1161 l 329 1161 q 342 1156 339 1161 q 338 1142 344 1150 l 217 996 q 189 982 206 982 l 143 982 q 135 1001 126 982 l 215 1143 q 244 1161 225 1161 m 218 874 l 218 19 q 199 0 218 0 l 136 0 q 117 19 117 0 l 117 874 q 136 893 117 893 l 199 893 q 218 874 218 893 z "},"Î":{"ha":333,"x_min":26,"x_max":306,"o":"m 299 982 l 251 982 q 232 993 238 982 l 167 1115 l 101 993 q 81 982 96 982 l 35 982 q 26 999 17 982 l 114 1147 q 143 1161 124 1161 l 190 1161 q 218 1147 208 1161 l 306 999 q 299 982 315 982 m 218 874 l 218 19 q 199 0 218 0 l 136 0 q 117 19 117 0 l 117 874 q 136 893 117 893 l 199 893 q 218 874 218 893 z "},"Ï":{"ha":333,"x_min":0,"x_max":333,"o":"m 0 1001 l 0 1142 q 18 1161 0 1161 l 78 1161 q 96 1143 96 1161 l 96 1001 q 78 982 96 982 l 18 982 q 0 1001 0 982 m 238 1001 l 238 1142 q 256 1161 238 1161 l 315 1161 q 333 1143 333 1161 l 333 1001 q 315 982 333 982 l 256 982 q 238 1001 238 982 m 218 874 l 218 19 q 199 0 218 0 l 136 0 q 117 19 117 0 l 117 874 q 136 893 117 893 l 199 893 q 218 874 218 893 z "},"Ð":{"ha":735,"x_min":33,"x_max":685,"o":"m 233 89 l 467 89 q 583 210 583 89 l 583 683 q 467 804 583 804 l 233 804 q 219 792 219 804 l 219 503 q 233 490 219 490 l 408 490 q 428 471 428 490 l 428 429 q 408 411 428 411 l 233 411 q 219 397 219 411 l 219 101 q 233 89 219 89 m 479 0 l 138 0 q 118 19 118 0 l 118 397 q 104 411 118 411 l 53 411 q 33 429 33 411 l 33 471 q 53 490 33 490 l 104 490 q 118 503 118 490 l 118 874 q 138 893 118 893 l 479 893 q 630 839 575 893 q 685 688 685 785 l 685 206 q 630 54 685 108 q 479 0 575 0 z "},"Ñ":{"ha":807,"x_min":110,"x_max":697,"o":"m 328 975 q 251 1082 251 975 l 251 1136 q 264 1150 251 1150 l 293 1150 q 306 1136 306 1150 l 306 1100 q 313 1046 306 1060 q 337 1032 319 1032 q 363 1043 354 1032 q 390 1092 372 1054 q 424 1143 407 1131 q 481 1156 442 1156 q 558 1047 558 1156 l 558 993 q 544 978 558 978 l 515 978 q 503 993 503 978 l 503 1031 q 496 1084 503 1071 q 471 1097 489 1097 q 446 1089 453 1097 q 431 1064 439 1081 q 385 988 403 1001 q 328 975 367 975 m 190 0 l 129 0 q 110 19 110 0 l 110 874 q 129 893 110 893 l 186 893 q 208 882 203 893 l 592 208 l 597 208 l 597 874 q 617 893 597 893 l 678 893 q 697 874 697 893 l 697 19 q 678 0 697 0 l 626 0 q 597 18 611 0 l 215 685 l 210 685 l 210 19 q 190 0 210 0 z "},"Ò":{"ha":768,"x_min":96,"x_max":672,"o":"m 411 982 l 364 982 q 338 996 349 982 l 217 1142 q 225 1161 203 1161 l 308 1161 q 339 1143 329 1161 l 419 1001 q 411 982 431 982 m 313 89 l 454 89 q 571 210 571 89 l 571 683 q 454 804 571 804 l 313 804 q 197 683 197 804 l 197 210 q 313 89 197 89 m 467 0 l 301 0 q 151 54 206 0 q 96 206 96 108 l 96 688 q 151 839 96 785 q 301 893 206 893 l 467 893 q 617 838 563 893 q 672 688 672 783 l 672 206 q 617 55 672 110 q 467 0 563 0 z "},"Ó":{"ha":768,"x_min":96,"x_max":672,"o":"m 450 1161 l 535 1161 q 546 1156 543 1161 q 543 1142 549 1150 l 422 996 q 394 982 411 982 l 349 982 q 340 1001 329 982 l 421 1143 q 450 1161 429 1161 m 313 89 l 454 89 q 571 210 571 89 l 571 683 q 454 804 571 804 l 313 804 q 197 683 197 804 l 197 210 q 313 89 197 89 m 467 0 l 301 0 q 151 54 206 0 q 96 206 96 108 l 96 688 q 151 839 96 785 q 301 893 206 893 l 467 893 q 617 838 563 893 q 672 688 672 783 l 672 206 q 617 55 672 110 q 467 0 563 0 z "},"Ô":{"ha":768,"x_min":96,"x_max":672,"o":"m 518 982 l 471 982 q 451 993 456 982 l 385 1115 l 319 993 q 300 982 314 982 l 253 982 q 246 999 236 982 l 333 1147 q 361 1161 343 1161 l 410 1161 q 438 1147 428 1161 l 525 999 q 518 982 535 982 m 313 89 l 454 89 q 571 210 571 89 l 571 683 q 454 804 571 804 l 313 804 q 197 683 197 804 l 197 210 q 313 89 197 89 m 467 0 l 301 0 q 151 54 206 0 q 96 206 96 108 l 96 688 q 151 839 96 785 q 301 893 206 893 l 467 893 q 617 838 563 893 q 672 688 672 783 l 672 206 q 617 55 672 110 q 467 0 563 0 z "},"Õ":{"ha":768,"x_min":96,"x_max":672,"o":"m 401 1046 q 366 989 385 1003 q 308 975 347 975 q 231 1082 231 975 l 231 1136 q 243 1150 231 1150 l 272 1150 q 285 1136 285 1150 l 285 1100 q 292 1046 285 1060 q 316 1032 299 1032 q 342 1043 333 1032 q 369 1092 351 1054 q 403 1143 386 1131 q 460 1156 421 1156 q 536 1047 536 1156 l 536 993 q 525 978 536 978 l 496 978 q 482 993 482 978 l 482 1031 q 475 1084 482 1071 q 450 1097 468 1097 q 425 1089 432 1097 q 410 1064 418 1081 q 401 1046 403 1047 m 313 89 l 454 89 q 571 210 571 89 l 571 683 q 454 804 571 804 l 313 804 q 197 683 197 804 l 197 210 q 313 89 197 89 m 467 0 l 301 0 q 151 54 206 0 q 96 206 96 108 l 96 688 q 151 839 96 785 q 301 893 206 893 l 467 893 q 617 838 563 893 q 672 688 672 783 l 672 206 q 617 55 672 110 q 467 0 563 0 z "},"Ö":{"ha":768,"x_min":96,"x_max":672,"o":"m 217 1001 l 217 1142 q 235 1161 217 1161 l 294 1161 q 313 1143 313 1161 l 313 1001 q 294 982 313 982 l 235 982 q 217 1001 217 982 m 454 1001 l 454 1142 q 472 1161 454 1161 l 532 1161 q 550 1143 550 1161 l 550 1001 q 532 982 550 982 l 472 982 q 454 1001 454 982 m 313 89 l 454 89 q 571 210 571 89 l 571 683 q 454 804 571 804 l 313 804 q 197 683 197 804 l 197 210 q 313 89 197 89 m 467 0 l 301 0 q 151 54 206 0 q 96 206 96 108 l 96 688 q 151 839 96 785 q 301 893 206 893 l 467 893 q 617 838 563 893 q 672 688 672 783 l 672 206 q 617 55 672 110 q 467 0 563 0 z "},"×":{"ha":696,"x_min":131,"x_max":563,"o":"m 410 446 l 563 293 q 563 264 579 278 l 529 231 q 499 231 515 217 l 347 383 l 194 231 q 165 231 181 217 l 132 264 q 131 293 115 278 l 283 446 l 132 599 q 132 628 117 614 l 165 661 q 194 661 179 678 l 347 510 l 499 661 q 529 661 515 678 l 563 628 q 563 599 578 614 l 410 446 z "},"Ø":{"ha":785,"x_min":69,"x_max":715,"o":"m 682 688 l 682 206 q 627 54 682 108 q 478 0 572 0 l 307 0 q 153 57 210 0 l 121 13 q 92 7 108 -4 l 72 22 q 69 51 57 33 l 117 117 q 101 206 101 158 l 101 688 q 156 839 101 785 q 307 893 211 893 l 478 893 q 631 835 576 893 l 663 879 q 692 885 676 896 l 713 871 q 715 842 728 861 l 668 775 q 682 688 682 733 m 203 683 l 203 238 l 569 749 q 465 804 542 804 l 319 804 q 203 683 203 804 m 582 210 l 582 656 l 215 144 q 319 89 240 89 l 465 89 q 582 210 582 89 z "},"Ù":{"ha":769,"x_min":103,"x_max":667,"o":"m 418 982 l 372 982 q 344 996 356 982 l 224 1142 q 221 1156 218 1150 q 232 1161 224 1161 l 317 1161 q 346 1143 336 1161 l 426 1001 q 418 982 438 982 m 585 893 l 647 893 q 667 875 667 893 l 667 206 q 613 54 667 108 q 463 0 558 0 l 308 0 q 158 54 213 0 q 103 206 103 108 l 103 874 q 122 893 103 893 l 185 893 q 204 874 204 893 l 204 210 q 319 89 204 89 l 450 89 q 567 210 567 89 l 567 874 q 585 893 567 893 z "},"Ú":{"ha":769,"x_min":103,"x_max":667,"o":"m 456 1161 l 539 1161 q 551 1156 549 1161 q 549 1142 554 1150 l 426 996 q 400 982 417 982 l 354 982 q 346 1001 335 982 l 425 1143 q 456 1161 435 1161 m 585 893 l 647 893 q 667 875 667 893 l 667 206 q 613 54 667 108 q 463 0 558 0 l 308 0 q 158 54 213 0 q 103 206 103 108 l 103 874 q 122 893 103 893 l 185 893 q 204 874 204 893 l 204 210 q 319 89 204 89 l 450 89 q 567 210 567 89 l 567 874 q 585 893 567 893 z "},"Û":{"ha":769,"x_min":103,"x_max":667,"o":"m 519 982 l 472 982 q 453 993 458 982 l 386 1115 l 321 993 q 301 982 315 982 l 256 982 q 246 999 236 982 l 335 1147 q 363 1161 344 1161 l 410 1161 q 439 1147 429 1161 l 526 999 q 519 982 536 982 m 585 893 l 647 893 q 667 875 667 893 l 667 206 q 613 54 667 108 q 463 0 558 0 l 308 0 q 158 54 213 0 q 103 206 103 108 l 103 874 q 122 893 103 893 l 185 893 q 204 874 204 893 l 204 210 q 319 89 204 89 l 450 89 q 567 210 567 89 l 567 874 q 585 893 567 893 z "},"Ü":{"ha":769,"x_min":103,"x_max":667,"o":"m 218 1001 l 218 1142 q 236 1161 218 1161 l 296 1161 q 314 1143 314 1161 l 314 1001 q 296 982 314 982 l 236 982 q 218 1001 218 982 m 456 1001 l 456 1142 q 474 1161 456 1161 l 533 1161 q 551 1143 551 1161 l 551 1001 q 533 982 551 982 l 474 982 q 456 1001 456 982 m 585 893 l 647 893 q 667 875 667 893 l 667 206 q 613 54 667 108 q 463 0 558 0 l 308 0 q 158 54 213 0 q 103 206 103 108 l 103 874 q 122 893 103 893 l 185 893 q 204 874 204 893 l 204 210 q 319 89 204 89 l 450 89 q 567 210 567 89 l 567 874 q 585 893 567 893 z "},"Ý":{"ha":694,"x_min":32,"x_max":663,"o":"m 418 1161 l 503 1161 q 515 1156 511 1161 q 511 1142 518 1150 l 390 996 q 363 982 379 982 l 317 982 q 308 1001 297 982 l 389 1143 q 418 1161 399 1161 m 378 0 l 315 0 q 296 19 296 0 l 296 335 l 32 872 q 32 888 28 882 q 44 893 36 893 l 122 893 q 146 874 138 893 l 344 453 l 351 453 l 549 874 q 571 893 554 893 l 650 893 q 663 872 674 893 l 397 335 l 397 19 q 378 0 397 0 z "},"Þ":{"ha":697,"x_min":146,"x_max":613,"o":"m 260 274 l 394 274 q 511 393 511 274 l 511 499 q 394 619 511 619 l 260 619 q 246 607 246 619 l 246 286 q 260 274 246 274 m 228 0 l 164 0 q 146 19 146 0 l 146 874 q 164 893 146 893 l 228 893 q 246 874 246 893 l 246 721 q 261 708 246 708 l 408 708 q 558 654 503 708 q 613 503 613 600 l 613 389 q 558 238 613 292 q 408 183 503 183 l 261 183 q 246 171 246 183 l 246 19 q 228 0 246 0 z "},"ß":{"ha":751,"x_min":100,"x_max":663,"o":"m 365 492 l 424 492 q 515 523 482 492 q 549 613 549 554 l 549 686 q 431 806 549 806 l 318 806 q 201 686 201 806 l 201 19 q 182 0 201 0 l 119 0 q 100 19 100 0 l 100 688 q 155 839 100 785 q 306 893 210 893 l 443 893 q 594 838 539 893 q 649 686 649 783 l 649 608 q 544 449 649 493 q 631 390 599 436 q 663 283 663 344 l 663 200 q 608 52 663 104 q 457 0 553 0 l 340 0 q 321 18 321 0 l 321 68 q 340 86 321 86 l 444 86 q 563 207 563 86 l 563 283 q 526 373 563 342 q 429 404 489 404 l 365 404 q 346 422 346 404 l 346 472 q 365 492 346 492 z "},"à":{"ha":704,"x_min":82,"x_max":608,"o":"m 418 797 l 371 797 q 344 811 356 797 l 224 957 q 220 971 217 965 q 232 976 224 976 l 317 976 q 346 958 336 976 l 426 817 q 418 797 438 797 m 360 0 l 288 0 q 137 54 192 0 q 82 206 82 108 l 82 503 q 137 654 82 600 q 288 708 192 708 l 589 708 q 608 689 608 708 l 608 19 q 589 0 608 0 l 526 0 q 507 19 507 0 l 507 74 l 501 74 q 360 0 467 0 m 507 217 l 507 607 q 493 619 507 619 l 299 619 q 183 499 183 619 l 183 210 q 299 89 183 89 l 378 89 q 474 122 440 89 q 507 217 507 156 z "},"á":{"ha":704,"x_min":82,"x_max":608,"o":"m 439 976 l 522 976 q 535 971 532 976 q 532 957 538 965 l 411 811 q 382 797 397 797 l 338 797 q 329 817 318 797 l 410 958 q 439 976 418 976 m 360 0 l 288 0 q 137 54 192 0 q 82 206 82 108 l 82 503 q 137 654 82 600 q 288 708 192 708 l 589 708 q 608 689 608 708 l 608 19 q 589 0 608 0 l 526 0 q 507 19 507 0 l 507 74 l 501 74 q 360 0 467 0 m 507 217 l 507 607 q 493 619 507 619 l 299 619 q 183 499 183 619 l 183 210 q 299 89 183 89 l 378 89 q 474 122 440 89 q 507 217 507 156 z "},"â":{"ha":704,"x_min":82,"x_max":608,"o":"m 500 797 l 453 797 q 433 808 439 797 l 368 931 l 301 808 q 282 797 297 797 l 236 797 q 228 814 218 797 l 315 963 q 344 976 325 976 l 392 976 q 419 963 410 976 l 507 814 q 500 797 517 797 m 360 0 l 288 0 q 137 54 192 0 q 82 206 82 108 l 82 503 q 137 654 82 600 q 288 708 192 708 l 589 708 q 608 689 608 708 l 608 19 q 589 0 608 0 l 526 0 q 507 19 507 0 l 507 74 l 501 74 q 360 0 467 0 m 507 217 l 507 607 q 493 619 507 619 l 299 619 q 183 499 183 619 l 183 210 q 299 89 183 89 l 378 89 q 474 122 440 89 q 507 217 507 156 z "},"ã":{"ha":706,"x_min":82,"x_max":608,"o":"m 224 907 l 224 960 q 238 975 224 975 l 267 975 q 279 960 279 975 l 279 924 q 286 871 279 885 q 310 857 293 857 q 337 868 328 857 q 363 917 346 879 q 397 967 381 954 q 453 979 414 979 q 531 872 531 979 l 531 817 q 518 801 531 801 l 489 801 q 476 817 476 801 l 476 854 q 469 908 476 894 q 448 922 463 922 q 428 921 433 922 q 417 911 424 919 q 408 897 411 903 q 392 858 406 890 q 360 813 378 826 q 303 800 342 800 q 224 907 224 800 m 360 0 l 288 0 q 137 54 192 0 q 82 206 82 108 l 82 503 q 137 654 82 600 q 288 708 192 708 l 589 708 q 608 689 608 708 l 608 19 q 589 0 608 0 l 526 0 q 507 19 507 0 l 507 74 l 501 74 q 360 0 467 0 m 507 217 l 507 607 q 493 619 507 619 l 299 619 q 183 499 183 619 l 183 210 q 299 89 183 89 l 378 89 q 474 122 440 89 q 507 217 507 156 z "},"ä":{"ha":704,"x_min":82,"x_max":608,"o":"m 208 817 l 208 957 q 225 976 208 976 l 285 976 q 303 958 303 976 l 303 817 q 285 797 303 797 l 225 797 q 208 817 208 797 m 446 817 l 446 957 q 463 976 446 976 l 522 976 q 540 958 540 976 l 540 817 q 522 797 540 797 l 463 797 q 446 817 446 797 m 360 0 l 288 0 q 137 54 192 0 q 82 206 82 108 l 82 503 q 137 654 82 600 q 288 708 192 708 l 589 708 q 608 689 608 708 l 608 19 q 589 0 608 0 l 526 0 q 507 19 507 0 l 507 74 l 501 74 q 360 0 467 0 m 507 217 l 507 607 q 493 619 507 619 l 299 619 q 183 499 183 619 l 183 210 q 299 89 183 89 l 378 89 q 474 122 440 89 q 507 217 507 156 z "},"å":{"ha":704,"x_min":82,"x_max":608,"o":"m 507 217 l 507 607 q 493 619 507 619 l 299 619 q 183 499 183 619 l 183 210 q 299 89 183 89 l 378 89 q 474 122 440 89 q 507 217 507 156 m 360 0 l 288 0 q 137 54 192 0 q 82 206 82 108 l 82 503 q 137 654 82 600 q 288 708 192 708 l 589 708 q 608 689 608 708 l 608 19 q 589 0 608 0 l 526 0 q 507 19 507 0 l 507 74 l 501 74 q 360 0 467 0 m 293 915 l 293 865 q 306 824 293 835 q 349 813 318 813 l 369 813 q 413 824 400 813 q 425 865 425 835 l 425 915 q 413 957 425 946 q 369 968 400 968 l 349 968 q 306 957 318 968 q 293 915 293 946 m 249 854 l 249 929 q 336 1010 249 1010 l 382 1010 q 472 929 472 1010 l 472 854 q 382 772 472 772 l 336 772 q 249 854 249 772 z "},"æ":{"ha":1089,"x_min":79,"x_max":1008,"o":"m 600 269 l 600 210 q 717 89 600 89 l 989 89 q 1008 69 1008 89 l 1008 18 q 989 0 1008 0 l 704 0 q 535 89 582 0 q 351 0 490 0 l 285 0 q 135 53 190 0 q 79 201 79 107 l 79 229 q 133 378 79 325 q 285 431 188 431 l 488 431 q 499 442 499 431 l 499 500 q 383 619 499 619 l 165 619 q 146 639 146 619 l 146 689 q 165 708 146 708 l 381 708 q 551 621 507 708 q 719 708 594 708 l 804 708 q 954 654 900 708 q 1008 503 1008 600 l 1008 303 q 989 282 1008 282 l 614 282 q 600 269 600 282 m 918 369 l 918 499 q 801 619 918 619 l 724 619 q 600 503 600 619 l 600 369 q 614 356 600 356 l 904 356 q 918 369 918 356 m 500 211 l 500 340 q 486 353 500 353 l 297 353 q 175 232 175 353 l 175 207 q 297 85 175 85 l 371 85 q 500 211 500 85 z "},"ç":{"ha":554,"x_min":82,"x_max":508,"o":"m 489 619 l 299 619 q 183 499 183 619 l 183 210 q 299 89 183 89 l 489 89 q 508 69 508 89 l 508 18 q 489 0 508 0 l 397 0 l 340 -60 l 340 -65 q 447 -154 447 -65 l 447 -174 q 328 -261 447 -261 l 286 -261 q 268 -243 268 -261 l 268 -224 q 272 -209 268 -212 q 286 -206 275 -206 l 318 -206 q 374 -197 358 -206 q 389 -165 389 -187 l 389 -162 q 374 -128 389 -137 q 318 -119 358 -119 l 296 -119 q 263 -99 271 -119 q 272 -58 256 -78 l 324 0 l 288 0 q 137 54 192 0 q 82 206 82 108 l 82 503 q 137 654 82 600 q 288 708 192 708 l 489 708 q 508 689 508 708 l 508 638 q 489 619 508 619 z "},"è":{"ha":683,"x_min":82,"x_max":608,"o":"m 382 797 l 336 797 q 310 811 319 797 l 188 957 q 185 971 182 965 q 197 976 188 976 l 281 976 q 311 958 301 976 l 390 817 q 382 797 401 797 m 582 0 l 288 0 q 137 54 192 0 q 82 206 82 108 l 82 503 q 137 654 82 600 q 288 708 192 708 l 404 708 q 554 654 500 708 q 608 503 608 600 l 608 326 q 589 306 608 306 l 196 306 q 182 293 182 306 l 182 208 q 299 88 182 88 l 582 88 q 601 68 601 88 l 601 18 q 582 0 601 0 m 196 379 l 496 379 q 510 393 510 379 l 510 500 q 393 619 510 619 l 299 619 q 182 500 182 619 l 182 393 q 196 379 182 379 z "},"é":{"ha":683,"x_min":82,"x_max":608,"o":"m 408 976 l 492 976 q 504 971 501 976 q 501 957 507 965 l 381 811 q 353 797 367 797 l 307 797 q 299 817 288 797 l 379 958 q 408 976 388 976 m 582 0 l 288 0 q 137 54 192 0 q 82 206 82 108 l 82 503 q 137 654 82 600 q 288 708 192 708 l 404 708 q 554 654 500 708 q 608 503 608 600 l 608 326 q 589 306 608 306 l 196 306 q 182 293 182 306 l 182 208 q 299 88 182 88 l 582 88 q 601 68 601 88 l 601 18 q 582 0 601 0 m 196 379 l 496 379 q 510 393 510 379 l 510 500 q 393 619 510 619 l 299 619 q 182 500 182 619 l 182 393 q 196 379 182 379 z "},"ê":{"ha":683,"x_min":82,"x_max":608,"o":"m 481 797 l 433 797 q 414 808 419 797 l 349 931 l 283 808 q 264 797 278 797 l 217 797 q 208 814 199 797 l 296 963 q 325 976 306 976 l 372 976 q 400 963 390 976 l 489 814 q 481 797 499 797 m 582 0 l 288 0 q 137 54 192 0 q 82 206 82 108 l 82 503 q 137 654 82 600 q 288 708 192 708 l 404 708 q 554 654 500 708 q 608 503 608 600 l 608 326 q 589 306 608 306 l 196 306 q 182 293 182 306 l 182 208 q 299 88 182 88 l 582 88 q 601 68 601 88 l 601 18 q 582 0 601 0 m 196 379 l 496 379 q 510 393 510 379 l 510 500 q 393 619 510 619 l 299 619 q 182 500 182 619 l 182 393 q 196 379 182 379 z "},"ë":{"ha":683,"x_min":82,"x_max":608,"o":"m 182 817 l 182 957 q 200 976 182 976 l 260 976 q 278 958 278 976 l 278 817 q 260 797 278 797 l 200 797 q 182 817 182 797 m 419 817 l 419 957 q 438 976 419 976 l 497 976 q 515 958 515 976 l 515 817 q 497 797 515 797 l 438 797 q 419 817 419 797 m 582 0 l 288 0 q 137 54 192 0 q 82 206 82 108 l 82 503 q 137 654 82 600 q 288 708 192 708 l 404 708 q 554 654 500 708 q 608 503 608 600 l 608 326 q 589 306 608 306 l 196 306 q 182 293 182 306 l 182 208 q 299 88 182 88 l 582 88 q 601 68 601 88 l 601 18 q 582 0 601 0 m 196 379 l 496 379 q 510 393 510 379 l 510 500 q 393 619 510 619 l 299 619 q 182 500 182 619 l 182 393 q 196 379 182 379 z "},"ì":{"ha":307,"x_min":-21,"x_max":204,"o":"m 175 797 l 129 797 q 103 811 114 797 l -18 957 q -21 971 -24 965 q -10 976 -18 976 l 74 976 q 104 958 94 976 l 185 817 q 175 797 196 797 m 103 19 l 103 689 q 121 708 103 708 l 185 708 q 204 689 204 708 l 204 19 q 185 0 204 0 l 122 0 q 103 19 103 0 z "},"í":{"ha":306,"x_min":103,"x_max":326,"o":"m 232 976 l 314 976 q 326 971 324 976 q 324 957 329 965 l 203 811 q 175 797 192 797 l 129 797 q 121 817 110 797 l 201 958 q 232 976 211 976 m 103 19 l 103 689 q 121 708 103 708 l 185 708 q 204 689 204 708 l 204 19 q 185 0 204 0 l 122 0 q 103 19 103 0 z "},"î":{"ha":306,"x_min":13,"x_max":293,"o":"m 286 797 l 238 797 q 219 808 224 797 l 153 931 l 88 808 q 68 797 82 797 l 21 797 q 13 814 3 797 l 101 963 q 129 976 111 976 l 176 976 q 206 963 196 976 l 293 814 q 286 797 303 797 m 103 19 l 103 689 q 121 708 103 708 l 185 708 q 204 689 204 708 l 204 19 q 185 0 204 0 l 122 0 q 103 19 103 0 z "},"ï":{"ha":306,"x_min":-14,"x_max":319,"o":"m -14 817 l -14 957 q 4 976 -14 976 l 64 976 q 82 958 82 976 l 82 817 q 64 797 82 797 l 4 797 q -14 817 -14 797 m 224 817 l 224 957 q 242 976 224 976 l 301 976 q 319 958 319 976 l 319 817 q 301 797 319 797 l 242 797 q 224 817 224 797 m 103 19 l 103 689 q 121 708 103 708 l 185 708 q 204 689 204 708 l 204 19 q 185 0 204 0 l 122 0 q 103 19 103 0 z "},"ð":{"ha":686,"x_min":82,"x_max":603,"o":"m 603 467 l 603 206 q 549 54 603 108 q 399 0 494 0 l 288 0 q 137 54 192 0 q 82 206 82 108 l 82 364 q 137 515 82 461 q 288 569 192 569 l 360 569 q 452 549 413 569 q 507 496 492 529 l 513 496 q 472 593 508 549 l 335 747 l 204 639 q 178 642 190 629 l 156 669 q 158 696 144 682 l 285 803 l 183 917 q 186 951 167 936 l 217 974 q 249 969 233 988 l 350 858 l 483 971 q 511 969 501 982 l 533 942 q 532 913 544 925 l 400 803 l 546 640 q 603 467 603 578 m 501 210 l 501 353 q 378 481 501 481 l 304 481 q 215 449 246 481 q 183 360 183 418 l 183 210 q 299 89 183 89 l 385 89 q 501 210 501 89 z "},"ñ":{"ha":711,"x_min":96,"x_max":622,"o":"m 200 907 l 200 960 q 213 975 200 975 l 242 975 q 254 960 254 975 l 254 924 q 261 871 254 885 q 285 857 268 857 q 312 868 303 857 q 338 917 321 879 q 372 967 356 954 q 428 979 389 979 q 506 872 506 979 l 506 817 q 494 801 506 801 l 465 801 q 451 817 451 801 l 451 854 q 444 908 451 894 q 423 922 438 922 q 403 921 408 922 q 392 911 399 919 q 383 897 386 903 q 367 858 381 890 q 335 813 354 826 q 278 800 317 800 q 200 907 200 800 m 178 0 l 115 0 q 96 19 96 0 l 96 689 q 115 708 96 708 l 178 708 q 197 689 197 708 l 197 635 l 203 635 q 344 708 238 708 l 422 708 q 569 654 517 708 q 622 503 622 600 l 622 19 q 603 0 622 0 l 540 0 q 521 19 521 0 l 521 499 q 404 619 521 619 l 326 619 q 231 586 264 619 q 197 492 197 553 l 197 19 q 178 0 197 0 z "},"ò":{"ha":694,"x_min":82,"x_max":613,"o":"m 375 797 l 329 797 q 301 811 315 797 l 181 957 q 178 971 175 965 q 190 976 181 976 l 274 976 q 304 958 294 976 l 383 817 q 375 797 394 797 m 407 0 l 288 0 q 137 54 192 0 q 82 206 82 108 l 82 503 q 137 654 82 600 q 288 708 192 708 l 407 708 q 558 654 503 708 q 613 503 613 600 l 613 206 q 558 54 613 108 q 407 0 503 0 m 299 89 l 396 89 q 513 208 513 89 l 513 500 q 396 619 513 619 l 299 619 q 182 500 182 619 l 182 208 q 299 89 182 89 z "},"ó":{"ha":694,"x_min":82,"x_max":613,"o":"m 424 976 l 508 976 q 519 971 517 976 q 517 957 522 965 l 396 811 q 368 797 382 797 l 322 797 q 314 817 303 797 l 394 958 q 424 976 404 976 m 407 0 l 288 0 q 137 54 192 0 q 82 206 82 108 l 82 503 q 137 654 82 600 q 288 708 192 708 l 407 708 q 558 654 503 708 q 613 503 613 600 l 613 206 q 558 54 613 108 q 407 0 503 0 m 299 89 l 396 89 q 513 208 513 89 l 513 500 q 396 619 513 619 l 299 619 q 182 500 182 619 l 182 208 q 299 89 182 89 z "},"ô":{"ha":694,"x_min":82,"x_max":613,"o":"m 479 797 l 432 797 q 413 808 418 797 l 347 931 l 281 808 q 261 797 276 797 l 215 797 q 207 814 197 797 l 294 963 q 324 976 304 976 l 371 976 q 399 963 389 976 l 486 814 q 479 797 496 797 m 407 0 l 288 0 q 137 54 192 0 q 82 206 82 108 l 82 503 q 137 654 82 600 q 288 708 192 708 l 407 708 q 558 654 503 708 q 613 503 613 600 l 613 206 q 558 54 613 108 q 407 0 503 0 m 299 89 l 396 89 q 513 208 513 89 l 513 500 q 396 619 513 619 l 299 619 q 182 500 182 619 l 182 208 q 299 89 182 89 z "},"õ":{"ha":694,"x_min":82,"x_max":613,"o":"m 189 907 l 189 960 q 201 975 189 975 l 231 975 q 243 960 243 975 l 243 924 q 250 871 243 885 q 274 857 257 857 q 301 868 292 857 q 327 917 310 879 q 361 967 344 954 q 417 979 378 979 q 494 872 494 979 l 494 817 q 483 801 494 801 l 454 801 q 440 817 440 801 l 440 854 q 433 908 440 894 q 412 922 426 922 q 392 921 397 922 q 381 911 388 919 q 372 897 375 903 q 356 858 369 890 q 324 813 343 826 q 267 800 306 800 q 189 907 189 800 m 407 0 l 288 0 q 137 54 192 0 q 82 206 82 108 l 82 503 q 137 654 82 600 q 288 708 192 708 l 407 708 q 558 654 503 708 q 613 503 613 600 l 613 206 q 558 54 613 108 q 407 0 503 0 m 299 89 l 396 89 q 513 208 513 89 l 513 500 q 396 619 513 619 l 299 619 q 182 500 182 619 l 182 208 q 299 89 182 89 z "},"ö":{"ha":694,"x_min":82,"x_max":613,"o":"m 181 817 l 181 957 q 199 976 181 976 l 258 976 q 276 958 276 976 l 276 817 q 258 797 276 797 l 199 797 q 181 817 181 797 m 418 817 l 418 957 q 436 976 418 976 l 496 976 q 514 958 514 976 l 514 817 q 496 797 514 797 l 436 797 q 418 817 418 797 m 407 0 l 288 0 q 137 54 192 0 q 82 206 82 108 l 82 503 q 137 654 82 600 q 288 708 192 708 l 407 708 q 558 654 503 708 q 613 503 613 600 l 613 206 q 558 54 613 108 q 407 0 503 0 m 299 89 l 396 89 q 513 208 513 89 l 513 500 q 396 619 513 619 l 299 619 q 182 500 182 619 l 182 208 q 299 89 182 89 z "},"÷":{"ha":689,"x_min":101,"x_max":588,"o":"m 307 210 l 307 289 q 326 308 307 308 l 364 308 q 383 289 383 308 l 383 210 q 364 190 383 190 l 326 190 q 307 210 307 190 m 568 408 l 122 408 q 101 428 101 408 l 101 464 q 122 482 101 482 l 568 482 q 588 464 588 482 l 588 428 q 568 408 588 408 m 307 601 l 307 682 q 326 701 307 701 l 364 701 q 383 682 383 701 l 383 601 q 364 582 383 582 l 326 582 q 307 601 307 582 z "},"ø":{"ha":724,"x_min":39,"x_max":685,"o":"m 628 503 l 628 206 q 573 55 628 110 q 422 0 518 0 l 301 0 q 131 78 185 0 l 83 31 q 56 31 68 17 l 39 47 q 39 75 25 61 l 104 140 q 96 206 96 169 l 96 503 q 151 653 96 599 q 301 708 206 708 l 422 708 q 593 629 539 708 l 640 676 q 668 678 654 692 l 685 661 q 685 633 699 647 l 619 568 q 628 503 628 539 m 197 499 l 197 233 l 517 553 q 410 619 496 619 l 314 619 q 197 499 197 619 m 525 210 l 525 474 l 206 153 q 314 89 229 89 l 410 89 q 525 210 525 89 z "},"ù":{"ha":711,"x_min":89,"x_max":615,"o":"m 381 797 l 335 797 q 307 811 318 797 l 186 957 q 183 971 181 965 q 196 976 186 976 l 279 976 q 308 958 300 976 l 389 817 q 381 797 400 797 m 367 0 l 289 0 q 142 54 194 0 q 89 206 89 108 l 89 689 q 108 708 89 708 l 171 708 q 190 689 190 708 l 190 210 q 306 89 190 89 l 385 89 q 481 122 447 89 q 514 217 514 156 l 514 689 q 533 708 514 708 l 596 708 q 615 689 615 708 l 615 19 q 596 0 615 0 l 533 0 q 514 19 514 0 l 514 74 l 508 74 q 367 0 474 0 z "},"ú":{"ha":711,"x_min":89,"x_max":615,"o":"m 425 976 l 510 976 q 521 971 518 976 q 518 957 524 965 l 397 811 q 369 797 383 797 l 324 797 q 315 817 304 797 l 396 958 q 425 976 404 976 m 367 0 l 289 0 q 142 54 194 0 q 89 206 89 108 l 89 689 q 108 708 89 708 l 171 708 q 190 689 190 708 l 190 210 q 306 89 190 89 l 385 89 q 481 122 447 89 q 514 217 514 156 l 514 689 q 533 708 514 708 l 596 708 q 615 689 615 708 l 615 19 q 596 0 615 0 l 533 0 q 514 19 514 0 l 514 74 l 508 74 q 367 0 474 0 z "},"û":{"ha":711,"x_min":89,"x_max":615,"o":"m 485 797 l 438 797 q 418 808 422 797 l 351 931 l 286 808 q 267 797 281 797 l 219 797 q 213 814 203 797 l 300 963 q 329 976 310 976 l 375 976 q 404 963 394 976 l 492 814 q 485 797 501 797 m 367 0 l 289 0 q 142 54 194 0 q 89 206 89 108 l 89 689 q 108 708 89 708 l 171 708 q 190 689 190 708 l 190 210 q 306 89 190 89 l 385 89 q 481 122 447 89 q 514 217 514 156 l 514 689 q 533 708 514 708 l 596 708 q 615 689 615 708 l 615 19 q 596 0 615 0 l 533 0 q 514 19 514 0 l 514 74 l 508 74 q 367 0 474 0 z "},"ü":{"ha":711,"x_min":89,"x_max":615,"o":"m 186 817 l 186 957 q 203 976 186 976 l 263 976 q 281 958 281 976 l 281 817 q 263 797 281 797 l 203 797 q 186 817 186 797 m 424 817 l 424 957 q 440 976 424 976 l 500 976 q 518 958 518 976 l 518 817 q 500 797 518 797 l 440 797 q 424 817 424 797 m 367 0 l 289 0 q 142 54 194 0 q 89 206 89 108 l 89 689 q 108 708 89 708 l 171 708 q 190 689 190 708 l 190 210 q 306 89 190 89 l 385 89 q 481 122 447 89 q 514 217 514 156 l 514 689 q 533 708 514 708 l 596 708 q 615 689 615 708 l 615 19 q 596 0 615 0 l 533 0 q 514 19 514 0 l 514 74 l 508 74 q 367 0 474 0 z "},"ý":{"ha":643,"x_min":36,"x_max":607,"o":"m 399 976 l 482 976 q 494 971 492 976 q 492 957 497 965 l 369 811 q 342 797 358 797 l 297 797 q 288 817 279 797 l 368 958 q 399 976 378 976 m 153 -218 l 92 -218 q 72 -199 72 -218 l 72 -147 q 92 -128 72 -128 l 126 -128 q 251 -78 215 -128 q 304 38 281 -37 l 264 38 q 240 57 247 38 l 36 689 q 50 708 31 708 l 117 708 q 140 689 135 708 l 319 117 l 325 117 l 504 689 q 526 708 508 708 l 590 708 q 607 688 614 708 l 400 28 q 312 -154 365 -90 q 153 -218 258 -218 z "},"þ":{"ha":714,"x_min":100,"x_max":632,"o":"m 331 89 l 414 89 q 531 210 531 89 l 531 499 q 414 619 531 619 l 331 619 q 235 586 268 619 q 201 492 201 553 l 201 217 q 235 122 201 156 q 331 89 268 89 m 201 74 l 201 -165 q 182 -185 201 -185 l 119 -185 q 100 -165 100 -185 l 100 957 q 119 976 100 976 l 182 976 q 201 957 201 976 l 201 635 l 207 635 q 349 708 242 708 l 426 708 q 577 653 522 708 q 632 503 632 599 l 632 206 q 577 55 632 110 q 426 0 522 0 l 349 0 q 207 74 242 0 l 201 74 z "},"ÿ":{"ha":643,"x_min":36,"x_max":607,"o":"m 156 817 l 156 957 q 174 976 156 976 l 233 976 q 251 958 251 976 l 251 817 q 233 797 251 797 l 174 797 q 156 817 156 797 m 393 817 l 393 957 q 411 976 393 976 l 471 976 q 489 958 489 976 l 489 817 q 471 797 489 797 l 411 797 q 393 817 393 797 m 153 -218 l 92 -218 q 72 -199 72 -218 l 72 -147 q 92 -128 72 -128 l 126 -128 q 251 -78 215 -128 q 304 38 281 -37 l 264 38 q 240 57 247 38 l 36 689 q 50 708 31 708 l 117 708 q 140 689 135 708 l 319 117 l 325 117 l 504 689 q 526 708 508 708 l 590 708 q 607 688 614 708 l 400 28 q 312 -154 365 -90 q 153 -218 258 -218 z "},"Ā":{"ha":749,"x_min":39,"x_max":711,"o":"m 514 1036 l 235 1036 q 215 1056 215 1036 l 215 1092 q 235 1111 215 1111 l 514 1111 q 533 1092 533 1111 l 533 1056 q 514 1036 533 1036 m 121 0 l 51 0 q 39 19 33 0 l 299 874 q 325 893 304 893 l 425 893 q 451 874 446 893 l 711 19 q 699 0 717 0 l 628 0 q 608 19 613 0 l 543 222 l 207 222 l 142 19 q 121 0 136 0 m 372 789 l 229 308 l 521 308 l 378 789 l 372 789 z "},"ā":{"ha":704,"x_min":82,"x_max":608,"o":"m 525 851 l 246 851 q 226 871 226 851 l 226 904 q 246 924 226 924 l 525 924 q 544 904 544 924 l 544 871 q 525 851 544 851 m 360 0 l 288 0 q 137 54 192 0 q 82 206 82 108 l 82 503 q 137 654 82 600 q 288 708 192 708 l 589 708 q 608 689 608 708 l 608 19 q 589 0 608 0 l 526 0 q 507 19 507 0 l 507 74 l 501 74 q 360 0 467 0 m 507 217 l 507 607 q 493 619 507 619 l 299 619 q 183 499 183 619 l 183 210 q 299 89 183 89 l 378 89 q 474 122 440 89 q 507 217 507 156 z "},"Ă":{"ha":749,"x_min":39,"x_max":711,"o":"m 229 1146 q 244 1161 229 1161 l 282 1161 q 297 1146 297 1161 l 297 1132 q 314 1059 297 1081 q 371 1038 331 1038 l 378 1038 q 437 1059 419 1038 q 454 1132 454 1081 l 454 1146 q 468 1160 454 1160 l 504 1160 q 519 1146 519 1160 l 519 1129 q 386 982 519 982 l 361 982 q 229 1129 229 982 l 229 1146 m 121 0 l 51 0 q 39 19 33 0 l 299 874 q 325 893 304 893 l 425 893 q 451 874 446 893 l 711 19 q 699 0 717 0 l 628 0 q 608 19 613 0 l 543 222 l 207 222 l 142 19 q 121 0 136 0 m 372 789 l 229 308 l 521 308 l 378 789 l 372 789 z "},"ă":{"ha":704,"x_min":82,"x_max":608,"o":"m 507 217 l 507 607 q 493 619 507 619 l 299 619 q 183 499 183 619 l 183 210 q 299 89 183 89 l 378 89 q 474 122 440 89 q 507 217 507 156 m 360 0 l 288 0 q 137 54 192 0 q 82 206 82 108 l 82 503 q 137 654 82 600 q 288 708 192 708 l 589 708 q 608 689 608 708 l 608 19 q 589 0 608 0 l 526 0 q 507 19 507 0 l 507 74 l 501 74 q 360 0 467 0 m 232 944 l 232 961 q 247 976 232 976 l 285 976 q 300 961 300 976 l 300 947 q 317 874 300 896 q 374 853 333 853 l 381 853 q 439 874 422 853 q 456 947 456 896 l 456 961 q 471 975 456 975 l 507 975 q 522 961 522 975 l 522 944 q 389 797 522 797 l 364 797 q 232 944 232 797 z "},"Ą":{"ha":749,"x_min":39,"x_max":711,"o":"m 699 0 l 646 0 l 579 -93 l 633 -93 q 663 -97 656 -93 q 669 -112 669 -101 q 635 -142 669 -131 q 563 -154 600 -154 q 515 -135 525 -154 q 521 -93 504 -115 l 606 26 l 543 222 l 207 222 l 142 19 q 121 0 136 0 l 51 0 q 39 19 33 0 l 299 874 q 325 893 304 893 l 425 893 q 451 874 446 893 l 711 19 q 699 0 717 0 m 229 308 l 521 308 l 378 789 l 372 789 l 229 308 z "},"ą":{"ha":704,"x_min":82,"x_max":608,"o":"m 288 708 l 589 708 q 608 689 608 708 l 608 19 q 589 0 608 0 l 546 0 q 482 -96 476 -96 q 538 -93 518 -96 q 564 -97 557 -93 q 569 -111 571 -101 q 534 -144 568 -131 q 465 -158 500 -158 q 422 -131 429 -158 q 433 -83 415 -104 l 507 24 l 507 74 l 501 74 q 360 0 467 0 l 288 0 q 137 54 192 0 q 82 206 82 108 l 82 503 q 137 654 82 600 q 288 708 192 708 m 299 89 l 378 89 q 474 122 440 89 q 507 217 507 156 l 507 607 q 493 619 507 619 l 299 619 q 183 499 183 619 l 183 210 q 299 89 183 89 z "},"Ć":{"ha":751,"x_min":96,"x_max":674,"o":"m 468 0 l 301 0 q 151 54 206 0 q 96 206 96 108 l 96 688 q 151 839 96 785 q 301 893 206 893 l 468 893 q 619 839 564 893 q 674 688 674 785 l 674 619 q 654 600 674 600 l 592 600 q 572 619 572 600 l 572 683 q 456 804 572 804 l 313 804 q 197 683 197 804 l 197 210 q 313 89 197 89 l 456 89 q 572 210 572 89 l 572 274 q 592 293 572 293 l 654 293 q 674 274 674 293 l 674 206 q 619 54 674 108 q 468 0 564 0 m 449 1161 l 532 1161 q 544 1156 542 1161 q 542 1142 547 1150 l 421 996 q 393 982 410 982 l 347 982 q 339 1001 328 982 l 418 1143 q 449 1161 428 1161 z "},"ć":{"ha":554,"x_min":82,"x_max":508,"o":"m 386 976 l 469 976 q 482 971 479 976 q 479 957 485 965 l 358 811 q 331 797 344 797 l 285 797 q 276 817 265 797 l 356 958 q 386 976 368 976 m 508 69 l 508 18 q 489 0 508 0 l 288 0 q 137 54 192 0 q 82 206 82 108 l 82 503 q 137 654 82 600 q 288 708 192 708 l 489 708 q 508 689 508 708 l 508 638 q 489 619 508 619 l 299 619 q 183 499 183 619 l 183 210 q 299 89 183 89 l 489 89 q 508 69 508 89 z "},"Ċ":{"ha":751,"x_min":96,"x_max":674,"o":"m 468 0 l 301 0 q 151 54 206 0 q 96 206 96 108 l 96 688 q 151 839 96 785 q 301 893 206 893 l 468 893 q 619 839 564 893 q 674 688 674 785 l 674 619 q 654 600 674 600 l 592 600 q 572 619 572 600 l 572 683 q 456 804 572 804 l 313 804 q 197 683 197 804 l 197 210 q 313 89 197 89 l 456 89 q 572 210 572 89 l 572 274 q 592 293 572 293 l 654 293 q 674 274 674 293 l 674 206 q 619 54 674 108 q 468 0 564 0 m 335 1007 l 335 1142 q 353 1161 335 1161 l 417 1161 q 435 1142 435 1161 l 435 1007 q 417 988 435 988 l 353 988 q 335 1007 335 988 z "},"ċ":{"ha":554,"x_min":82,"x_max":508,"o":"m 274 819 l 274 954 q 292 974 274 974 l 356 974 q 374 956 374 974 l 374 819 q 356 800 374 800 l 292 800 q 274 819 274 800 m 508 69 l 508 18 q 489 0 508 0 l 288 0 q 137 54 192 0 q 82 206 82 108 l 82 503 q 137 654 82 600 q 288 708 192 708 l 489 708 q 508 689 508 708 l 508 638 q 489 619 508 619 l 299 619 q 183 499 183 619 l 183 210 q 299 89 183 89 l 489 89 q 508 69 508 89 z "},"Č":{"ha":751,"x_min":96,"x_max":674,"o":"m 468 0 l 301 0 q 151 54 206 0 q 96 206 96 108 l 96 688 q 151 839 96 785 q 301 893 206 893 l 468 893 q 619 839 564 893 q 674 688 674 785 l 674 619 q 654 600 674 600 l 592 600 q 572 619 572 600 l 572 683 q 456 804 572 804 l 313 804 q 197 683 197 804 l 197 210 q 313 89 197 89 l 456 89 q 572 210 572 89 l 572 274 q 592 293 572 293 l 654 293 q 674 274 674 293 l 674 206 q 619 54 674 108 q 468 0 564 0 m 410 982 l 364 982 q 335 996 344 982 l 247 1144 q 256 1161 238 1161 l 301 1161 q 321 1150 317 1161 l 388 1028 l 453 1150 q 472 1161 458 1161 l 519 1161 q 526 1144 536 1161 l 439 996 q 410 982 429 982 z "},"č":{"ha":554,"x_min":82,"x_max":508,"o":"m 306 797 q 276 811 286 797 l 189 960 q 197 976 179 976 l 244 976 q 264 965 258 976 l 329 843 l 394 965 q 414 976 400 976 l 461 976 q 469 960 479 976 l 381 811 q 353 797 371 797 l 306 797 m 508 69 l 508 18 q 489 0 508 0 l 288 0 q 137 54 192 0 q 82 206 82 108 l 82 503 q 137 654 82 600 q 288 708 192 708 l 489 708 q 508 689 508 708 l 508 638 q 489 619 508 619 l 299 619 q 183 499 183 619 l 183 210 q 299 89 183 89 l 489 89 q 508 69 508 89 z "},"Ď":{"ha":772,"x_min":110,"x_max":676,"o":"m 358 982 q 329 996 339 982 l 242 1144 q 250 1161 232 1161 l 296 1161 q 315 1150 310 1161 l 381 1028 l 447 1150 q 467 1161 453 1161 l 514 1161 q 521 1144 531 1161 l 433 996 q 406 982 424 982 l 358 982 m 225 89 l 458 89 q 575 210 575 89 l 575 683 q 458 804 575 804 l 225 804 q 211 792 211 804 l 211 101 q 225 89 211 89 m 110 19 l 110 874 q 129 893 110 893 l 471 893 q 622 838 567 893 q 676 688 676 783 l 676 206 q 622 55 676 110 q 471 0 567 0 l 129 0 q 110 19 110 0 z "},"ď":{"ha":782,"x_min":82,"x_max":789,"o":"m 789 958 l 789 878 q 768 788 789 843 l 722 656 q 707 646 717 646 q 692 663 692 646 l 692 957 q 710 976 692 976 l 771 976 q 789 958 789 976 m 364 0 l 282 0 q 135 54 188 0 q 82 206 82 108 l 82 503 q 135 654 82 600 q 282 708 188 708 l 364 708 q 507 635 472 708 l 513 635 l 513 957 q 531 976 513 976 l 594 976 q 613 957 613 976 l 613 19 q 594 0 613 0 l 531 0 q 513 19 513 0 l 513 74 l 507 74 q 364 0 472 0 m 513 217 l 513 492 q 479 586 513 553 q 383 619 446 619 l 299 619 q 183 499 183 619 l 183 210 q 299 89 183 89 l 383 89 q 479 122 446 89 q 513 217 513 156 z "},"Đ":{"ha":735,"x_min":33,"x_max":685,"o":"m 233 89 l 467 89 q 583 210 583 89 l 583 683 q 467 804 583 804 l 233 804 q 219 792 219 804 l 219 563 q 233 549 219 549 l 408 549 q 428 531 428 549 l 428 489 q 408 471 428 471 l 233 471 q 219 457 219 471 l 219 101 q 233 89 219 89 m 479 0 l 138 0 q 118 19 118 0 l 118 457 q 104 471 118 471 l 53 471 q 33 489 33 471 l 33 531 q 53 549 33 549 l 104 549 q 118 563 118 549 l 118 874 q 138 893 118 893 l 479 893 q 630 839 575 893 q 685 688 685 785 l 685 206 q 630 54 685 108 q 479 0 575 0 z "},"đ":{"ha":758,"x_min":82,"x_max":732,"o":"m 364 0 l 288 0 q 137 54 192 0 q 82 206 82 108 l 82 417 q 137 567 82 513 q 288 621 192 621 l 364 621 q 507 547 472 621 l 513 547 l 513 750 q 497 764 513 764 l 286 764 q 268 782 268 764 l 268 824 q 286 842 268 842 l 497 842 q 513 856 513 842 l 513 957 q 531 976 513 976 l 594 976 q 613 957 613 976 l 613 856 q 628 842 613 842 l 711 842 q 732 824 732 842 l 732 782 q 711 764 732 764 l 628 764 q 613 750 613 764 l 613 19 q 594 0 613 0 l 531 0 q 513 19 513 0 l 513 74 l 507 74 q 364 0 472 0 m 513 217 l 513 406 q 479 499 513 465 q 383 532 446 532 l 299 532 q 183 411 183 532 l 183 210 q 299 89 183 89 l 383 89 q 479 122 446 89 q 513 217 513 156 z "},"Ē":{"ha":667,"x_min":110,"x_max":585,"o":"m 486 1036 l 207 1036 q 188 1056 188 1036 l 188 1092 q 207 1111 188 1111 l 486 1111 q 506 1092 506 1111 l 506 1056 q 486 1036 506 1036 m 565 0 l 129 0 q 110 19 110 0 l 110 874 q 129 893 110 893 l 565 893 q 585 874 585 893 l 585 824 q 565 804 585 804 l 225 804 q 211 792 211 804 l 211 511 q 225 499 211 499 l 522 499 q 542 479 542 499 l 542 429 q 522 410 542 410 l 225 410 q 211 397 211 410 l 211 101 q 225 89 211 89 l 565 89 q 585 69 585 89 l 585 19 q 565 0 585 0 z "},"ē":{"ha":683,"x_min":82,"x_max":608,"o":"m 488 851 l 208 851 q 189 871 189 851 l 189 904 q 208 924 189 924 l 488 924 q 508 904 508 924 l 508 871 q 488 851 508 851 m 582 0 l 288 0 q 137 54 192 0 q 82 206 82 108 l 82 503 q 137 654 82 600 q 288 708 192 708 l 404 708 q 554 654 500 708 q 608 503 608 600 l 608 326 q 589 306 608 306 l 196 306 q 182 293 182 306 l 182 208 q 299 88 182 88 l 582 88 q 601 68 601 88 l 601 18 q 582 0 601 0 m 196 379 l 496 379 q 510 393 510 379 l 510 500 q 393 619 510 619 l 299 619 q 182 500 182 619 l 182 393 q 196 379 182 379 z "},"Ĕ":{"ha":667,"x_min":110,"x_max":585,"o":"m 196 1146 q 211 1161 196 1161 l 250 1161 q 264 1146 264 1161 l 264 1132 q 281 1059 264 1081 q 338 1038 297 1038 l 344 1038 q 403 1059 386 1038 q 421 1132 421 1081 l 421 1146 q 435 1160 421 1160 l 471 1160 q 486 1146 486 1160 l 486 1129 q 353 982 486 982 l 329 982 q 196 1129 196 982 l 196 1146 m 565 0 l 129 0 q 110 19 110 0 l 110 874 q 129 893 110 893 l 565 893 q 585 874 585 893 l 585 824 q 565 804 585 804 l 225 804 q 211 792 211 804 l 211 511 q 225 499 211 499 l 522 499 q 542 479 542 499 l 542 429 q 522 410 542 410 l 225 410 q 211 397 211 410 l 211 101 q 225 89 211 89 l 565 89 q 585 69 585 89 l 585 19 q 565 0 585 0 z "},"ĕ":{"ha":683,"x_min":82,"x_max":608,"o":"m 196 379 l 496 379 q 510 393 510 379 l 510 500 q 393 619 510 619 l 299 619 q 182 500 182 619 l 182 393 q 196 379 182 379 m 582 0 l 288 0 q 137 54 192 0 q 82 206 82 108 l 82 503 q 137 654 82 600 q 288 708 192 708 l 404 708 q 554 654 500 708 q 608 503 608 600 l 608 326 q 589 306 608 306 l 196 306 q 182 293 182 306 l 182 208 q 299 88 182 88 l 582 88 q 601 68 601 88 l 601 18 q 582 0 601 0 m 200 944 l 200 961 q 215 976 200 976 l 253 976 q 267 961 267 976 l 267 947 q 283 874 267 896 q 340 853 300 853 l 349 853 q 406 874 389 853 q 424 947 424 896 l 424 961 q 439 975 424 975 l 475 975 q 490 961 490 975 l 490 944 q 357 797 490 797 l 332 797 q 200 944 200 797 z "},"Ė":{"ha":683,"x_min":110,"x_max":585,"o":"m 296 1007 l 296 1142 q 315 1161 296 1161 l 379 1161 q 397 1142 397 1161 l 397 1007 q 379 988 397 988 l 315 988 q 296 1007 296 988 m 565 0 l 129 0 q 110 19 110 0 l 110 874 q 129 893 110 893 l 565 893 q 585 874 585 893 l 585 824 q 565 804 585 804 l 225 804 q 211 792 211 804 l 211 511 q 225 499 211 499 l 522 499 q 542 479 542 499 l 542 429 q 522 410 542 410 l 225 410 q 211 397 211 410 l 211 101 q 225 89 211 89 l 565 89 q 585 69 585 89 l 585 19 q 565 0 585 0 z "},"ė":{"ha":683,"x_min":82,"x_max":608,"o":"m 299 819 l 299 954 q 317 974 299 974 l 381 974 q 400 956 400 974 l 400 819 q 381 800 400 800 l 317 800 q 299 819 299 800 m 582 0 l 288 0 q 137 54 192 0 q 82 206 82 108 l 82 503 q 137 654 82 600 q 288 708 192 708 l 404 708 q 554 654 500 708 q 608 503 608 600 l 608 326 q 589 306 608 306 l 196 306 q 182 293 182 306 l 182 208 q 299 88 182 88 l 582 88 q 601 68 601 88 l 601 18 q 582 0 601 0 m 196 379 l 496 379 q 510 393 510 379 l 510 500 q 393 619 510 619 l 299 619 q 182 500 182 619 l 182 393 q 196 379 182 379 z "},"Ę":{"ha":667,"x_min":110,"x_max":585,"o":"m 565 804 l 225 804 q 211 792 211 804 l 211 511 q 225 499 211 499 l 522 499 q 542 479 542 499 l 542 429 q 522 410 542 410 l 225 410 q 211 397 211 410 l 211 101 q 225 89 211 89 l 565 89 q 585 69 585 89 l 585 19 q 565 0 585 0 l 499 0 l 431 -93 l 486 -93 q 515 -97 508 -93 q 522 -112 522 -101 q 487 -142 522 -131 q 413 -154 451 -154 q 365 -135 375 -154 q 374 -93 356 -115 l 440 0 l 129 0 q 110 19 110 0 l 110 874 q 129 893 110 893 l 565 893 q 585 874 585 893 l 585 824 q 565 804 585 804 z "},"ę":{"ha":683,"x_min":82,"x_max":608,"o":"m 288 708 l 404 708 q 554 654 500 708 q 608 503 608 600 l 608 326 q 589 306 608 306 l 196 306 q 182 293 182 306 l 182 208 q 299 88 182 88 l 582 88 q 601 68 601 88 l 601 18 q 582 0 601 0 l 504 0 q 440 -96 435 -96 q 496 -93 476 -96 q 522 -97 515 -93 q 528 -111 529 -100 q 492 -144 526 -131 q 423 -158 457 -158 q 382 -131 389 -158 q 392 -83 375 -104 l 449 0 l 288 0 q 137 54 192 0 q 82 206 82 108 l 82 503 q 137 654 82 600 q 288 708 192 708 m 510 393 l 510 500 q 393 619 510 619 l 299 619 q 182 500 182 619 l 182 393 q 196 379 182 379 l 496 379 q 510 393 510 379 z "},"Ě":{"ha":667,"x_min":110,"x_max":585,"o":"m 326 982 q 299 996 308 982 l 211 1144 q 219 1161 201 1161 l 265 1161 q 285 1150 279 1161 l 351 1028 l 417 1150 q 436 1161 422 1161 l 483 1161 q 490 1144 500 1161 l 403 996 q 375 982 393 982 l 326 982 m 565 0 l 129 0 q 110 19 110 0 l 110 874 q 129 893 110 893 l 565 893 q 585 874 585 893 l 585 824 q 565 804 585 804 l 225 804 q 211 792 211 804 l 211 511 q 225 499 211 499 l 522 499 q 542 479 542 499 l 542 429 q 522 410 542 410 l 225 410 q 211 397 211 410 l 211 101 q 225 89 211 89 l 565 89 q 585 69 585 89 l 585 19 q 565 0 585 0 z "},"ě":{"ha":683,"x_min":82,"x_max":608,"o":"m 325 797 q 296 811 306 797 l 208 960 q 217 976 199 976 l 264 976 q 283 965 278 976 l 349 843 l 414 965 q 433 976 419 976 l 481 976 q 489 960 499 976 l 400 811 q 372 797 390 797 l 325 797 m 582 0 l 288 0 q 137 54 192 0 q 82 206 82 108 l 82 503 q 137 654 82 600 q 288 708 192 708 l 404 708 q 554 654 500 708 q 608 503 608 600 l 608 326 q 589 306 608 306 l 196 306 q 182 293 182 306 l 182 208 q 299 88 182 88 l 582 88 q 601 68 601 88 l 601 18 q 582 0 601 0 m 196 379 l 496 379 q 510 393 510 379 l 510 500 q 393 619 510 619 l 299 619 q 182 500 182 619 l 182 393 q 196 379 182 379 z "},"Ĝ":{"ha":751,"x_min":96,"x_max":656,"o":"m 510 982 l 463 982 q 443 993 449 982 l 378 1115 l 311 993 q 292 982 307 982 l 246 982 q 238 999 228 982 l 325 1147 q 353 1161 335 1161 l 401 1161 q 429 1147 419 1161 l 517 999 q 510 982 526 982 m 451 0 l 301 0 q 151 54 206 0 q 96 206 96 108 l 96 688 q 151 839 96 785 q 301 893 206 893 l 451 893 q 601 838 547 893 q 656 688 656 783 l 656 631 q 636 610 656 610 l 574 610 q 554 631 554 610 l 554 683 q 439 804 554 804 l 313 804 q 197 683 197 804 l 197 210 q 313 89 197 89 l 439 89 q 554 210 554 89 l 554 365 q 542 379 554 379 l 404 379 q 385 397 385 379 l 385 449 q 404 468 385 468 l 628 468 q 656 439 656 468 l 656 206 q 601 54 656 108 q 451 0 547 0 z "},"ĝ":{"ha":708,"x_min":86,"x_max":613,"o":"m 507 797 l 460 797 q 440 808 446 797 l 375 931 l 310 808 q 290 797 304 797 l 243 797 q 235 814 225 797 l 322 963 q 351 976 332 976 l 399 976 q 426 963 417 976 l 515 814 q 507 797 525 797 m 364 38 l 286 38 q 139 92 192 38 q 86 243 86 146 l 86 503 q 141 654 86 600 q 292 708 196 708 l 593 708 q 613 689 613 708 l 613 0 q 558 -151 613 -96 q 407 -206 503 -206 l 151 -206 q 131 -186 131 -206 l 131 -135 q 151 -115 131 -115 l 394 -115 q 511 4 511 -115 l 511 111 l 506 111 q 364 38 469 38 m 511 254 l 511 607 q 497 619 511 619 l 304 619 q 188 499 188 619 l 188 247 q 304 126 188 126 l 382 126 q 478 160 444 126 q 511 254 511 193 z "},"Ğ":{"ha":751,"x_min":96,"x_max":656,"o":"m 232 1146 q 246 1161 232 1161 l 285 1161 q 299 1146 299 1161 l 299 1132 q 315 1059 299 1081 q 372 1038 332 1038 l 381 1038 q 438 1059 421 1038 q 456 1132 456 1081 l 456 1146 q 469 1160 456 1160 l 506 1160 q 521 1146 521 1160 l 521 1129 q 388 982 521 982 l 364 982 q 232 1129 232 982 l 232 1146 m 451 0 l 301 0 q 151 54 206 0 q 96 206 96 108 l 96 688 q 151 839 96 785 q 301 893 206 893 l 451 893 q 601 838 547 893 q 656 688 656 783 l 656 631 q 636 610 656 610 l 574 610 q 554 631 554 610 l 554 683 q 439 804 554 804 l 313 804 q 197 683 197 804 l 197 210 q 313 89 197 89 l 439 89 q 554 210 554 89 l 554 365 q 542 379 554 379 l 404 379 q 385 397 385 379 l 385 449 q 404 468 385 468 l 628 468 q 656 439 656 468 l 656 206 q 601 54 656 108 q 451 0 547 0 z "},"ğ":{"ha":708,"x_min":86,"x_max":613,"o":"m 511 254 l 511 607 q 497 619 511 619 l 304 619 q 188 499 188 619 l 188 247 q 304 126 188 126 l 382 126 q 478 160 444 126 q 511 254 511 193 m 364 38 l 286 38 q 139 92 192 38 q 86 243 86 146 l 86 503 q 141 654 86 600 q 292 708 196 708 l 593 708 q 613 689 613 708 l 613 0 q 558 -151 613 -96 q 407 -206 503 -206 l 151 -206 q 131 -186 131 -206 l 131 -135 q 151 -115 131 -115 l 394 -115 q 511 4 511 -115 l 511 111 l 506 111 q 364 38 469 38 m 242 944 l 242 961 q 257 976 242 976 l 294 976 q 310 961 310 976 l 310 947 q 326 874 310 896 q 382 853 342 853 l 390 853 q 448 874 431 853 q 465 947 465 896 l 465 961 q 481 975 465 975 l 517 975 q 532 961 532 975 l 532 944 q 397 797 532 797 l 374 797 q 242 944 242 797 z "},"Ġ":{"ha":751,"x_min":96,"x_max":656,"o":"m 325 1007 l 325 1142 q 343 1161 325 1161 l 407 1161 q 425 1142 425 1161 l 425 1007 q 407 988 425 988 l 343 988 q 325 1007 325 988 m 451 0 l 301 0 q 151 54 206 0 q 96 206 96 108 l 96 688 q 151 839 96 785 q 301 893 206 893 l 451 893 q 601 838 547 893 q 656 688 656 783 l 656 631 q 636 610 656 610 l 574 610 q 554 631 554 610 l 554 683 q 439 804 554 804 l 313 804 q 197 683 197 804 l 197 210 q 313 89 197 89 l 439 89 q 554 210 554 89 l 554 365 q 542 379 554 379 l 404 379 q 385 397 385 379 l 385 449 q 404 468 385 468 l 628 468 q 656 439 656 468 l 656 206 q 601 54 656 108 q 451 0 547 0 z "},"ġ":{"ha":708,"x_min":86,"x_max":613,"o":"m 331 819 l 331 954 q 349 974 331 974 l 414 974 q 432 956 432 974 l 432 819 q 414 800 432 800 l 349 800 q 331 819 331 800 m 364 38 l 286 38 q 139 92 192 38 q 86 243 86 146 l 86 503 q 141 654 86 600 q 292 708 196 708 l 593 708 q 613 689 613 708 l 613 0 q 558 -151 613 -96 q 407 -206 503 -206 l 151 -206 q 131 -186 131 -206 l 131 -135 q 151 -115 131 -115 l 394 -115 q 511 4 511 -115 l 511 111 l 506 111 q 364 38 469 38 m 511 254 l 511 607 q 497 619 511 619 l 304 619 q 188 499 188 619 l 188 247 q 304 126 188 126 l 382 126 q 478 160 444 126 q 511 254 511 193 z "},"Ģ":{"ha":751,"x_min":96,"x_max":656,"o":"m 446 -62 l 446 -128 q 425 -208 446 -167 l 379 -319 q 364 -331 372 -331 q 349 -314 349 -331 l 349 -64 q 367 -44 349 -44 l 428 -44 q 446 -62 446 -44 m 451 0 l 301 0 q 151 54 206 0 q 96 206 96 108 l 96 688 q 151 839 96 785 q 301 893 206 893 l 451 893 q 601 838 547 893 q 656 688 656 783 l 656 631 q 636 610 656 610 l 574 610 q 554 631 554 610 l 554 683 q 439 804 554 804 l 313 804 q 197 683 197 804 l 197 210 q 313 89 197 89 l 439 89 q 554 210 554 89 l 554 365 q 542 379 554 379 l 404 379 q 385 397 385 379 l 385 449 q 404 468 385 468 l 628 468 q 656 439 656 468 l 656 206 q 601 54 656 108 q 451 0 547 0 z "},"ģ":{"ha":708,"x_min":86,"x_max":613,"o":"m 364 38 l 286 38 q 139 92 192 38 q 86 243 86 146 l 86 503 q 141 654 86 600 q 292 708 196 708 l 593 708 q 613 689 613 708 l 613 0 q 558 -151 613 -96 q 407 -206 503 -206 l 151 -206 q 131 -186 131 -206 l 131 -135 q 151 -115 131 -115 l 394 -115 q 511 4 511 -115 l 511 111 l 506 111 q 364 38 469 38 m 511 254 l 511 607 q 497 619 511 619 l 304 619 q 188 499 188 619 l 188 247 q 304 126 188 126 l 382 126 q 478 160 444 126 q 511 254 511 193 m 331 815 l 331 881 q 351 961 331 919 l 397 1072 q 413 1083 404 1083 q 428 1065 428 1083 l 428 815 q 410 797 428 797 l 349 797 q 331 815 331 797 z "},"ĥ":{"ha":711,"x_min":96,"x_max":622,"o":"m 532 890 l 485 890 q 465 901 471 890 l 400 1022 l 333 901 q 315 890 328 890 l 268 890 q 260 906 250 890 l 347 1056 q 376 1069 357 1069 l 424 1069 q 451 1056 442 1069 l 540 906 q 532 890 550 890 m 178 0 l 115 0 q 96 19 96 0 l 96 957 q 115 976 96 976 l 178 976 q 197 957 197 976 l 197 635 l 203 635 q 344 708 238 708 l 422 708 q 569 654 517 708 q 622 503 622 600 l 622 19 q 603 0 622 0 l 540 0 q 521 19 521 0 l 521 499 q 404 619 521 619 l 326 619 q 231 586 264 619 q 197 492 197 553 l 197 19 q 178 0 197 0 z "},"Ħ":{"ha":761,"x_min":33,"x_max":789,"o":"m 206 0 l 143 0 q 124 19 124 0 l 124 622 q 110 635 124 635 l 53 635 q 33 654 33 635 l 33 694 q 53 714 33 714 l 110 714 q 124 728 124 714 l 124 874 q 143 893 124 893 l 206 893 q 225 874 225 893 l 225 728 q 239 714 225 714 l 583 714 q 597 726 597 714 l 597 874 q 617 893 597 893 l 678 893 q 699 874 699 893 l 699 728 q 713 714 699 714 l 769 714 q 789 694 789 714 l 789 654 q 769 635 789 635 l 713 635 q 699 622 699 635 l 699 19 q 678 0 699 0 l 617 0 q 597 19 597 0 l 597 383 q 583 396 597 396 l 239 396 q 225 383 225 396 l 225 19 q 206 0 225 0 m 239 485 l 583 485 q 597 499 597 485 l 597 622 q 583 635 597 635 l 239 635 q 225 622 225 635 l 225 499 q 239 485 225 485 z "},"ħ":{"ha":767,"x_min":26,"x_max":676,"o":"m 226 0 l 164 0 q 144 19 144 0 l 144 750 q 131 764 144 764 l 46 764 q 26 782 26 764 l 26 824 q 46 842 26 842 l 131 842 q 144 856 144 842 l 144 957 q 164 976 144 976 l 226 976 q 246 957 246 976 l 246 856 q 260 842 246 842 l 471 842 q 490 824 490 842 l 490 782 q 471 764 490 764 l 260 764 q 246 750 246 764 l 246 553 l 251 553 q 393 626 283 626 l 471 626 q 622 572 567 626 q 676 421 676 517 l 676 19 q 656 0 676 0 l 594 0 q 575 19 575 0 l 575 417 q 458 538 575 538 l 375 538 q 279 504 313 538 q 246 410 246 471 l 246 19 q 226 0 246 0 z "},"Ĩ":{"ha":333,"x_min":14,"x_max":321,"o":"m 185 1042 q 177 1022 185 1042 q 149 989 168 1003 q 92 975 131 975 q 14 1082 14 975 l 14 1136 q 26 1150 14 1150 l 56 1150 q 68 1136 68 1150 l 68 1100 q 75 1046 68 1060 q 99 1032 82 1032 q 126 1043 117 1032 q 153 1092 135 1054 q 188 1143 171 1131 q 244 1156 204 1156 q 321 1047 321 1156 l 321 993 q 308 978 321 978 l 279 978 q 265 993 265 978 l 265 1031 q 258 1084 265 1071 q 233 1097 251 1097 q 209 1089 215 1097 q 185 1042 203 1081 m 218 874 l 218 19 q 199 0 218 0 l 136 0 q 117 19 117 0 l 117 874 q 136 893 117 893 l 199 893 q 218 874 218 893 z "},"ĩ":{"ha":307,"x_min":0,"x_max":307,"o":"m 0 907 l 0 960 q 13 975 0 975 l 42 975 q 54 960 54 975 l 54 924 q 61 871 54 885 q 85 857 68 857 q 112 868 103 857 q 138 917 121 879 q 172 967 156 954 q 229 979 189 979 q 307 872 307 979 l 307 817 q 294 801 307 801 l 265 801 q 251 817 251 801 l 251 854 q 244 908 251 894 q 219 922 238 922 q 195 914 201 922 q 172 866 189 906 q 135 813 154 826 q 78 800 117 800 q 0 907 0 800 m 103 19 l 103 689 q 121 708 103 708 l 185 708 q 204 689 204 708 l 204 19 q 185 0 204 0 l 122 0 q 103 19 103 0 z "},"Ī":{"ha":333,"x_min":8,"x_max":326,"o":"m 307 1036 l 28 1036 q 8 1056 8 1036 l 8 1092 q 28 1111 8 1111 l 307 1111 q 326 1092 326 1111 l 326 1056 q 307 1036 326 1036 m 218 874 l 218 19 q 199 0 218 0 l 136 0 q 117 19 117 0 l 117 874 q 136 893 117 893 l 199 893 q 218 874 218 893 z "},"ī":{"ha":304,"x_min":-7,"x_max":311,"o":"m 292 851 l 13 851 q -7 871 -7 851 l -7 904 q 13 924 -7 924 l 292 924 q 311 904 311 924 l 311 871 q 292 851 311 851 m 103 19 l 103 689 q 121 708 103 708 l 185 708 q 204 689 204 708 l 204 19 q 185 0 204 0 l 122 0 q 103 19 103 0 z "},"Ĭ":{"ha":335,"x_min":22,"x_max":313,"o":"m 22 1146 q 38 1161 22 1161 l 76 1161 q 90 1146 90 1161 l 90 1132 q 107 1059 90 1081 q 164 1038 124 1038 l 171 1038 q 230 1059 213 1038 q 247 1132 247 1081 l 247 1146 q 261 1160 247 1160 l 297 1160 q 313 1146 313 1160 l 313 1129 q 179 982 313 982 l 156 982 q 22 1129 22 982 l 22 1146 m 218 874 l 218 19 q 199 0 218 0 l 136 0 q 117 19 117 0 l 117 874 q 136 893 117 893 l 199 893 q 218 874 218 893 z "},"ĭ":{"ha":307,"x_min":8,"x_max":299,"o":"m 103 19 l 103 689 q 121 708 103 708 l 185 708 q 204 689 204 708 l 204 19 q 185 0 204 0 l 122 0 q 103 19 103 0 m 8 944 l 8 961 q 24 976 8 976 l 63 976 q 76 961 76 976 l 76 947 q 93 874 76 896 q 150 853 110 853 l 157 853 q 216 874 199 853 q 233 947 233 896 l 233 961 q 247 975 233 975 l 283 975 q 299 961 299 975 l 299 944 q 165 797 299 797 l 142 797 q 8 944 8 797 z "},"Į":{"ha":335,"x_min":56,"x_max":218,"o":"m 136 893 l 199 893 q 218 874 218 893 l 218 19 q 199 0 218 0 l 190 0 l 122 -93 l 178 -93 q 206 -97 199 -93 q 213 -112 213 -101 q 178 -142 213 -131 q 105 -154 143 -154 q 56 -135 67 -154 q 64 -93 46 -115 l 131 0 q 117 19 117 3 l 117 874 q 136 893 117 893 z "},"į":{"ha":307,"x_min":49,"x_max":204,"o":"m 121 975 l 185 975 q 204 956 204 975 l 204 825 q 185 806 204 806 l 121 806 q 103 825 103 806 l 103 956 q 121 975 103 975 m 121 708 l 185 708 q 204 689 204 708 l 204 19 q 185 0 204 0 l 172 0 q 107 -96 101 -96 q 164 -93 144 -96 q 190 -97 183 -93 q 194 -111 197 -100 q 159 -144 193 -131 q 90 -158 125 -158 q 49 -131 56 -158 q 60 -83 42 -104 l 117 0 q 103 19 103 1 l 103 689 q 121 708 103 708 z "},"İ":{"ha":335,"x_min":117,"x_max":218,"o":"m 218 874 l 218 19 q 199 0 218 0 l 136 0 q 117 19 117 0 l 117 874 q 136 893 117 893 l 199 893 q 218 874 218 893 m 117 981 l 117 1110 q 135 1129 117 1129 l 199 1129 q 218 1111 218 1129 l 218 981 q 199 961 218 961 l 135 961 q 117 981 117 961 z "},"ı":{"ha":313,"x_min":106,"x_max":206,"o":"m 106 19 l 106 689 q 124 708 106 708 l 188 708 q 206 689 206 708 l 206 19 q 188 0 206 0 l 124 0 q 106 19 106 0 z "},"Ĳ":{"ha":1014,"x_min":119,"x_max":914,"o":"m 832 893 l 894 893 q 914 875 914 893 l 914 206 q 859 55 914 110 q 708 0 804 0 l 569 0 q 420 54 475 0 q 365 206 365 108 l 365 325 q 383 344 365 344 l 447 344 q 465 325 465 344 l 465 210 q 582 89 465 89 l 696 89 q 813 210 813 89 l 813 874 q 832 893 813 893 m 219 874 l 219 19 q 201 0 219 0 l 138 0 q 119 19 119 0 l 119 874 q 138 893 119 893 l 201 893 q 219 874 219 893 z "},"ĳ":{"ha":611,"x_min":103,"x_max":507,"o":"m 103 19 l 103 689 q 121 708 103 708 l 185 708 q 204 689 204 708 l 204 19 q 185 0 204 0 l 122 0 q 103 19 103 0 m 103 825 l 103 956 q 121 975 103 975 l 185 975 q 204 956 204 975 l 204 825 q 185 806 204 806 l 121 806 q 103 825 103 806 m 406 825 l 406 956 q 425 975 406 975 l 489 975 q 507 956 507 975 l 507 825 q 489 806 507 806 l 425 806 q 406 825 406 806 m 301 -206 l 246 -206 q 226 -186 226 -206 l 226 -135 q 246 -115 226 -115 l 278 -115 q 375 -83 344 -115 q 406 15 406 -51 l 406 689 q 426 708 406 708 l 488 708 q 507 689 507 708 l 507 1 q 452 -150 507 -94 q 301 -206 397 -206 z "},"Ĵ":{"ha":689,"x_min":50,"x_max":685,"o":"m 518 893 l 581 893 q 599 875 599 893 l 599 206 q 544 54 599 108 q 394 0 489 0 l 256 0 q 105 55 160 0 q 50 206 50 110 l 50 325 q 69 344 50 344 l 132 344 q 151 325 151 344 l 151 210 q 268 89 151 89 l 382 89 q 499 210 499 89 l 499 874 q 518 893 499 893 m 678 982 l 631 982 q 611 993 617 982 l 546 1115 l 479 993 q 460 982 475 982 l 414 982 q 406 999 396 982 l 493 1147 q 522 1161 503 1161 l 569 1161 q 597 1147 588 1161 l 685 999 q 678 982 694 982 z "},"ĵ":{"ha":304,"x_min":-78,"x_max":292,"o":"m 283 797 l 236 797 q 217 808 222 797 l 151 931 l 85 808 q 67 797 81 797 l 19 797 q 11 814 1 797 l 99 963 q 128 976 108 976 l 175 976 q 203 963 193 976 l 292 814 q 283 797 301 797 m -1 -206 l -58 -206 q -78 -186 -78 -206 l -78 -135 q -58 -115 -78 -115 l -26 -115 q 103 15 103 -115 l 103 689 q 122 708 103 708 l 185 708 q 204 689 204 708 l 204 1 q 149 -150 204 -94 q -1 -206 94 -206 z "},"Ķ":{"ha":747,"x_min":110,"x_max":714,"o":"m 458 -62 l 458 -128 q 439 -208 458 -165 l 393 -319 q 376 -331 386 -331 q 363 -314 363 -331 l 363 -64 q 381 -44 363 -44 l 440 -44 q 458 -62 458 -44 m 192 0 l 129 0 q 110 19 110 0 l 110 874 q 129 893 110 893 l 192 893 q 211 874 211 893 l 211 394 l 215 394 q 246 451 225 424 l 557 874 q 593 893 569 893 l 668 893 q 675 872 692 893 l 400 500 l 714 22 q 701 0 729 0 l 644 0 q 604 19 615 0 l 338 426 l 211 275 l 211 19 q 192 0 211 0 z "},"ķ":{"ha":615,"x_min":96,"x_max":600,"o":"m 497 708 l 567 708 q 581 702 578 708 q 578 686 585 696 l 374 369 l 374 364 l 599 22 q 600 6 604 13 q 585 0 596 0 l 519 0 q 481 19 493 0 l 267 350 q 267 379 258 364 l 464 690 q 497 708 472 708 m 178 0 l 115 0 q 96 19 96 0 l 96 957 q 115 976 96 976 l 178 976 q 197 957 197 976 l 197 19 q 178 0 197 0 m 386 -62 l 386 -128 q 365 -208 386 -162 l 319 -319 q 303 -331 313 -331 q 289 -314 289 -331 l 289 -64 q 307 -44 289 -44 l 368 -44 q 386 -62 386 -44 z "},"Ĺ":{"ha":626,"x_min":110,"x_max":594,"o":"m 239 1161 l 322 1161 q 335 1156 332 1161 q 332 1142 338 1150 l 210 996 q 183 982 199 982 l 138 982 q 128 1001 117 982 l 208 1143 q 239 1161 218 1161 m 575 0 l 129 0 q 110 19 110 0 l 110 874 q 129 893 110 893 l 192 893 q 211 874 211 893 l 211 104 q 225 92 211 92 l 575 92 q 594 71 594 92 l 594 19 q 575 0 594 0 z "},"ĺ":{"ha":301,"x_min":103,"x_max":324,"o":"m 228 1221 l 313 1221 q 324 1215 321 1221 q 321 1201 326 1210 l 200 1056 q 171 1042 186 1042 l 126 1042 q 118 1061 107 1042 l 199 1203 q 228 1221 207 1221 m 185 0 l 122 0 q 103 19 103 0 l 103 957 q 122 976 103 976 l 185 976 q 204 957 204 976 l 204 19 q 185 0 204 0 z "},"Ļ":{"ha":626,"x_min":110,"x_max":594,"o":"m 399 -62 l 399 -128 q 378 -208 399 -162 l 332 -319 q 315 -331 325 -331 q 301 -314 301 -331 l 301 -64 q 319 -44 301 -44 l 381 -44 q 399 -62 399 -44 m 575 0 l 129 0 q 110 19 110 0 l 110 874 q 129 893 110 893 l 192 893 q 211 874 211 893 l 211 104 q 225 92 211 92 l 575 92 q 594 71 594 92 l 594 19 q 575 0 594 0 z "},"ļ":{"ha":307,"x_min":103,"x_max":204,"o":"m 203 -62 l 203 -128 q 182 -208 203 -167 l 136 -319 q 121 -331 129 -331 q 106 -314 106 -331 l 106 -64 q 124 -44 106 -44 l 185 -44 q 203 -62 203 -44 m 185 0 l 122 0 q 103 19 103 0 l 103 957 q 122 976 103 976 l 185 976 q 204 957 204 976 l 204 19 q 185 0 204 0 z "},"Ľ":{"ha":626,"x_min":110,"x_max":594,"o":"m 515 875 l 515 794 q 496 704 515 763 l 449 572 q 433 563 444 563 q 418 579 418 563 l 418 874 q 436 893 418 893 l 497 893 q 515 875 515 893 m 575 0 l 129 0 q 110 19 110 0 l 110 874 q 129 893 110 893 l 192 893 q 211 874 211 893 l 211 104 q 225 92 211 92 l 575 92 q 594 71 594 92 l 594 19 q 575 0 594 0 z "},"ľ":{"ha":414,"x_min":103,"x_max":397,"o":"m 397 958 l 397 878 q 376 788 397 843 l 331 656 q 313 646 325 646 q 300 663 300 646 l 300 957 q 318 976 300 976 l 378 976 q 397 958 397 976 m 185 0 l 122 0 q 103 19 103 0 l 103 957 q 122 976 103 976 l 185 976 q 204 957 204 976 l 204 19 q 185 0 204 0 z "},"Ŀ":{"ha":693,"x_min":115,"x_max":599,"o":"m 579 0 l 133 0 q 115 19 115 0 l 115 874 q 133 893 115 893 l 196 893 q 215 874 215 893 l 215 104 q 231 92 215 92 l 579 92 q 599 71 599 92 l 599 19 q 579 0 599 0 m 496 519 l 496 367 q 478 347 496 347 l 407 347 q 389 368 389 347 l 389 518 q 407 538 389 538 l 478 538 q 496 519 496 538 z "},"ŀ":{"ha":471,"x_min":108,"x_max":421,"o":"m 189 0 l 126 0 q 108 19 108 0 l 108 957 q 126 976 108 976 l 189 976 q 208 957 208 976 l 208 19 q 189 0 208 0 m 421 519 l 421 367 q 404 347 421 347 l 333 347 q 314 368 314 347 l 314 518 q 333 538 314 538 l 404 538 q 421 519 421 538 z "},"Ł":{"ha":704,"x_min":15,"x_max":617,"o":"m 597 0 l 151 0 q 132 19 132 0 l 132 486 l 35 431 q 15 442 15 419 l 15 493 q 35 521 15 511 l 132 576 l 132 874 q 151 893 132 893 l 214 893 q 233 874 233 893 l 233 635 l 365 708 q 385 697 385 719 l 385 644 q 365 617 385 626 l 233 542 l 233 104 q 247 92 233 92 l 597 92 q 617 71 617 92 l 617 19 q 597 0 617 0 z "},"ł":{"ha":422,"x_min":32,"x_max":390,"o":"m 242 0 l 179 0 q 160 19 160 0 l 160 496 l 50 433 q 32 444 32 425 l 32 500 q 50 526 32 517 l 160 588 l 160 957 q 179 976 160 976 l 242 976 q 261 957 261 976 l 261 646 l 371 708 q 390 697 390 719 l 390 644 q 371 615 390 626 l 261 553 l 261 19 q 242 0 261 0 z "},"Ń":{"ha":807,"x_min":110,"x_max":697,"o":"m 486 1161 l 569 1161 q 582 1156 579 1161 q 579 1142 585 1150 l 458 996 q 431 982 447 982 l 385 982 q 376 1001 365 982 l 457 1143 q 486 1161 467 1161 m 190 0 l 129 0 q 110 19 110 0 l 110 874 q 129 893 110 893 l 186 893 q 208 882 203 893 l 592 208 l 597 208 l 597 874 q 617 893 597 893 l 678 893 q 697 874 697 893 l 697 19 q 678 0 697 0 l 626 0 q 597 18 611 0 l 215 685 l 210 685 l 210 19 q 190 0 210 0 z "},"ń":{"ha":711,"x_min":96,"x_max":622,"o":"m 438 976 l 522 976 q 534 971 531 976 q 531 957 538 965 l 410 811 q 382 797 399 797 l 336 797 q 328 817 317 797 l 408 958 q 438 976 418 976 m 178 0 l 115 0 q 96 19 96 0 l 96 689 q 115 708 96 708 l 178 708 q 197 689 197 708 l 197 635 l 203 635 q 344 708 238 708 l 422 708 q 569 654 517 708 q 622 503 622 600 l 622 19 q 603 0 622 0 l 540 0 q 521 19 521 0 l 521 499 q 404 619 521 619 l 326 619 q 231 586 264 619 q 197 492 197 553 l 197 19 q 178 0 197 0 z "},"Ņ":{"ha":807,"x_min":110,"x_max":697,"o":"m 458 -62 l 458 -128 q 438 -208 458 -162 l 392 -319 q 375 -331 385 -331 q 361 -314 361 -331 l 361 -64 q 379 -44 361 -44 l 439 -44 q 458 -62 458 -44 m 190 0 l 129 0 q 110 19 110 0 l 110 874 q 129 893 110 893 l 186 893 q 208 882 203 893 l 592 208 l 597 208 l 597 874 q 617 893 597 893 l 678 893 q 697 874 697 893 l 697 19 q 678 0 697 0 l 626 0 q 597 18 611 0 l 215 685 l 210 685 l 210 19 q 190 0 210 0 z "},"ņ":{"ha":708,"x_min":96,"x_max":622,"o":"m 408 -62 l 408 -128 q 388 -208 408 -162 l 342 -319 q 325 -331 335 -331 q 311 -314 311 -331 l 311 -64 q 329 -44 311 -44 l 390 -44 q 408 -62 408 -44 m 178 0 l 115 0 q 96 19 96 0 l 96 689 q 115 708 96 708 l 178 708 q 197 689 197 708 l 197 635 l 203 635 q 344 708 238 708 l 422 708 q 569 654 517 708 q 622 503 622 600 l 622 19 q 603 0 622 0 l 540 0 q 521 19 521 0 l 521 499 q 404 619 521 619 l 326 619 q 231 586 264 619 q 197 492 197 553 l 197 19 q 178 0 197 0 z "},"Ň":{"ha":807,"x_min":110,"x_max":697,"o":"m 190 0 l 129 0 q 110 19 110 0 l 110 874 q 129 893 110 893 l 186 893 q 208 882 203 893 l 592 208 l 597 208 l 597 874 q 617 893 597 893 l 678 893 q 697 874 697 893 l 697 19 q 678 0 697 0 l 626 0 q 597 18 611 0 l 215 685 l 210 685 l 210 19 q 190 0 210 0 m 385 982 q 357 996 367 982 l 269 1144 q 276 1161 260 1161 l 324 1161 q 343 1150 338 1161 l 408 1028 l 475 1150 q 493 1161 479 1161 l 542 1161 q 549 1144 558 1161 l 461 996 q 433 982 451 982 l 385 982 z "},"ň":{"ha":711,"x_min":96,"x_max":622,"o":"m 336 797 q 307 811 317 797 l 219 960 q 226 976 210 976 l 274 976 q 293 965 288 976 l 358 843 l 425 965 q 444 976 429 976 l 492 976 q 499 960 508 976 l 411 811 q 382 797 401 797 l 336 797 m 178 0 l 115 0 q 96 19 96 0 l 96 689 q 115 708 96 708 l 178 708 q 197 689 197 708 l 197 635 l 203 635 q 344 708 238 708 l 422 708 q 569 654 517 708 q 622 503 622 600 l 622 19 q 603 0 622 0 l 540 0 q 521 19 521 0 l 521 499 q 404 619 521 619 l 326 619 q 231 586 264 619 q 197 492 197 553 l 197 19 q 178 0 197 0 z "},"Ŋ":{"ha":749,"x_min":115,"x_max":703,"o":"m 497 -208 l 440 -208 q 421 -189 421 -208 l 421 -139 q 440 -119 421 -119 l 472 -119 q 569 -87 539 -119 q 600 13 600 -56 l 600 18 q 417 342 558 89 q 221 685 275 594 l 215 685 l 215 19 q 196 0 215 0 l 133 0 q 115 19 115 0 l 115 874 q 133 893 115 893 l 192 893 q 214 882 208 893 l 596 208 l 601 208 l 601 874 q 621 893 601 893 l 683 893 q 703 874 703 893 l 703 -3 q 647 -153 703 -99 q 497 -208 592 -208 z "},"ŋ":{"ha":711,"x_min":96,"x_max":622,"o":"m 417 -208 l 360 -208 q 340 -189 340 -208 l 340 -139 q 360 -119 340 -119 l 393 -119 q 490 -87 460 -119 q 521 13 521 -56 l 521 499 q 404 619 521 619 l 326 619 q 231 586 264 619 q 197 492 197 553 l 197 19 q 178 0 197 0 l 115 0 q 96 19 96 0 l 96 689 q 115 708 96 708 l 178 708 q 197 689 197 708 l 197 635 l 203 635 q 344 708 238 708 l 417 708 q 567 653 513 708 q 622 503 622 599 l 622 -3 q 567 -153 622 -99 q 417 -208 511 -208 z "},"Ō":{"ha":768,"x_min":96,"x_max":672,"o":"m 524 1036 l 243 1036 q 224 1056 224 1036 l 224 1092 q 243 1111 224 1111 l 524 1111 q 543 1092 543 1111 l 543 1056 q 524 1036 543 1036 m 313 89 l 454 89 q 571 210 571 89 l 571 683 q 454 804 571 804 l 313 804 q 197 683 197 804 l 197 210 q 313 89 197 89 m 467 0 l 301 0 q 151 54 206 0 q 96 206 96 108 l 96 688 q 151 839 96 785 q 301 893 206 893 l 467 893 q 617 838 563 893 q 672 688 672 783 l 672 206 q 617 55 672 110 q 467 0 563 0 z "},"ō":{"ha":694,"x_min":82,"x_max":613,"o":"m 486 851 l 207 851 q 188 871 188 851 l 188 904 q 207 924 188 924 l 486 924 q 506 904 506 924 l 506 871 q 486 851 506 851 m 407 0 l 288 0 q 137 54 192 0 q 82 206 82 108 l 82 503 q 137 654 82 600 q 288 708 192 708 l 407 708 q 558 654 503 708 q 613 503 613 600 l 613 206 q 558 54 613 108 q 407 0 503 0 m 299 89 l 396 89 q 513 208 513 89 l 513 500 q 396 619 513 619 l 299 619 q 182 500 182 619 l 182 208 q 299 89 182 89 z "},"Ŏ":{"ha":768,"x_min":96,"x_max":672,"o":"m 239 1146 q 254 1161 239 1161 l 292 1161 q 307 1146 307 1161 l 307 1132 q 324 1059 307 1081 q 381 1038 340 1038 l 388 1038 q 446 1059 429 1038 q 463 1132 463 1081 l 463 1146 q 478 1160 463 1160 l 514 1160 q 529 1146 529 1160 l 529 1129 q 396 982 529 982 l 371 982 q 239 1129 239 982 l 239 1146 m 313 89 l 454 89 q 571 210 571 89 l 571 683 q 454 804 571 804 l 313 804 q 197 683 197 804 l 197 210 q 313 89 197 89 m 467 0 l 301 0 q 151 54 206 0 q 96 206 96 108 l 96 688 q 151 839 96 785 q 301 893 206 893 l 467 893 q 617 838 563 893 q 672 688 672 783 l 672 206 q 617 55 672 110 q 467 0 563 0 z "},"ŏ":{"ha":694,"x_min":82,"x_max":613,"o":"m 299 89 l 396 89 q 513 208 513 89 l 513 500 q 396 619 513 619 l 299 619 q 182 500 182 619 l 182 208 q 299 89 182 89 m 407 0 l 288 0 q 137 54 192 0 q 82 206 82 108 l 82 503 q 137 654 82 600 q 288 708 192 708 l 407 708 q 558 654 503 708 q 613 503 613 600 l 613 206 q 558 54 613 108 q 407 0 503 0 m 203 944 l 203 961 q 217 976 203 976 l 256 976 q 271 961 271 976 l 271 947 q 287 874 271 896 q 343 853 303 853 l 351 853 q 410 874 393 853 q 426 947 426 896 l 426 961 q 442 975 426 975 l 478 975 q 492 961 492 975 l 492 944 q 360 797 492 797 l 335 797 q 203 944 203 797 z "},"Ő":{"ha":768,"x_min":96,"x_max":672,"o":"m 368 1161 l 424 1161 q 433 1142 446 1161 l 326 996 q 300 982 315 982 l 268 982 q 260 1001 249 982 l 338 1143 q 368 1161 349 1161 m 551 1161 l 607 1161 q 617 1142 631 1161 l 510 996 q 483 982 496 982 l 451 982 q 443 1001 432 982 l 521 1143 q 551 1161 532 1161 m 313 89 l 454 89 q 571 210 571 89 l 571 683 q 454 804 571 804 l 313 804 q 197 683 197 804 l 197 210 q 313 89 197 89 m 467 0 l 301 0 q 151 54 206 0 q 96 206 96 108 l 96 688 q 151 839 96 785 q 301 893 206 893 l 467 893 q 617 838 563 893 q 672 688 672 783 l 672 206 q 617 55 672 110 q 467 0 563 0 z "},"ő":{"ha":694,"x_min":82,"x_max":613,"o":"m 336 976 l 393 976 q 401 957 417 976 l 294 811 q 269 797 283 797 l 236 797 q 228 817 219 797 l 307 958 q 336 976 317 976 m 521 976 l 576 976 q 586 957 599 976 l 479 811 q 453 797 465 797 l 421 797 q 413 817 400 797 l 490 958 q 521 976 500 976 m 407 0 l 288 0 q 137 54 192 0 q 82 206 82 108 l 82 503 q 137 654 82 600 q 288 708 192 708 l 407 708 q 558 654 503 708 q 613 503 613 600 l 613 206 q 558 54 613 108 q 407 0 503 0 m 299 89 l 396 89 q 513 208 513 89 l 513 500 q 396 619 513 619 l 299 619 q 182 500 182 619 l 182 208 q 299 89 182 89 z "},"Œ":{"ha":1079,"x_min":101,"x_max":983,"o":"m 101 206 l 101 688 q 156 838 101 783 q 306 893 211 893 l 963 893 q 983 874 983 893 l 983 824 q 963 804 983 804 l 628 804 q 614 792 614 804 l 614 511 q 628 499 614 499 l 919 499 q 939 479 939 499 l 939 429 q 919 410 939 410 l 628 410 q 614 397 614 410 l 614 101 q 628 89 614 89 l 963 89 q 983 69 983 89 l 983 19 q 963 0 983 0 l 306 0 q 156 54 211 0 q 101 206 101 108 m 318 89 l 499 89 q 514 101 514 89 l 514 792 q 499 804 514 804 l 318 804 q 203 683 203 804 l 203 210 q 318 89 203 89 z "},"œ":{"ha":1118,"x_min":82,"x_max":1039,"o":"m 397 0 l 288 0 q 137 54 192 0 q 82 206 82 108 l 82 503 q 137 654 82 600 q 288 708 192 708 l 392 708 q 567 619 514 708 q 736 708 614 708 l 833 708 q 984 653 929 708 q 1039 503 1039 599 l 1039 326 q 1018 306 1039 306 l 626 306 q 613 293 613 306 l 613 210 q 729 89 613 89 l 1011 89 q 1031 69 1031 89 l 1031 18 q 1011 0 1031 0 l 732 0 q 557 92 608 0 q 397 0 518 0 m 626 379 l 924 379 q 938 393 938 379 l 938 499 q 821 619 938 619 l 729 619 q 613 499 613 619 l 613 393 q 626 379 613 379 m 299 89 l 394 89 q 511 210 511 89 l 511 499 q 394 619 511 619 l 299 619 q 183 499 183 619 l 183 210 q 299 89 183 89 z "},"Ŕ":{"ha":746,"x_min":110,"x_max":675,"o":"m 419 1161 l 504 1161 q 515 1156 513 1161 q 513 1142 518 1150 l 392 996 q 364 982 381 982 l 318 982 q 310 1001 299 982 l 390 1143 q 419 1161 399 1161 m 192 0 l 129 0 q 110 19 110 0 l 110 874 q 129 893 110 893 l 449 893 q 600 838 544 893 q 656 688 656 783 l 656 561 q 618 433 656 483 q 514 365 581 382 l 514 360 l 675 22 q 661 0 688 0 l 599 0 q 564 19 575 0 l 408 356 l 225 356 q 211 343 211 356 l 211 19 q 192 0 211 0 m 225 440 l 435 440 q 554 560 554 440 l 554 683 q 435 804 554 804 l 225 804 q 211 792 211 804 l 211 453 q 225 440 211 440 z "},"ŕ":{"ha":449,"x_min":96,"x_max":419,"o":"m 294 976 l 378 976 q 390 971 388 976 q 388 957 393 965 l 267 811 q 239 797 253 797 l 193 797 q 185 817 174 797 l 264 958 q 294 976 276 976 m 178 0 l 115 0 q 96 19 96 0 l 96 689 q 115 708 96 708 l 178 708 q 197 689 197 708 l 197 633 l 203 633 q 256 686 217 664 q 347 708 294 708 l 401 708 q 419 689 419 708 l 419 638 q 415 623 419 628 q 401 619 411 618 l 326 619 q 231 582 264 619 q 197 479 197 544 l 197 19 q 178 0 197 0 z "},"Ŗ":{"ha":746,"x_min":110,"x_max":675,"o":"m 428 -62 l 428 -128 q 408 -208 428 -165 l 361 -319 q 346 -331 354 -331 q 331 -314 331 -331 l 331 -64 q 349 -44 331 -44 l 410 -44 q 428 -62 428 -44 m 192 0 l 129 0 q 110 19 110 0 l 110 874 q 129 893 110 893 l 449 893 q 600 838 544 893 q 656 688 656 783 l 656 561 q 618 433 656 483 q 514 365 581 382 l 514 360 l 675 22 q 661 0 688 0 l 599 0 q 564 19 575 0 l 408 356 l 225 356 q 211 343 211 356 l 211 19 q 192 0 211 0 m 225 440 l 435 440 q 554 560 554 440 l 554 683 q 435 804 554 804 l 225 804 q 211 792 211 804 l 211 453 q 225 440 211 440 z "},"ŗ":{"ha":449,"x_min":96,"x_max":419,"o":"m 196 -62 l 196 -128 q 175 -208 196 -167 l 129 -319 q 114 -331 122 -331 q 99 -314 99 -331 l 99 -64 q 117 -44 99 -44 l 178 -44 q 196 -62 196 -44 m 178 0 l 115 0 q 96 19 96 0 l 96 689 q 115 708 96 708 l 178 708 q 197 689 197 708 l 197 633 l 203 633 q 256 686 217 664 q 347 708 294 708 l 401 708 q 419 689 419 708 l 419 638 q 415 623 419 628 q 401 619 411 618 l 326 619 q 231 582 264 619 q 197 479 197 544 l 197 19 q 178 0 197 0 z "},"Ř":{"ha":746,"x_min":110,"x_max":675,"o":"m 332 982 q 304 996 314 982 l 215 1144 q 224 1161 206 1161 l 271 1161 q 290 1150 285 1161 l 356 1028 l 421 1150 q 440 1161 426 1161 l 489 1161 q 496 1144 506 1161 l 408 996 q 379 982 399 982 l 332 982 m 192 0 l 129 0 q 110 19 110 0 l 110 874 q 129 893 110 893 l 449 893 q 600 838 544 893 q 656 688 656 783 l 656 561 q 618 433 656 483 q 514 365 581 382 l 514 360 l 675 22 q 661 0 688 0 l 599 0 q 564 19 575 0 l 408 356 l 225 356 q 211 343 211 356 l 211 19 q 192 0 211 0 m 225 440 l 435 440 q 554 560 554 440 l 554 683 q 435 804 554 804 l 225 804 q 211 792 211 804 l 211 453 q 225 440 211 440 z "},"ř":{"ha":449,"x_min":96,"x_max":419,"o":"m 225 797 q 197 811 207 797 l 108 960 q 117 976 99 976 l 164 976 q 183 965 178 976 l 249 843 l 314 965 q 333 976 319 976 l 381 976 q 389 960 399 976 l 300 811 q 272 797 290 797 l 225 797 m 178 0 l 115 0 q 96 19 96 0 l 96 689 q 115 708 96 708 l 178 708 q 197 689 197 708 l 197 633 l 203 633 q 256 686 217 664 q 347 708 294 708 l 401 708 q 419 689 419 708 l 419 638 q 415 623 419 628 q 401 619 411 618 l 326 619 q 231 582 264 619 q 197 479 197 544 l 197 19 q 178 0 197 0 z "},"Ś":{"ha":771,"x_min":100,"x_max":671,"o":"m 100 206 l 100 250 q 119 269 100 269 l 182 269 q 201 250 201 269 l 201 214 q 325 89 201 89 l 447 89 q 571 217 571 89 l 571 264 q 406 394 571 364 q 267 424 336 407 q 149 488 197 440 q 100 619 100 536 l 100 688 q 155 838 100 783 q 306 893 210 893 l 460 893 q 610 838 554 893 q 665 688 665 783 l 665 653 q 647 632 665 632 l 583 632 q 565 653 565 632 l 565 678 q 442 804 565 804 l 324 804 q 200 672 200 804 l 200 617 q 293 519 200 546 q 385 499 335 508 q 485 476 435 490 q 578 440 536 461 q 645 374 619 418 q 671 268 671 331 l 671 206 q 615 55 671 110 q 465 0 560 0 l 306 0 q 156 55 211 0 q 100 206 100 110 m 446 1161 l 529 1161 q 542 1156 539 1161 q 539 1142 544 1150 l 417 996 q 390 982 406 982 l 344 982 q 335 1001 324 982 l 415 1143 q 446 1161 425 1161 z "},"ś":{"ha":597,"x_min":64,"x_max":535,"o":"m 346 976 l 429 976 q 438 957 450 976 l 317 811 q 289 797 306 797 l 243 797 q 235 817 224 797 l 315 958 q 346 976 325 976 m 336 0 l 89 0 q 69 19 69 0 l 69 68 q 89 86 69 86 l 322 86 q 431 167 431 86 l 431 193 q 360 294 431 267 l 196 364 q 94 433 125 393 q 64 538 64 472 q 251 708 64 708 l 479 708 q 499 689 499 708 l 499 640 q 479 622 499 622 l 269 622 q 194 601 219 622 q 168 553 168 581 l 168 529 q 247 440 168 471 l 411 367 q 509 293 483 339 q 535 167 535 247 q 336 0 535 0 z "},"Ŝ":{"ha":771,"x_min":100,"x_max":671,"o":"m 100 206 l 100 250 q 119 269 100 269 l 182 269 q 201 250 201 269 l 201 214 q 325 89 201 89 l 447 89 q 571 217 571 89 l 571 264 q 406 394 571 364 q 267 424 336 407 q 149 488 197 440 q 100 619 100 536 l 100 688 q 155 838 100 783 q 306 893 210 893 l 460 893 q 610 838 554 893 q 665 688 665 783 l 665 653 q 647 632 665 632 l 583 632 q 565 653 565 632 l 565 678 q 442 804 565 804 l 324 804 q 200 672 200 804 l 200 617 q 293 519 200 546 q 385 499 335 508 q 485 476 435 490 q 578 440 536 461 q 645 374 619 418 q 671 268 671 331 l 671 206 q 615 55 671 110 q 465 0 560 0 l 306 0 q 156 55 211 0 q 100 206 100 110 m 518 982 l 471 982 q 451 993 457 982 l 386 1115 l 319 993 q 301 982 315 982 l 254 982 q 246 999 236 982 l 333 1147 q 363 1161 343 1161 l 410 1161 q 438 1147 428 1161 l 526 999 q 518 982 536 982 z "},"ŝ":{"ha":597,"x_min":64,"x_max":535,"o":"m 426 797 l 379 797 q 360 808 365 797 l 294 931 l 229 808 q 210 797 224 797 l 163 797 q 154 814 144 797 l 242 963 q 271 976 251 976 l 318 976 q 346 963 336 976 l 435 814 q 426 797 444 797 m 336 0 l 89 0 q 69 19 69 0 l 69 68 q 89 86 69 86 l 322 86 q 431 167 431 86 l 431 193 q 360 294 431 267 l 196 364 q 94 433 125 393 q 64 538 64 472 q 251 708 64 708 l 479 708 q 499 689 499 708 l 499 640 q 479 622 499 622 l 269 622 q 194 601 219 622 q 168 553 168 581 l 168 529 q 247 440 168 471 l 411 367 q 509 293 483 339 q 535 167 535 247 q 336 0 535 0 z "},"Ş":{"ha":771,"x_min":100,"x_max":671,"o":"m 200 672 l 200 617 q 293 519 200 546 q 385 499 335 508 q 485 476 435 490 q 578 440 536 461 q 645 374 619 418 q 671 268 671 331 l 671 206 q 615 55 671 110 q 465 0 560 0 l 454 0 l 399 -60 l 399 -65 q 504 -154 504 -65 l 504 -174 q 386 -261 504 -261 l 343 -261 q 325 -243 325 -261 l 325 -224 q 343 -206 325 -206 l 376 -206 q 432 -197 417 -206 q 447 -165 447 -189 l 447 -162 q 432 -128 447 -137 q 376 -119 417 -119 l 354 -119 q 322 -99 329 -119 q 331 -58 314 -78 l 382 0 l 306 0 q 156 55 211 0 q 100 206 100 110 l 100 250 q 119 269 100 269 l 182 269 q 201 250 201 269 l 201 214 q 325 89 201 89 l 447 89 q 571 217 571 89 l 571 264 q 406 394 571 364 q 267 424 336 407 q 149 488 197 440 q 100 619 100 536 l 100 688 q 155 838 100 783 q 306 893 210 893 l 460 893 q 610 838 554 893 q 665 688 665 783 l 665 653 q 647 632 665 632 l 583 632 q 565 653 565 632 l 565 678 q 442 804 565 804 l 324 804 q 200 672 200 804 z "},"ş":{"ha":597,"x_min":64,"x_max":535,"o":"m 301 -65 q 408 -154 408 -65 l 408 -174 q 290 -261 408 -261 l 247 -261 q 229 -243 229 -261 l 229 -224 q 247 -206 229 -206 l 281 -206 q 335 -197 319 -206 q 350 -165 350 -187 l 350 -162 q 335 -128 350 -137 q 281 -119 321 -119 l 258 -119 q 225 -99 233 -119 q 233 -58 217 -78 l 285 0 l 89 0 q 69 19 69 0 l 69 68 q 89 86 69 86 l 322 86 q 431 167 431 86 l 431 193 q 360 294 431 267 l 196 364 q 94 433 125 393 q 64 538 64 472 q 251 708 64 708 l 479 708 q 499 689 499 708 l 499 640 q 479 622 499 622 l 269 622 q 194 601 219 622 q 168 553 168 581 l 168 529 q 247 440 168 471 l 411 367 q 509 293 483 339 q 535 169 535 247 q 358 0 535 11 l 301 -60 l 301 -65 z "},"Š":{"ha":771,"x_min":100,"x_max":671,"o":"m 100 206 l 100 250 q 119 269 100 269 l 182 269 q 201 250 201 269 l 201 214 q 325 89 201 89 l 447 89 q 571 217 571 89 l 571 264 q 406 394 571 364 q 267 424 336 407 q 149 488 197 440 q 100 619 100 536 l 100 688 q 155 838 100 783 q 306 893 210 893 l 460 893 q 610 838 554 893 q 665 688 665 783 l 665 653 q 647 632 665 632 l 583 632 q 565 653 565 632 l 565 678 q 442 804 565 804 l 324 804 q 200 672 200 804 l 200 617 q 293 519 200 546 q 385 499 335 508 q 485 476 435 490 q 578 440 536 461 q 645 374 619 418 q 671 268 671 331 l 671 206 q 615 55 671 110 q 465 0 560 0 l 306 0 q 156 55 211 0 q 100 206 100 110 m 406 982 l 357 982 q 329 996 339 982 l 242 1144 q 249 1161 232 1161 l 296 1161 q 315 1150 310 1161 l 381 1028 l 447 1150 q 467 1161 451 1161 l 514 1161 q 521 1144 531 1161 l 433 996 q 406 982 424 982 z "},"š":{"ha":597,"x_min":64,"x_max":535,"o":"m 271 797 q 242 811 251 797 l 154 960 q 163 976 144 976 l 210 976 q 229 965 224 976 l 294 843 l 360 965 q 379 976 365 976 l 426 976 q 435 960 444 976 l 346 811 q 318 797 336 797 l 271 797 m 336 0 l 89 0 q 69 19 69 0 l 69 68 q 89 86 69 86 l 322 86 q 431 167 431 86 l 431 193 q 360 294 431 267 l 196 364 q 94 433 125 393 q 64 538 64 472 q 251 708 64 708 l 479 708 q 499 689 499 708 l 499 640 q 479 622 499 622 l 269 622 q 194 601 219 622 q 168 553 168 581 l 168 529 q 247 440 168 471 l 411 367 q 509 293 483 339 q 535 167 535 247 q 336 0 535 0 z "},"Ţ":{"ha":593,"x_min":22,"x_max":571,"o":"m 344 -62 l 344 -128 q 325 -208 344 -165 l 279 -319 q 263 -331 272 -331 q 249 -314 249 -331 l 249 -64 q 267 -44 249 -44 l 328 -44 q 344 -62 344 -44 m 328 0 l 265 0 q 246 19 246 0 l 246 792 q 232 804 246 804 l 43 804 q 22 824 22 804 l 22 874 q 43 893 22 893 l 550 893 q 571 874 571 893 l 571 824 q 550 804 571 804 l 361 804 q 347 792 347 804 l 347 19 q 328 0 347 0 z "},"ţ":{"ha":485,"x_min":26,"x_max":433,"o":"m 336 -62 l 336 -128 q 315 -208 336 -162 l 269 -319 q 253 -331 263 -331 q 239 -314 239 -331 l 239 -64 q 257 -44 239 -44 l 318 -44 q 336 -62 336 -44 m 122 619 l 46 619 q 26 638 26 619 l 26 689 q 46 708 26 708 l 122 708 q 136 721 136 708 l 136 840 q 156 860 136 860 l 218 860 q 236 840 236 860 l 236 721 q 251 708 236 708 l 399 708 q 419 689 419 708 l 419 638 q 399 619 419 619 l 251 619 q 236 607 236 619 l 236 207 q 358 89 236 89 l 413 89 q 433 69 433 89 l 433 18 q 413 0 433 0 l 346 0 q 193 53 250 0 q 136 203 136 107 l 136 607 q 122 619 136 619 z "},"Ť":{"ha":593,"x_min":22,"x_max":571,"o":"m 275 982 q 246 996 256 982 l 158 1144 q 167 1161 149 1161 l 213 1161 q 232 1150 228 1161 l 299 1028 l 364 1150 q 383 1161 369 1161 l 431 1161 q 439 1144 449 1161 l 350 996 q 322 982 340 982 l 275 982 m 328 0 l 265 0 q 246 19 246 0 l 246 792 q 232 804 246 804 l 43 804 q 22 824 22 804 l 22 874 q 43 893 22 893 l 550 893 q 571 874 571 893 l 571 824 q 550 804 571 804 l 361 804 q 347 792 347 804 l 347 19 q 328 0 347 0 z "},"ť":{"ha":579,"x_min":26,"x_max":571,"o":"m 571 875 l 571 794 q 550 704 571 767 l 504 572 q 486 563 499 563 q 474 579 474 563 l 474 874 q 492 893 474 893 l 553 893 q 571 875 571 893 m 122 619 l 46 619 q 26 638 26 619 l 26 689 q 46 708 26 708 l 122 708 q 136 721 136 708 l 136 840 q 156 860 136 860 l 218 860 q 236 840 236 860 l 236 721 q 251 708 236 708 l 399 708 q 419 689 419 708 l 419 638 q 399 619 419 619 l 251 619 q 236 607 236 619 l 236 207 q 358 89 236 89 l 413 89 q 433 69 433 89 l 433 18 q 413 0 433 0 l 346 0 q 193 53 250 0 q 136 203 136 107 l 136 607 q 122 619 136 619 z "},"Ŧ":{"ha":699,"x_min":33,"x_max":590,"o":"m 343 0 l 281 0 q 261 19 261 0 l 261 421 q 247 433 261 433 l 129 433 q 110 453 110 433 l 110 493 q 129 513 110 513 l 247 513 q 261 526 261 513 l 261 792 q 247 804 261 804 l 53 804 q 33 824 33 804 l 33 874 q 53 893 33 893 l 571 893 q 590 874 590 893 l 590 824 q 571 804 590 804 l 376 804 q 363 792 363 804 l 363 526 q 376 513 363 513 l 503 513 q 522 493 522 513 l 522 453 q 503 433 522 433 l 376 433 q 363 421 363 433 l 363 19 q 343 0 363 0 z "},"ŧ":{"ha":493,"x_min":26,"x_max":440,"o":"m 421 0 l 350 0 q 197 53 254 0 q 139 203 139 107 l 139 343 q 125 357 139 357 l 46 357 q 26 375 26 357 l 26 417 q 46 436 26 436 l 125 436 q 139 449 139 436 l 139 607 q 125 619 139 619 l 46 619 q 26 638 26 619 l 26 689 q 46 708 26 708 l 125 708 q 139 721 139 708 l 139 840 q 158 860 139 860 l 221 860 q 240 840 240 860 l 240 721 q 254 708 240 708 l 407 708 q 426 689 426 708 l 426 638 q 407 619 426 619 l 254 619 q 240 607 240 619 l 240 449 q 254 436 240 436 l 407 436 q 426 417 426 436 l 426 375 q 407 357 426 357 l 254 357 q 240 343 240 357 l 240 207 q 363 89 240 89 l 421 89 q 440 69 440 89 l 440 18 q 421 0 440 0 z "},"Ũ":{"ha":769,"x_min":103,"x_max":667,"o":"m 403 1042 q 395 1022 403 1042 q 367 989 386 1003 q 308 975 349 975 q 232 1082 232 975 l 232 1136 q 244 1150 232 1150 l 274 1150 q 286 1136 286 1150 l 286 1100 q 294 1047 286 1061 q 318 1032 301 1032 q 344 1043 335 1032 q 371 1092 353 1054 q 406 1143 389 1131 q 461 1156 422 1156 q 539 1047 539 1156 l 539 993 q 526 978 539 978 l 497 978 q 483 993 483 978 l 483 1031 q 476 1084 483 1071 q 451 1097 469 1097 q 427 1089 433 1097 q 403 1042 421 1081 m 585 893 l 647 893 q 667 875 667 893 l 667 206 q 613 54 667 108 q 463 0 558 0 l 308 0 q 158 54 213 0 q 103 206 103 108 l 103 874 q 122 893 103 893 l 185 893 q 204 874 204 893 l 204 210 q 319 89 204 89 l 450 89 q 567 210 567 89 l 567 874 q 585 893 567 893 z "},"ũ":{"ha":711,"x_min":89,"x_max":615,"o":"m 193 907 l 193 960 q 206 975 193 975 l 235 975 q 247 960 247 975 l 247 924 q 254 871 247 885 q 278 857 261 857 q 305 868 296 857 q 331 917 314 879 q 365 967 349 954 q 422 979 382 979 q 499 872 499 979 l 499 817 q 488 801 499 801 l 458 801 q 444 817 444 801 l 444 854 q 438 908 444 894 q 416 922 431 922 q 397 921 401 922 q 385 911 392 919 q 376 897 379 903 q 360 858 374 890 q 328 813 347 826 q 269 800 310 800 q 193 907 193 800 m 367 0 l 289 0 q 142 54 194 0 q 89 206 89 108 l 89 689 q 108 708 89 708 l 171 708 q 190 689 190 708 l 190 210 q 306 89 190 89 l 385 89 q 481 122 447 89 q 514 217 514 156 l 514 689 q 533 708 514 708 l 596 708 q 615 689 615 708 l 615 19 q 596 0 615 0 l 533 0 q 514 19 514 0 l 514 74 l 508 74 q 367 0 474 0 z "},"Ū":{"ha":769,"x_min":103,"x_max":667,"o":"m 525 1036 l 246 1036 q 226 1056 226 1036 l 226 1092 q 246 1111 226 1111 l 525 1111 q 544 1092 544 1111 l 544 1056 q 525 1036 544 1036 m 585 893 l 647 893 q 667 875 667 893 l 667 206 q 613 54 667 108 q 463 0 558 0 l 308 0 q 158 54 213 0 q 103 206 103 108 l 103 874 q 122 893 103 893 l 185 893 q 204 874 204 893 l 204 210 q 319 89 204 89 l 450 89 q 567 210 567 89 l 567 874 q 585 893 567 893 z "},"ū":{"ha":711,"x_min":89,"x_max":615,"o":"m 492 851 l 213 851 q 193 871 193 851 l 193 904 q 213 924 193 924 l 492 924 q 511 904 511 924 l 511 871 q 492 851 511 851 m 367 0 l 289 0 q 142 54 194 0 q 89 206 89 108 l 89 689 q 108 708 89 708 l 171 708 q 190 689 190 708 l 190 210 q 306 89 190 89 l 385 89 q 481 122 447 89 q 514 217 514 156 l 514 689 q 533 708 514 708 l 596 708 q 615 689 615 708 l 615 19 q 596 0 615 0 l 533 0 q 514 19 514 0 l 514 74 l 508 74 q 367 0 474 0 z "},"Ŭ":{"ha":769,"x_min":103,"x_max":667,"o":"m 240 1146 q 256 1161 240 1161 l 294 1161 q 308 1146 308 1161 l 308 1132 q 325 1059 308 1081 q 382 1038 342 1038 l 389 1038 q 448 1059 431 1038 q 465 1132 465 1081 l 465 1146 q 479 1160 465 1160 l 515 1160 q 531 1146 531 1160 l 531 1129 q 397 982 531 982 l 374 982 q 240 1129 240 982 l 240 1146 m 585 893 l 647 893 q 667 875 667 893 l 667 206 q 613 54 667 108 q 463 0 558 0 l 308 0 q 158 54 213 0 q 103 206 103 108 l 103 874 q 122 893 103 893 l 185 893 q 204 874 204 893 l 204 210 q 319 89 204 89 l 450 89 q 567 210 567 89 l 567 874 q 585 893 567 893 z "},"ŭ":{"ha":711,"x_min":89,"x_max":615,"o":"m 367 0 l 289 0 q 142 54 194 0 q 89 206 89 108 l 89 689 q 108 708 89 708 l 171 708 q 190 689 190 708 l 190 210 q 306 89 190 89 l 385 89 q 481 122 447 89 q 514 217 514 156 l 514 689 q 533 708 514 708 l 596 708 q 615 689 615 708 l 615 19 q 596 0 615 0 l 533 0 q 514 19 514 0 l 514 74 l 508 74 q 367 0 474 0 m 208 936 l 208 953 q 222 968 208 968 l 261 968 q 275 953 275 968 l 275 938 q 292 865 275 886 q 349 844 308 844 l 356 844 q 415 865 397 844 q 432 938 432 886 l 432 951 q 447 967 432 967 l 483 967 q 497 951 497 967 l 497 936 q 364 789 497 789 l 340 789 q 208 936 208 789 z "},"Ů":{"ha":769,"x_min":103,"x_max":667,"o":"m 406 968 l 363 968 q 295 993 319 968 q 271 1063 271 1018 l 271 1119 q 295 1188 271 1164 q 363 1211 319 1211 l 406 1211 q 475 1187 450 1211 q 500 1119 500 1163 l 500 1063 q 475 993 500 1018 q 406 968 450 968 m 375 1014 l 393 1014 q 447 1074 447 1014 l 447 1106 q 393 1165 447 1165 l 375 1165 q 321 1106 321 1165 l 321 1074 q 375 1014 321 1014 m 585 893 l 647 893 q 667 875 667 893 l 667 206 q 613 54 667 108 q 463 0 558 0 l 308 0 q 158 54 213 0 q 103 206 103 108 l 103 874 q 122 893 103 893 l 185 893 q 204 874 204 893 l 204 210 q 319 89 204 89 l 450 89 q 567 210 567 89 l 567 874 q 585 893 567 893 z "},"ů":{"ha":711,"x_min":89,"x_max":615,"o":"m 367 0 l 289 0 q 142 54 194 0 q 89 206 89 108 l 89 689 q 108 708 89 708 l 171 708 q 190 689 190 708 l 190 210 q 306 89 190 89 l 385 89 q 481 122 447 89 q 514 217 514 156 l 514 689 q 533 708 514 708 l 596 708 q 615 689 615 708 l 615 19 q 596 0 615 0 l 533 0 q 514 19 514 0 l 514 74 l 508 74 q 367 0 474 0 m 267 915 l 267 865 q 279 824 267 835 q 322 813 292 813 l 343 813 q 386 824 374 813 q 399 865 399 835 l 399 915 q 386 957 399 946 q 343 968 374 968 l 322 968 q 279 957 292 968 q 267 915 267 946 m 221 854 l 221 929 q 310 1010 221 1010 l 356 1010 q 446 929 446 1010 l 446 854 q 356 772 446 772 l 310 772 q 221 854 221 772 z "},"Ű":{"ha":769,"x_min":103,"x_max":667,"o":"m 364 1161 l 421 1161 q 429 1142 444 1161 l 322 996 q 297 982 311 982 l 264 982 q 256 1001 247 982 l 335 1143 q 364 1161 344 1161 m 547 1161 l 604 1161 q 614 1142 626 1161 l 506 996 q 481 982 494 982 l 449 982 q 439 1001 428 982 l 518 1143 q 547 1161 528 1161 m 585 893 l 647 893 q 667 875 667 893 l 667 206 q 613 54 667 108 q 463 0 558 0 l 308 0 q 158 54 213 0 q 103 206 103 108 l 103 874 q 122 893 103 893 l 185 893 q 204 874 204 893 l 204 210 q 319 89 204 89 l 450 89 q 567 210 567 89 l 567 874 q 585 893 567 893 z "},"ű":{"ha":711,"x_min":89,"x_max":615,"o":"m 344 976 l 401 976 q 410 957 425 976 l 303 811 q 278 797 292 797 l 244 797 q 236 817 228 797 l 315 958 q 344 976 325 976 m 529 976 l 585 976 q 594 957 607 976 l 488 811 q 461 797 474 797 l 429 797 q 419 817 408 797 l 499 958 q 529 976 508 976 m 367 0 l 289 0 q 142 54 194 0 q 89 206 89 108 l 89 689 q 108 708 89 708 l 171 708 q 190 689 190 708 l 190 210 q 306 89 190 89 l 385 89 q 481 122 447 89 q 514 217 514 156 l 514 689 q 533 708 514 708 l 596 708 q 615 689 615 708 l 615 19 q 596 0 615 0 l 533 0 q 514 19 514 0 l 514 74 l 508 74 q 367 0 474 0 z "},"Ų":{"ha":769,"x_min":103,"x_max":667,"o":"m 585 893 l 647 893 q 667 875 667 893 l 667 206 q 613 54 667 108 q 463 0 558 0 l 440 0 l 372 -93 l 428 -93 q 457 -97 450 -93 q 464 -112 464 -101 q 428 -142 464 -131 q 355 -154 393 -154 q 307 -135 317 -154 q 315 -93 297 -115 l 381 0 l 308 0 q 158 54 213 0 q 103 206 103 108 l 103 874 q 122 893 103 893 l 185 893 q 204 874 204 893 l 204 210 q 319 89 204 89 l 450 89 q 567 210 567 89 l 567 874 q 585 893 567 893 z "},"ų":{"ha":697,"x_min":89,"x_max":615,"o":"m 533 708 l 596 708 q 615 689 615 708 l 615 19 q 596 0 615 0 l 554 0 q 489 -96 483 -96 q 546 -93 526 -96 q 572 -97 565 -93 q 576 -111 579 -100 q 541 -144 575 -131 q 472 -158 507 -158 q 431 -131 438 -158 q 442 -83 424 -104 l 514 22 l 514 74 l 508 74 q 367 0 474 0 l 289 0 q 142 54 194 0 q 89 206 89 108 l 89 689 q 108 708 89 708 l 171 708 q 190 689 190 708 l 190 210 q 306 89 190 89 l 385 89 q 481 122 447 89 q 514 217 514 156 l 514 689 q 533 708 514 708 z "},"Ŵ":{"ha":1108,"x_min":38,"x_max":1071,"o":"m 689 982 l 642 982 q 622 993 628 982 l 557 1115 l 492 993 q 472 982 486 982 l 425 982 q 417 999 407 982 l 506 1147 q 533 1161 515 1161 l 581 1161 q 608 1147 599 1161 l 696 999 q 689 982 706 982 m 346 0 l 239 0 q 215 19 219 0 l 38 874 q 56 893 33 893 l 131 893 q 153 874 151 893 l 293 108 l 301 108 l 489 875 q 511 893 493 893 l 594 893 q 617 875 613 893 l 807 108 l 815 108 l 954 872 q 978 893 958 893 l 1053 893 q 1071 872 1075 893 l 892 19 q 869 0 888 0 l 763 0 q 739 19 743 0 l 557 765 l 551 765 l 368 19 q 346 0 364 0 z "},"ŵ":{"ha":953,"x_min":29,"x_max":924,"o":"m 608 797 l 561 797 q 542 808 547 797 l 476 931 l 410 808 q 390 797 406 797 l 344 797 q 336 814 326 797 l 424 963 q 453 976 433 976 l 500 976 q 528 963 518 976 l 615 814 q 608 797 625 797 m 315 0 l 231 0 q 207 19 211 0 l 29 689 q 43 708 25 708 l 114 708 q 136 689 132 708 l 271 122 l 279 122 l 422 689 q 444 708 426 708 l 508 708 q 533 689 528 708 l 672 122 l 681 122 l 817 689 q 839 708 821 708 l 910 708 q 924 689 928 708 l 746 19 q 722 0 742 0 l 636 0 q 614 19 618 0 l 479 572 l 472 572 l 339 19 q 315 0 335 0 z "},"Ŷ":{"ha":694,"x_min":32,"x_max":663,"o":"m 476 982 l 429 982 q 410 993 415 982 l 344 1115 l 279 993 q 260 982 274 982 l 213 982 q 206 999 196 982 l 293 1147 q 321 1161 303 1161 l 368 1161 q 396 1147 386 1161 l 485 999 q 476 982 494 982 m 378 0 l 315 0 q 296 19 296 0 l 296 335 l 32 872 q 32 888 28 882 q 44 893 36 893 l 122 893 q 146 874 138 893 l 344 453 l 351 453 l 549 874 q 571 893 554 893 l 650 893 q 663 872 674 893 l 397 335 l 397 19 q 378 0 397 0 z "},"ŷ":{"ha":643,"x_min":36,"x_max":607,"o":"m 464 797 l 417 797 q 397 808 403 797 l 332 931 l 265 808 q 246 797 261 797 l 200 797 q 192 814 182 797 l 279 963 q 307 976 289 976 l 356 976 q 383 963 374 976 l 471 814 q 464 797 481 797 m 153 -218 l 92 -218 q 72 -199 72 -218 l 72 -147 q 92 -128 72 -128 l 126 -128 q 251 -78 215 -128 q 304 38 281 -37 l 264 38 q 240 57 247 38 l 36 689 q 50 708 31 708 l 117 708 q 140 689 135 708 l 319 117 l 325 117 l 504 689 q 526 708 508 708 l 590 708 q 607 688 614 708 l 400 28 q 312 -154 365 -90 q 153 -218 258 -218 z "},"Ÿ":{"ha":694,"x_min":32,"x_max":663,"o":"m 181 1001 l 181 1142 q 199 1161 181 1161 l 258 1161 q 275 1143 275 1161 l 275 1001 q 258 982 275 982 l 199 982 q 181 1001 181 982 m 418 1001 l 418 1142 q 436 1161 418 1161 l 496 1161 q 513 1143 513 1161 l 513 1001 q 496 982 513 982 l 436 982 q 418 1001 418 982 m 378 0 l 315 0 q 296 19 296 0 l 296 335 l 32 872 q 32 888 28 882 q 44 893 36 893 l 122 893 q 146 874 138 893 l 344 453 l 351 453 l 549 874 q 571 893 554 893 l 650 893 q 663 872 674 893 l 397 335 l 397 19 q 378 0 397 0 z "},"Ź":{"ha":685,"x_min":61,"x_max":624,"o":"m 438 1161 l 521 1161 q 533 1156 531 1161 q 531 1142 536 1150 l 408 996 q 382 982 397 982 l 336 982 q 326 1001 318 982 l 407 1143 q 438 1161 417 1161 m 61 19 l 61 69 q 69 106 61 94 l 500 793 l 500 799 l 99 799 q 79 818 79 799 l 79 874 q 99 893 79 893 l 590 893 q 610 874 610 893 l 610 807 q 599 768 610 785 l 179 100 l 179 94 l 604 94 q 624 76 624 94 l 624 21 q 604 0 624 0 l 81 0 q 61 19 61 0 z "},"ź":{"ha":581,"x_min":46,"x_max":535,"o":"m 389 976 l 474 976 q 485 971 482 976 q 482 957 488 965 l 361 811 q 332 797 347 797 l 288 797 q 279 817 268 797 l 360 958 q 389 976 368 976 m 46 19 l 46 46 q 60 89 46 71 l 403 614 l 403 619 l 76 619 q 57 640 57 619 l 57 689 q 76 708 57 708 l 503 708 q 524 689 524 708 l 524 643 q 511 606 524 618 l 179 94 l 179 89 l 515 89 q 535 68 535 89 l 535 19 q 515 0 535 0 l 67 0 q 46 19 46 0 z "},"Ż":{"ha":685,"x_min":61,"x_max":624,"o":"m 322 1007 l 322 1142 q 340 1161 322 1161 l 404 1161 q 422 1142 422 1161 l 422 1007 q 404 988 422 988 l 340 988 q 322 1007 322 988 m 61 19 l 61 69 q 69 106 61 94 l 500 793 l 500 799 l 99 799 q 79 818 79 799 l 79 874 q 99 893 79 893 l 590 893 q 610 874 610 893 l 610 807 q 599 768 610 785 l 179 100 l 179 94 l 604 94 q 624 76 624 94 l 624 21 q 604 0 624 0 l 81 0 q 61 19 61 0 z "},"ż":{"ha":581,"x_min":46,"x_max":535,"o":"m 268 819 l 268 954 q 286 974 268 974 l 350 974 q 369 956 369 974 l 369 819 q 350 800 369 800 l 286 800 q 268 819 268 800 m 46 19 l 46 46 q 60 89 46 71 l 403 614 l 403 619 l 76 619 q 57 640 57 619 l 57 689 q 76 708 57 708 l 503 708 q 524 689 524 708 l 524 643 q 511 606 524 618 l 179 94 l 179 89 l 515 89 q 535 68 535 89 l 535 19 q 515 0 535 0 l 67 0 q 46 19 46 0 z "},"Ž":{"ha":685,"x_min":61,"x_max":624,"o":"m 343 982 q 315 996 325 982 l 226 1144 q 235 1161 217 1161 l 282 1161 q 301 1150 296 1161 l 367 1028 l 432 1150 q 451 1161 438 1161 l 499 1161 q 507 1144 517 1161 l 418 996 q 390 982 408 982 l 343 982 m 61 19 l 61 69 q 69 106 61 94 l 500 793 l 500 799 l 99 799 q 79 818 79 799 l 79 874 q 99 893 79 893 l 590 893 q 610 874 610 893 l 610 807 q 599 768 610 785 l 179 100 l 179 94 l 604 94 q 624 76 624 94 l 624 21 q 604 0 624 0 l 81 0 q 61 19 61 0 z "},"ž":{"ha":581,"x_min":46,"x_max":535,"o":"m 294 797 q 267 811 276 797 l 179 960 q 186 976 169 976 l 233 976 q 253 965 247 976 l 318 843 l 385 965 q 404 976 389 976 l 450 976 q 458 960 468 976 l 371 811 q 342 797 361 797 l 294 797 m 46 19 l 46 46 q 60 89 46 71 l 403 614 l 403 619 l 76 619 q 57 640 57 619 l 57 689 q 76 708 57 708 l 503 708 q 524 689 524 708 l 524 643 q 511 606 524 618 l 179 94 l 179 89 l 515 89 q 535 68 535 89 l 535 19 q 515 0 535 0 l 67 0 q 46 19 46 0 z "},"ƒ":{"ha":700,"x_min":22,"x_max":676,"o":"m 99 -185 l 46 -185 q 22 -167 22 -185 l 22 -115 q 44 -96 22 -96 l 94 -96 q 221 24 196 -96 l 314 454 q 301 469 317 469 l 203 469 q 181 489 181 469 l 181 539 q 201 557 181 557 l 321 557 q 339 571 335 557 l 382 772 q 460 926 404 876 q 610 976 515 976 l 654 976 q 676 958 676 976 l 676 907 q 656 888 676 888 l 608 888 q 524 858 554 888 q 482 768 494 828 l 439 571 q 450 557 438 557 l 574 557 q 597 539 597 557 l 597 489 q 579 469 597 469 l 432 469 q 415 457 417 469 l 319 8 q 99 -185 278 -185 z "},"Ǽ":{"ha":1076,"x_min":6,"x_max":994,"o":"m 675 1161 l 758 1161 q 771 1156 768 1161 q 768 1142 774 1150 l 647 996 q 619 982 633 982 l 574 982 q 565 1001 554 982 l 646 1143 q 675 1161 654 1161 m 88 0 l 17 0 q 6 21 -6 0 l 450 874 q 482 893 461 893 l 976 893 q 994 874 994 893 l 994 824 q 976 804 994 804 l 636 804 q 621 792 621 804 l 621 511 q 636 499 621 499 l 932 499 q 953 479 953 499 l 953 429 q 932 410 953 410 l 636 410 q 621 397 621 410 l 621 101 q 636 89 621 89 l 976 89 q 994 69 994 89 l 994 19 q 976 0 994 0 l 539 0 q 521 19 521 0 l 521 224 l 221 224 l 113 19 q 88 0 104 0 m 521 314 l 521 792 l 515 792 l 263 314 l 521 314 z "},"ǽ":{"ha":1089,"x_min":79,"x_max":1008,"o":"m 631 976 l 714 976 q 726 971 724 976 q 724 957 729 965 l 603 811 q 574 797 589 797 l 529 797 q 521 817 510 797 l 601 958 q 631 976 610 976 m 600 269 l 600 210 q 717 89 600 89 l 989 89 q 1008 69 1008 89 l 1008 18 q 989 0 1008 0 l 704 0 q 535 89 582 0 q 351 0 490 0 l 285 0 q 135 53 190 0 q 79 201 79 107 l 79 229 q 133 378 79 325 q 285 431 188 431 l 488 431 q 499 442 499 431 l 499 500 q 383 619 499 619 l 165 619 q 146 639 146 619 l 146 689 q 165 708 146 708 l 381 708 q 551 621 507 708 q 719 708 594 708 l 804 708 q 954 654 900 708 q 1008 503 1008 600 l 1008 303 q 989 282 1008 282 l 614 282 q 600 269 600 282 m 918 369 l 918 499 q 801 619 918 619 l 724 619 q 600 503 600 619 l 600 369 q 614 356 600 356 l 904 356 q 918 369 918 356 m 500 211 l 500 340 q 486 353 500 353 l 297 353 q 175 232 175 353 l 175 207 q 297 85 175 85 l 371 85 q 500 211 500 85 z "},"Ǿ":{"ha":783,"x_min":69,"x_max":715,"o":"m 682 688 l 682 206 q 627 54 682 108 q 478 0 572 0 l 307 0 q 153 57 210 0 l 121 13 q 92 7 108 -4 l 72 22 q 69 51 57 33 l 117 117 q 101 206 101 158 l 101 688 q 156 839 101 785 q 307 893 211 893 l 478 893 q 631 835 576 893 l 663 879 q 692 885 676 896 l 713 871 q 715 842 728 861 l 668 775 q 682 688 682 733 m 203 683 l 203 238 l 569 749 q 465 804 542 804 l 319 804 q 203 683 203 804 m 582 210 l 582 656 l 215 144 q 319 89 240 89 l 465 89 q 582 210 582 89 m 401 982 l 356 982 q 347 1001 336 982 l 428 1143 q 457 1161 438 1161 l 542 1161 q 553 1156 550 1161 q 550 1142 557 1150 l 429 996 q 401 982 418 982 z "},"ǿ":{"ha":724,"x_min":39,"x_max":685,"o":"m 628 503 l 628 206 q 573 55 628 110 q 422 0 518 0 l 301 0 q 131 78 185 0 l 83 31 q 56 31 68 17 l 39 47 q 39 75 25 61 l 104 140 q 96 206 96 169 l 96 503 q 151 653 96 599 q 301 708 206 708 l 422 708 q 593 629 539 708 l 640 676 q 668 678 654 692 l 685 661 q 685 633 699 647 l 619 568 q 628 503 628 539 m 197 499 l 197 233 l 517 553 q 410 619 496 619 l 314 619 q 197 499 197 619 m 525 210 l 525 474 l 206 153 q 314 89 229 89 l 410 89 q 525 210 525 89 m 386 797 l 340 797 q 332 817 321 797 l 413 958 q 443 976 422 976 l 525 976 q 538 971 535 976 q 535 957 540 965 l 414 811 q 386 797 403 797 z "},"Ș":{"ha":771,"x_min":100,"x_max":671,"o":"m 100 206 l 100 250 q 119 269 100 269 l 182 269 q 201 250 201 269 l 201 214 q 325 89 201 89 l 447 89 q 571 217 571 89 l 571 264 q 406 394 571 364 q 267 424 336 407 q 149 488 197 440 q 100 619 100 536 l 100 688 q 155 838 100 783 q 306 893 210 893 l 460 893 q 610 838 554 893 q 665 688 665 783 l 665 653 q 647 632 665 632 l 583 632 q 565 653 565 632 l 565 678 q 442 804 565 804 l 324 804 q 200 672 200 804 l 200 617 q 293 519 200 546 q 385 499 335 508 q 485 476 435 490 q 578 440 536 461 q 645 374 619 418 q 671 268 671 331 l 671 206 q 615 55 671 110 q 465 0 560 0 l 306 0 q 156 55 211 0 q 100 206 100 110 m 444 -62 l 444 -128 q 425 -208 444 -165 l 379 -319 q 363 -331 372 -331 q 349 -314 349 -331 l 349 -64 q 367 -44 349 -44 l 426 -44 q 444 -62 444 -44 z "},"ș":{"ha":597,"x_min":64,"x_max":535,"o":"m 361 -62 l 361 -128 q 340 -208 361 -162 l 294 -319 q 278 -331 288 -331 q 264 -314 264 -331 l 264 -64 q 282 -44 264 -44 l 343 -44 q 361 -62 361 -44 m 336 0 l 89 0 q 69 19 69 0 l 69 68 q 89 86 69 86 l 322 86 q 431 167 431 86 l 431 193 q 360 294 431 267 l 196 364 q 94 433 125 393 q 64 538 64 472 q 251 708 64 708 l 479 708 q 499 689 499 708 l 499 640 q 479 622 499 622 l 269 622 q 194 601 219 622 q 168 553 168 581 l 168 529 q 247 440 168 471 l 411 367 q 509 293 483 339 q 535 167 535 247 q 336 0 535 0 z "},"ˆ":{"ha":461,"x_min":90,"x_max":369,"o":"m 363 797 l 314 797 q 294 808 300 797 l 229 931 l 164 808 q 144 797 158 797 l 97 797 q 90 814 81 797 l 178 963 q 206 976 188 976 l 253 976 q 282 963 272 976 l 369 814 q 363 797 379 797 z "},"ˇ":{"ha":461,"x_min":90,"x_max":369,"o":"m 206 797 q 178 811 188 797 l 90 960 q 97 976 81 976 l 144 976 q 164 965 158 976 l 229 843 l 294 965 q 314 976 300 976 l 363 976 q 369 960 379 976 l 282 811 q 253 797 272 797 l 206 797 z "},"ˉ":{"ha":493,"x_min":88,"x_max":406,"o":"m 386 851 l 107 851 q 88 871 88 851 l 88 904 q 107 924 88 924 l 386 924 q 406 904 406 924 l 406 871 q 386 851 406 851 z "},"˘":{"ha":464,"x_min":88,"x_max":376,"o":"m 88 944 l 88 961 q 101 976 88 976 l 140 976 q 154 961 154 976 l 154 947 q 171 874 154 896 q 228 853 188 853 l 235 853 q 294 874 276 853 q 311 947 311 896 l 311 961 q 325 975 311 975 l 361 975 q 376 961 376 975 l 376 944 q 243 797 376 797 l 219 797 q 88 944 88 797 z "},"˙":{"ha":275,"x_min":88,"x_max":188,"o":"m 88 819 l 88 954 q 106 974 88 974 l 169 974 q 188 956 188 974 l 188 819 q 169 800 188 800 l 106 800 q 88 819 88 800 z "},"˚":{"ha":403,"x_min":72,"x_max":296,"o":"m 118 915 l 118 865 q 131 824 118 835 q 174 813 143 813 l 193 813 q 237 824 224 813 q 250 865 250 835 l 250 915 q 238 957 250 946 q 194 968 225 968 l 174 968 q 131 957 143 968 q 118 915 118 946 m 72 854 l 72 929 q 160 1010 72 1010 l 207 1010 q 296 929 296 1010 l 296 854 q 207 772 296 772 l 160 772 q 72 854 72 772 z "},"˛":{"ha":338,"x_min":97,"x_max":243,"o":"m 156 -96 q 211 -93 192 -96 q 238 -97 231 -93 q 243 -111 244 -100 q 207 -144 242 -131 q 138 -158 172 -158 q 97 -131 104 -158 q 107 -83 90 -104 l 183 28 l 232 18 q 191 -40 229 15 q 156 -96 153 -96 z "},"˜":{"ha":506,"x_min":88,"x_max":393,"o":"m 88 907 l 88 960 q 99 975 88 975 l 129 975 q 142 960 142 975 l 142 924 q 149 871 142 885 q 173 857 156 857 q 199 868 190 857 q 226 917 208 879 q 260 967 243 954 q 317 979 276 979 q 393 872 393 979 l 393 817 q 382 801 393 801 l 351 801 q 339 817 339 801 l 339 854 q 332 908 339 894 q 310 922 325 922 q 291 921 296 922 q 280 911 286 919 q 271 897 274 903 q 254 858 268 890 q 222 813 240 826 q 164 800 204 800 q 88 907 88 800 z "},"˝":{"ha":540,"x_min":90,"x_max":449,"o":"m 200 976 l 256 976 q 265 957 278 976 l 157 811 q 132 797 146 797 l 100 797 q 90 817 82 797 l 169 958 q 200 976 178 976 m 383 976 l 439 976 q 449 957 461 976 l 340 811 q 315 797 329 797 l 283 797 q 274 817 263 797 l 353 958 q 383 976 361 976 z "},"Μ":{"ha":747,"x_min":111,"x_max":638,"o":"m 211 -165 q 193 -185 211 -185 l 129 -185 q 111 -165 111 -185 l 111 689 q 129 708 111 708 l 193 708 q 211 689 211 708 l 211 210 q 328 89 211 89 l 407 89 q 503 122 469 89 q 536 217 536 156 l 536 689 q 556 708 536 708 l 617 708 q 638 689 638 708 l 638 19 q 617 0 638 0 l 556 0 q 536 19 536 0 l 536 74 l 531 74 q 388 0 496 0 q 357 -1 382 0 q 322 -1 332 -1 q 292 2 313 0 q 261 8 272 4 q 211 39 231 17 l 211 -165 z "},"Π":{"ha":864,"x_min":50,"x_max":814,"o":"m 281 0 l 218 0 q 199 19 199 0 l 199 790 q 185 801 199 801 l 71 801 q 50 822 50 801 l 50 874 q 71 893 50 893 l 794 893 q 814 874 814 893 l 814 822 q 794 801 814 801 l 679 801 q 665 789 665 801 l 665 19 q 646 0 665 0 l 583 0 q 564 19 564 0 l 564 789 q 551 801 564 801 l 314 801 q 300 789 300 801 l 300 19 q 281 0 300 0 z "},"Σ":{"ha":674,"x_min":86,"x_max":596,"o":"m 86 825 l 86 874 q 106 893 86 893 l 575 893 q 594 874 594 893 l 594 818 q 575 797 594 797 l 204 797 l 204 792 l 417 468 q 417 417 432 442 l 204 100 l 204 94 l 575 94 q 596 74 596 94 l 596 18 q 575 0 596 0 l 106 0 q 86 19 86 0 l 86 67 q 97 108 86 89 l 315 440 l 315 446 l 96 785 q 86 825 86 800 z "},"ँ":{"ha":0,"x_min":-386,"x_max":75,"o":"m -89 958 l -221 958 q -386 1131 -386 958 l -386 1140 q -362 1168 -386 1168 l -321 1168 q -299 1142 -299 1168 l -299 1132 q -278 1060 -299 1081 q -207 1039 -258 1039 l -103 1039 q -31 1060 -51 1039 q -11 1132 -11 1081 l -11 1142 q 13 1168 -11 1168 l 51 1168 q 75 1140 75 1168 l 75 1132 q -89 958 75 958 m -111 1231 l -111 1178 q -131 1157 -111 1157 l -178 1157 q -197 1178 -197 1157 l -197 1231 q -178 1250 -197 1250 l -131 1250 q -111 1231 -111 1250 z "},"ं":{"ha":0,"x_min":-219,"x_max":-114,"o":"m -114 1097 l -114 1031 q -135 1010 -114 1010 l -199 1010 q -219 1031 -219 1010 l -219 1097 q -199 1117 -219 1117 l -135 1117 q -114 1097 -114 1117 z "},"ः":{"ha":346,"x_min":122,"x_max":226,"o":"m 226 590 l 226 525 q 203 500 226 500 l 146 500 q 122 525 122 500 l 122 590 q 146 614 122 614 l 203 614 q 226 590 226 614 m 226 183 l 226 119 q 203 94 226 94 l 146 94 q 122 119 122 94 l 122 183 q 146 208 122 208 l 203 208 q 226 183 226 208 z "},"अ":{"ha":835,"x_min":50,"x_max":861,"o":"m 665 865 l 839 865 q 861 844 861 865 l 861 803 q 839 782 861 782 l 735 782 q 721 768 721 782 l 721 21 q 700 0 721 0 l 647 0 q 625 21 625 0 l 625 310 q 611 324 625 324 l 450 324 l 450 261 q 394 108 450 163 q 239 53 338 53 l 72 53 q 50 74 50 53 l 50 118 q 72 138 50 138 l 233 138 q 357 261 357 138 l 357 307 q 233 426 357 426 l 154 426 q 132 447 132 426 l 132 490 q 153 511 132 511 l 233 511 q 357 632 357 511 l 357 660 q 233 782 357 782 l 118 782 q 96 803 96 782 l 96 844 q 118 865 96 865 l 243 865 q 397 812 343 865 q 450 658 450 758 l 450 628 q 361 472 450 510 l 361 467 q 431 407 408 450 l 611 407 q 625 422 625 407 l 625 824 q 636 853 625 842 q 665 865 647 865 z "},"आ":{"ha":1157,"x_min":49,"x_max":1183,"o":"m 664 865 l 1161 865 q 1183 844 1183 865 l 1183 803 q 1161 782 1183 782 l 1057 782 q 1043 768 1043 782 l 1043 21 q 1022 0 1043 0 l 968 0 q 947 21 947 0 l 947 768 q 933 782 947 782 l 733 782 q 719 768 719 782 l 719 21 q 699 0 719 0 l 646 0 q 624 21 624 0 l 624 310 q 610 324 624 324 l 449 324 l 449 261 q 392 108 449 163 q 238 53 336 53 l 71 53 q 49 74 49 53 l 49 118 q 71 138 49 138 l 232 138 q 356 261 356 138 l 356 307 q 232 426 356 426 l 153 426 q 131 447 131 426 l 131 490 q 151 511 131 511 l 232 511 q 356 632 356 511 l 356 660 q 232 782 356 782 l 117 782 q 94 803 94 782 l 94 844 q 117 865 94 865 l 242 865 q 395 812 342 865 q 449 658 449 758 l 449 628 q 360 472 449 510 l 360 467 q 429 407 407 450 l 610 407 q 624 422 624 407 l 624 824 q 635 853 624 842 q 664 865 646 865 z "},"इ":{"ha":660,"x_min":-26,"x_max":686,"o":"m 394 313 l 269 313 q 90 472 90 313 l 90 494 q 138 612 90 572 q 269 651 185 651 l 432 651 q 446 665 446 651 l 446 768 q 432 782 446 782 l -4 782 q -26 803 -26 782 l -26 844 q -4 865 -26 865 l 664 865 q 686 844 686 865 l 686 803 q 664 782 686 782 l 554 782 q 540 768 540 782 l 540 614 q 492 567 540 567 l 275 567 q 204 549 225 567 q 183 486 183 531 l 183 472 q 205 412 183 429 q 275 394 226 394 l 404 394 q 581 242 581 394 l 581 176 q 535 56 581 97 q 404 14 489 14 l 292 14 q 183 60 210 14 l 178 60 l 178 -47 q 157 -68 178 -68 l 107 -68 q 86 -47 86 -68 l 86 215 q 107 236 86 236 l 157 236 q 178 215 178 236 l 178 193 q 279 97 178 97 l 394 97 q 465 116 444 97 q 486 179 486 135 l 486 236 q 465 295 486 278 q 394 313 443 313 z "},"ई":{"ha":660,"x_min":-26,"x_max":686,"o":"m 424 1003 l 424 929 q 438 878 424 892 q 499 865 453 865 l 664 865 q 686 844 686 865 l 686 803 q 664 782 686 782 l 554 782 q 540 768 540 782 l 540 614 q 492 567 540 567 l 275 567 q 204 549 225 567 q 183 486 183 531 l 183 472 q 205 412 183 429 q 275 394 226 394 l 404 394 q 581 242 581 394 l 581 176 q 535 56 581 97 q 404 14 489 14 l 292 14 q 183 60 210 14 l 178 60 l 178 -47 q 157 -68 178 -68 l 107 -68 q 86 -47 86 -68 l 86 215 q 107 236 86 236 l 157 236 q 178 215 178 236 l 178 193 q 279 97 178 97 l 394 97 q 465 116 444 97 q 486 179 486 135 l 486 236 q 465 295 486 278 q 394 313 443 313 l 269 313 q 90 472 90 313 l 90 494 q 138 612 90 572 q 269 651 185 651 l 432 651 q 446 665 446 651 l 446 768 q 432 782 446 782 l -4 782 q -26 803 -26 782 l -26 844 q -4 865 -26 865 l 357 865 l 357 871 q 329 939 329 886 l 329 1006 q 384 1155 329 1103 q 529 1207 439 1207 l 611 1207 q 632 1186 632 1207 l 632 1143 q 611 1122 632 1122 l 533 1122 q 424 1003 424 1122 z "},"उ":{"ha":650,"x_min":-26,"x_max":676,"o":"m 564 293 l 564 214 q 509 57 564 114 q 354 0 454 0 l 269 0 q 115 57 171 0 q 58 214 58 114 l 58 283 q 79 308 58 308 l 132 308 q 151 283 151 308 l 151 214 q 279 85 151 85 l 347 85 q 471 218 471 85 l 471 275 q 347 403 471 403 l 275 403 q 254 424 254 403 l 254 467 q 275 488 254 488 l 344 488 q 465 606 465 488 l 465 661 q 347 782 465 782 l -4 782 q -26 803 -26 782 l -26 844 q -4 865 -26 865 l 654 865 q 676 844 676 865 l 676 803 q 654 782 676 782 l 501 782 l 501 776 q 560 658 560 747 l 560 599 q 475 449 560 483 l 475 443 q 564 293 564 406 z "},"ऊ":{"ha":915,"x_min":-26,"x_max":942,"o":"m -4 865 l 919 865 q 942 844 942 865 l 942 803 q 919 782 942 782 l 501 782 l 501 776 q 560 658 560 747 l 560 599 q 475 449 560 483 l 475 443 l 692 443 q 826 396 776 443 q 876 260 876 349 l 876 189 q 826 56 876 101 q 692 10 776 10 l 656 10 q 633 31 633 10 l 633 75 q 656 94 633 94 l 672 94 q 783 208 783 94 l 783 244 q 672 357 783 357 l 554 357 q 564 293 564 329 l 564 217 q 509 58 564 117 q 354 0 454 0 l 269 0 q 115 57 171 0 q 58 214 58 114 l 58 283 q 79 308 58 308 l 132 308 q 151 283 151 308 l 151 214 q 279 85 151 85 l 347 85 q 471 218 471 85 l 471 275 q 347 403 471 403 l 275 403 q 254 424 254 403 l 254 467 q 275 488 254 488 l 344 488 q 465 606 465 488 l 465 661 q 347 782 465 782 l -4 782 q -26 803 -26 782 l -26 844 q -4 865 -26 865 z "},"ऋ":{"ha":1061,"x_min":-26,"x_max":1086,"o":"m -6 865 l 1065 865 q 1086 844 1086 865 l 1086 803 q 1065 782 1086 782 l 592 782 q 576 768 576 782 l 576 414 l 788 578 q 836 597 814 597 l 940 597 q 961 576 961 597 l 961 311 q 929 285 961 285 l 890 285 q 796 203 796 285 l 796 163 q 819 100 796 118 q 893 82 842 82 l 956 82 q 982 58 982 82 l 982 22 q 954 0 982 0 l 883 0 q 703 154 703 0 l 703 207 q 858 358 703 350 q 874 372 874 358 l 874 532 l 576 301 l 576 21 q 556 0 576 0 l 503 0 q 482 21 482 0 l 482 226 l 213 15 q 175 0 194 0 l 106 0 q 89 17 89 0 q 110 46 89 29 l 364 244 l 479 329 l 479 399 q 353 514 479 514 l 299 514 q 174 399 174 514 l 174 336 q 153 315 174 315 l 101 315 q 81 336 81 315 l 81 403 q 135 551 81 500 q 289 601 190 601 l 338 601 q 476 542 438 601 l 482 542 l 482 768 q 468 782 482 782 l -6 782 q -26 803 -26 782 l -26 844 q -6 865 -26 865 z "},"ऌ":{"ha":925,"x_min":-26,"x_max":961,"o":"m 954 -185 q 961 -202 961 -192 q 943 -226 961 -212 q 754 -290 872 -290 q 549 -97 549 -290 q 715 89 549 81 l 715 407 q 688 499 715 472 q 604 526 661 526 q 520 499 547 526 q 493 406 493 472 l 493 299 q 472 276 493 276 l 422 276 q 401 299 401 276 l 401 410 q 374 501 401 474 q 291 528 347 528 q 207 498 235 528 q 179 401 179 468 l 179 258 q 306 132 179 132 l 354 132 q 376 113 376 132 l 376 68 q 354 47 376 47 l 294 47 q 140 99 194 47 q 86 254 86 151 l 86 407 q 140 563 86 510 q 286 615 193 615 q 444 526 411 615 l 450 526 q 596 614 478 614 q 710 564 681 614 l 715 564 l 715 768 q 703 782 715 782 l -4 782 q -26 803 -26 782 l -26 844 q -4 865 -26 865 l 929 865 q 951 844 951 865 l 951 803 q 929 782 951 782 l 825 782 q 810 768 810 782 l 810 29 q 788 8 810 8 l 735 8 q 660 -17 681 8 q 639 -100 639 -42 q 667 -183 639 -158 q 767 -207 696 -207 q 900 -151 838 -207 q 919 -144 910 -144 q 933 -156 928 -144 l 954 -185 z "},"ऍ":{"ha":722,"x_min":-26,"x_max":754,"o":"m -4 865 l 732 865 q 754 844 754 865 l 754 803 q 732 782 754 782 l 656 782 q 640 768 640 782 l 640 586 q 587 435 640 485 q 439 385 533 385 l 383 385 q 361 406 361 385 l 361 449 q 383 469 361 469 l 429 469 q 515 496 485 469 q 546 586 546 522 l 546 768 q 532 782 546 782 l 224 782 q 208 768 208 782 l 208 271 q 247 166 208 203 q 356 129 285 129 l 578 129 q 599 108 599 129 l 599 64 q 578 42 599 43 l 340 42 q 175 104 236 42 q 114 267 114 167 l 114 768 q 100 782 114 782 l -4 782 q -26 803 -26 782 l -26 844 q -4 865 -26 865 m 432 996 l 318 996 q 153 1168 153 996 l 153 1178 q 178 1206 153 1206 l 218 1206 q 240 1179 240 1206 l 240 1169 q 260 1097 240 1118 q 332 1076 281 1076 l 418 1076 q 490 1097 469 1076 q 510 1169 510 1118 l 510 1179 q 532 1206 510 1206 l 574 1206 q 597 1178 597 1206 l 597 1168 q 432 996 597 996 z "},"ऎ":{"ha":724,"x_min":-26,"x_max":754,"o":"m 661 865 l 732 865 q 754 844 754 865 l 754 803 q 732 782 754 782 l 656 782 q 640 768 640 782 l 640 586 q 587 435 640 485 q 439 385 533 385 l 383 385 q 361 406 361 385 l 361 449 q 383 469 361 469 l 429 469 q 515 496 485 469 q 546 586 546 522 l 546 768 q 532 782 546 782 l 224 782 q 208 768 208 782 l 208 271 q 247 166 208 203 q 356 129 285 129 l 578 129 q 599 108 599 129 l 599 64 q 578 42 599 43 l 340 42 q 175 104 236 42 q 114 267 114 167 l 114 768 q 100 782 114 782 l -4 782 q -26 803 -26 782 l -26 844 q -4 865 -26 865 l 538 865 q 551 883 551 865 q 535 914 551 900 q 374 1003 518 929 q 285 1073 313 1035 q 258 1171 258 1111 l 258 1199 q 279 1219 258 1219 l 331 1219 q 351 1199 351 1219 l 351 1176 q 370 1112 351 1133 q 432 1069 389 1090 l 519 1025 q 617 963 586 993 q 647 881 647 933 q 661 865 647 865 z "},"ए":{"ha":728,"x_min":-26,"x_max":754,"o":"m -4 865 l 732 865 q 754 844 754 865 l 754 803 q 732 782 754 782 l 656 782 q 640 768 640 782 l 640 586 q 587 435 640 485 q 439 385 533 385 l 383 385 q 361 406 361 385 l 361 449 q 383 469 361 469 l 429 469 q 515 496 485 469 q 546 586 546 522 l 546 768 q 532 782 546 782 l 224 782 q 208 768 208 782 l 208 271 q 247 166 208 203 q 356 129 285 129 l 578 129 q 599 108 599 129 l 599 64 q 578 42 599 43 l 340 42 q 175 104 236 42 q 114 267 114 167 l 114 768 q 100 782 114 782 l -4 782 q -26 803 -26 782 l -26 844 q -4 865 -26 865 z "},"ऐ":{"ha":728,"x_min":-26,"x_max":754,"o":"m 651 865 l 732 865 q 754 844 754 865 l 754 803 q 732 782 754 782 l 656 782 q 640 768 640 782 l 640 586 q 587 435 640 485 q 439 385 533 385 l 383 385 q 361 406 361 385 l 361 449 q 383 469 361 469 l 429 469 q 515 496 485 469 q 546 586 546 522 l 546 768 q 532 782 546 782 l 224 782 q 208 768 208 782 l 208 271 q 247 166 208 203 q 356 129 285 129 l 578 129 q 599 108 599 129 l 599 64 q 578 42 599 43 l 340 42 q 175 104 236 42 q 114 267 114 167 l 114 768 q 100 782 114 782 l -4 782 q -26 803 -26 782 l -26 844 q -4 865 -26 865 l 550 865 q 394 1067 474 949 l 313 1188 q 307 1203 307 1199 q 325 1219 307 1219 l 385 1219 q 415 1201 404 1219 l 618 888 q 651 865 631 865 z "},"ऑ":{"ha":1158,"x_min":50,"x_max":1185,"o":"m 665 865 l 1163 865 q 1185 844 1185 865 l 1185 803 q 1163 782 1185 782 l 1058 782 q 1044 768 1044 782 l 1044 21 q 1024 0 1044 0 l 971 0 q 950 21 950 0 l 950 768 q 935 782 950 782 l 735 782 q 721 768 721 782 l 721 21 q 700 0 721 0 l 647 0 q 625 21 625 0 l 625 310 q 611 324 625 324 l 450 324 l 450 261 q 394 108 450 163 q 239 53 338 53 l 72 53 q 50 74 50 53 l 50 118 q 72 138 50 138 l 233 138 q 357 261 357 138 l 357 307 q 233 426 357 426 l 154 426 q 132 447 132 426 l 132 490 q 153 511 132 511 l 233 511 q 357 632 357 511 l 357 660 q 233 782 357 782 l 118 782 q 96 803 96 782 l 96 844 q 118 865 96 865 l 243 865 q 397 812 343 865 q 450 658 450 758 l 450 628 q 361 472 450 510 l 361 467 q 431 407 408 450 l 611 407 q 625 422 625 407 l 625 824 q 636 853 625 842 q 665 865 647 865 m 901 958 l 789 958 q 622 1131 622 958 l 622 1140 q 647 1168 622 1168 l 688 1168 q 710 1142 710 1168 l 710 1132 q 730 1060 710 1081 q 801 1039 750 1039 l 888 1039 q 959 1060 939 1039 q 979 1132 979 1081 l 979 1142 q 1003 1168 979 1168 l 1042 1168 q 1065 1140 1065 1168 l 1065 1133 q 901 958 1065 958 z "},"ऒ":{"ha":1154,"x_min":50,"x_max":1181,"o":"m 1061 865 l 1158 865 q 1181 844 1181 865 l 1181 803 q 1158 782 1181 782 l 1054 782 q 1039 768 1039 782 l 1039 21 q 1018 0 1039 0 l 965 0 q 944 21 944 0 l 944 768 q 931 782 944 782 l 735 782 q 721 768 721 782 l 721 21 q 700 0 721 0 l 647 0 q 625 21 625 0 l 625 310 q 611 324 625 324 l 450 324 l 450 261 q 394 108 450 163 q 239 53 338 53 l 72 53 q 50 74 50 53 l 50 118 q 72 138 50 138 l 233 138 q 357 261 357 138 l 357 307 q 233 426 357 426 l 154 426 q 132 447 132 426 l 132 490 q 153 511 132 511 l 233 511 q 357 632 357 511 l 357 660 q 233 782 357 782 l 118 782 q 96 803 96 782 l 96 844 q 118 865 96 865 l 243 865 q 397 812 343 865 q 450 658 450 758 l 450 628 q 361 472 450 510 l 361 467 q 431 407 408 450 l 611 407 q 625 422 625 407 l 625 824 q 636 853 625 842 q 665 865 647 865 l 938 865 q 951 883 951 865 q 935 914 951 900 q 774 1003 918 929 q 685 1073 713 1035 q 658 1171 658 1111 l 658 1199 q 679 1219 658 1219 l 731 1219 q 751 1199 751 1219 l 751 1176 q 770 1112 751 1133 q 832 1069 789 1090 l 919 1025 q 1017 963 986 993 q 1047 881 1047 933 q 1061 865 1047 865 z "},"ओ":{"ha":1158,"x_min":50,"x_max":1185,"o":"m 1057 865 l 1163 865 q 1185 844 1185 865 l 1185 803 q 1163 782 1185 782 l 1058 782 q 1044 768 1044 782 l 1044 21 q 1024 0 1044 0 l 971 0 q 950 21 950 0 l 950 768 q 935 782 950 782 l 735 782 q 721 768 721 782 l 721 21 q 700 0 721 0 l 647 0 q 625 21 625 0 l 625 310 q 611 324 625 324 l 450 324 l 450 261 q 394 108 450 163 q 239 53 338 53 l 72 53 q 50 74 50 53 l 50 118 q 72 138 50 138 l 233 138 q 357 261 357 138 l 357 307 q 233 426 357 426 l 154 426 q 132 447 132 426 l 132 490 q 153 511 132 511 l 233 511 q 357 632 357 511 l 357 660 q 233 782 357 782 l 118 782 q 96 803 96 782 l 96 844 q 118 865 96 865 l 243 865 q 397 812 343 865 q 450 658 450 758 l 450 628 q 361 472 450 510 l 361 467 q 431 407 408 450 l 611 407 q 625 422 625 407 l 625 824 q 636 853 625 842 q 665 865 647 865 l 950 865 l 950 871 q 797 1067 874 956 l 715 1188 q 711 1203 711 1196 q 728 1219 711 1219 l 790 1219 q 821 1201 810 1219 q 1036 869 1032 874 q 1057 865 1042 865 z "},"औ":{"ha":1158,"x_min":50,"x_max":1185,"o":"m 1056 865 l 1163 865 q 1185 844 1185 865 l 1185 803 q 1163 782 1185 782 l 1058 782 q 1044 768 1044 782 l 1044 21 q 1024 0 1044 0 l 971 0 q 950 21 950 0 l 950 768 q 935 782 950 782 l 735 782 q 721 768 721 782 l 721 21 q 700 0 721 0 l 647 0 q 625 21 625 0 l 625 310 q 611 324 625 324 l 450 324 l 450 261 q 394 108 450 163 q 239 53 338 53 l 72 53 q 50 74 50 53 l 50 118 q 72 138 50 138 l 233 138 q 357 261 357 138 l 357 307 q 233 426 357 426 l 154 426 q 132 447 132 426 l 132 490 q 153 511 132 511 l 233 511 q 357 632 357 511 l 357 660 q 233 782 357 782 l 118 782 q 96 803 96 782 l 96 844 q 118 865 96 865 l 243 865 q 397 812 343 865 q 450 658 450 758 l 450 628 q 361 472 450 510 l 361 467 q 431 407 408 450 l 611 407 q 625 422 625 407 l 625 824 q 636 853 625 842 q 665 865 647 865 l 944 865 l 944 871 q 779 1067 886 915 l 697 1188 q 692 1203 692 1194 q 710 1219 692 1219 l 761 1219 q 797 1201 788 1219 l 988 893 l 992 896 q 953 1142 953 983 l 953 1199 q 974 1219 953 1219 l 1024 1219 q 1044 1199 1044 1219 l 1044 881 q 1056 865 1044 865 z "},"क":{"ha":1010,"x_min":-26,"x_max":1036,"o":"m 551 768 l 551 599 l 557 599 q 688 660 586 660 l 729 660 q 882 605 826 660 q 938 453 938 550 l 938 332 q 881 180 936 235 q 729 125 826 125 l 665 125 q 643 146 643 125 l 643 189 q 665 210 643 210 l 718 210 q 843 336 843 210 l 843 449 q 810 542 843 510 q 715 575 776 575 l 671 575 q 551 458 551 575 l 551 22 q 531 0 551 0 l 478 0 q 458 22 458 0 l 458 186 l 453 186 q 322 125 419 125 l 281 125 q 128 180 183 125 q 72 332 72 235 l 72 453 q 128 605 72 550 q 281 660 183 660 l 344 660 q 365 639 365 660 l 365 596 q 344 575 365 575 l 292 575 q 165 449 165 575 l 165 336 q 199 242 165 275 q 293 210 232 210 l 338 210 q 427 240 396 210 q 458 326 458 269 l 458 768 q 444 782 458 782 l -4 782 q -26 803 -26 782 l -26 844 q -4 865 -26 865 l 1014 865 q 1036 844 1036 865 l 1036 803 q 1014 782 1036 782 l 565 782 q 551 768 551 782 z "},"ख":{"ha":979,"x_min":-26,"x_max":1006,"o":"m 771 239 l 765 239 q 642 179 731 182 l 626 179 q 487 232 535 179 q 439 378 439 285 l 439 439 q 490 581 439 529 q 636 633 540 633 l 661 633 q 683 613 683 633 l 683 569 q 661 550 683 550 l 643 550 q 558 520 583 550 q 532 428 532 490 l 532 383 q 559 291 532 321 q 646 261 586 261 l 653 261 q 771 386 771 261 l 771 768 q 757 782 771 782 l 381 782 q 367 768 367 782 l 367 557 q 321 422 367 468 q 197 375 275 375 l 157 375 l 382 36 q 389 19 389 26 q 369 0 389 0 l 313 0 q 288 15 300 0 l 76 335 l 46 375 l 46 435 q 71 458 46 458 l 179 458 q 272 561 272 458 l 272 768 q 260 782 272 782 l -4 782 q -26 803 -26 782 l -26 844 q -4 865 -26 865 l 983 865 q 1006 844 1006 865 l 1006 803 q 983 782 1006 782 l 879 782 q 864 768 864 782 l 864 21 q 843 0 864 0 l 792 0 q 771 21 771 0 l 771 239 z "},"ग":{"ha":697,"x_min":-26,"x_max":724,"o":"m -4 865 l 701 865 q 724 844 724 865 l 724 803 q 701 782 724 782 l 597 782 q 583 768 583 782 l 583 21 q 563 0 583 0 l 510 0 q 489 21 489 0 l 489 768 q 475 782 489 782 l 290 782 q 276 768 276 782 l 276 496 q 224 342 276 393 q 78 290 172 290 l 50 290 q 29 311 29 290 l 29 357 q 50 378 29 378 l 65 378 q 182 499 182 378 l 182 768 q 168 782 182 782 l -4 782 q -26 803 -26 782 l -26 844 q -4 865 -26 865 z "},"घ":{"ha":769,"x_min":-26,"x_max":796,"o":"m 88 626 l 88 678 q 132 776 88 751 l 132 782 l -4 782 q -26 804 -26 782 l -26 844 q -4 865 -26 865 l 774 865 q 796 844 796 865 l 796 803 q 774 782 796 782 l 669 782 q 654 768 654 782 l 654 21 q 633 0 654 0 l 581 0 q 560 21 560 0 l 560 175 l 554 175 q 424 108 524 108 l 282 108 q 138 158 189 108 q 88 300 88 207 l 88 351 q 171 489 88 461 l 171 494 q 88 626 88 524 m 546 782 l 269 782 q 181 683 181 782 l 181 632 q 276 536 181 536 l 363 536 q 383 515 383 536 l 383 471 q 363 450 383 450 l 276 450 q 181 353 181 450 l 181 307 q 208 222 181 249 q 294 194 236 194 l 418 194 q 560 335 560 196 l 560 768 q 546 782 560 782 z "},"ङ":{"ha":718,"x_min":-26,"x_max":743,"o":"m 679 494 l 679 435 q 660 414 679 414 l 601 414 q 581 435 581 414 l 581 494 q 601 514 581 514 l 660 514 q 679 494 679 514 m -4 865 l 722 865 q 743 844 743 865 l 743 803 q 722 782 743 782 l 549 782 q 535 768 535 782 l 535 606 q 521 571 535 583 q 486 558 507 558 l 278 558 q 206 541 228 558 q 185 478 185 524 l 185 464 q 206 401 185 418 q 278 383 226 383 l 399 383 q 574 231 574 383 l 574 161 q 528 41 574 82 q 399 0 482 0 l 272 0 q 132 41 179 0 q 85 178 85 82 l 85 188 q 107 213 85 213 l 156 213 q 175 188 175 213 l 175 178 q 198 103 175 122 q 279 83 221 83 l 386 83 q 458 103 436 83 q 479 168 479 122 l 479 221 q 458 286 479 268 q 386 304 436 304 l 271 304 q 135 341 179 304 q 92 458 92 378 l 92 488 q 139 604 92 565 q 271 643 186 643 l 426 643 q 440 658 440 643 l 440 768 q 426 782 440 782 l -4 782 q -26 803 -26 782 l -26 844 q -4 865 -26 865 z "},"च":{"ha":793,"x_min":-26,"x_max":819,"o":"m 203 525 l 53 525 q 31 546 31 525 l 31 590 q 53 611 31 611 l 438 611 q 460 590 460 611 l 460 546 q 438 525 460 525 l 354 525 q 238 400 238 525 l 238 346 q 363 221 238 221 l 454 221 q 550 255 517 221 q 583 351 583 289 l 583 768 q 569 782 583 782 l -4 782 q -26 803 -26 782 l -26 844 q -4 865 -26 865 l 799 865 q 819 844 819 865 l 819 803 q 799 782 819 782 l 693 782 q 679 768 679 782 l 679 22 q 658 0 679 0 l 604 0 q 583 22 583 0 l 583 201 l 578 201 q 442 135 543 135 l 350 135 q 198 189 253 135 q 143 340 143 243 l 143 393 q 203 519 143 488 l 203 525 z "},"छ":{"ha":796,"x_min":-26,"x_max":821,"o":"m -4 865 l 800 865 q 821 844 821 865 l 821 804 q 800 782 821 783 l 693 782 q 676 768 676 782 l 676 632 q 647 560 676 583 q 706 415 706 515 l 706 257 q 653 113 706 169 q 507 57 601 57 l 296 57 q 149 105 201 57 q 96 246 96 153 l 96 303 q 181 443 96 415 l 181 449 q 96 574 96 472 l 96 674 q 144 776 96 753 l 144 782 l -4 782 q -26 804 -26 783 l -26 844 q -4 865 -26 865 m 475 592 l 531 592 q 575 589 547 592 q 581 621 581 600 l 581 768 q 565 782 581 782 l 289 782 q 190 675 190 782 l 190 586 q 286 489 190 489 l 340 489 q 361 468 361 489 l 361 425 q 340 406 361 406 l 293 406 q 190 301 190 406 l 190 254 q 217 169 190 194 q 304 143 243 143 l 492 143 q 614 268 614 143 l 614 417 q 525 508 614 508 l 475 508 q 453 529 453 508 l 453 572 q 475 592 453 592 z "},"ज":{"ha":765,"x_min":-26,"x_max":792,"o":"m 340 503 l 340 497 q 394 389 394 469 l 394 286 q 345 138 394 189 q 208 88 296 88 l 61 88 q 39 107 39 88 l 39 151 q 61 172 39 172 l 186 172 q 274 201 246 172 q 301 293 301 231 l 301 383 q 185 503 301 503 l 117 503 q 96 524 96 503 l 96 572 q 117 592 96 592 l 542 592 q 556 606 556 592 l 556 768 q 543 782 556 782 l -4 782 q -26 803 -26 782 l -26 844 q -4 865 -26 865 l 769 865 q 792 844 792 865 l 792 803 q 769 782 792 782 l 665 782 q 651 768 651 782 l 651 21 q 629 0 651 0 l 576 0 q 556 21 556 0 l 556 489 q 542 503 556 503 l 340 503 z "},"झ":{"ha":914,"x_min":-26,"x_max":940,"o":"m 692 782 l 506 782 q 492 768 492 782 l 492 629 q 478 594 492 607 q 443 582 464 582 l 276 582 q 206 564 226 582 q 185 503 185 546 l 185 486 q 206 426 185 443 q 276 410 228 410 l 690 410 q 706 424 706 410 l 706 768 q 692 782 706 782 m 383 782 l -4 782 q -26 803 -26 782 l -26 844 q -4 865 -26 865 l 919 865 q 940 844 940 865 l 940 803 q 919 782 940 782 l 814 782 q 800 768 800 782 l 800 21 q 779 0 800 0 l 726 0 q 706 21 706 0 l 706 311 q 690 326 706 326 l 507 326 q 532 257 532 303 l 532 200 q 485 79 532 121 q 356 38 439 38 l 290 38 q 183 83 210 38 l 178 83 l 178 -29 q 157 -50 178 -50 l 106 -50 q 85 -29 85 -50 l 85 242 q 106 264 85 264 l 157 264 q 178 242 178 264 l 178 217 q 278 122 178 122 l 344 122 q 417 142 394 122 q 439 207 439 161 l 439 244 q 419 308 439 289 q 353 326 400 326 l 271 326 q 92 488 92 326 l 92 510 q 139 627 92 588 q 271 667 186 667 l 383 667 q 397 681 397 667 l 397 768 q 383 782 397 782 z "},"ञ":{"ha":807,"x_min":-26,"x_max":833,"o":"m 206 646 q 404 440 404 646 q 421 428 406 428 l 583 428 q 599 442 599 428 l 599 768 q 585 782 599 782 l -4 782 q -26 803 -26 782 l -26 844 q -4 865 -26 865 l 813 865 q 833 844 833 865 l 833 803 q 813 782 833 782 l 707 782 q 693 768 693 782 l 693 21 q 672 0 693 0 l 619 0 q 599 21 599 0 l 599 326 q 583 342 599 342 l 421 342 q 406 328 406 342 q 349 161 406 208 q 206 114 293 114 l 76 114 q 56 135 56 114 l 56 181 q 76 200 56 200 l 201 200 q 321 322 321 200 l 321 438 q 203 560 321 560 l 99 560 q 78 579 78 560 l 78 625 q 99 646 78 646 l 206 646 z "},"ट":{"ha":665,"x_min":-26,"x_max":692,"o":"m 290 610 l 425 610 q 439 625 439 610 l 439 768 q 425 782 439 782 l -4 782 q -26 803 -26 782 l -26 844 q -4 865 -26 865 l 669 865 q 692 844 692 865 l 692 803 q 669 782 692 782 l 547 782 q 533 768 533 782 l 533 572 q 519 538 533 550 q 485 525 506 525 l 299 525 q 174 400 174 525 l 174 261 q 299 136 174 136 l 392 136 q 517 258 517 136 l 517 300 q 536 324 517 324 l 585 324 q 607 300 607 324 l 607 258 q 552 105 607 158 q 399 51 497 51 l 290 51 q 137 108 192 51 q 82 261 82 165 l 82 401 q 137 554 82 499 q 290 610 192 610 z "},"ठ":{"ha":707,"x_min":-26,"x_max":732,"o":"m 399 525 l 297 525 q 175 399 175 525 l 175 264 q 300 136 175 136 l 394 136 q 519 264 519 136 l 519 399 q 489 492 519 458 q 399 525 458 525 m 711 782 l 564 782 q 550 768 550 782 l 550 686 q 496 583 550 608 l 496 578 q 581 524 549 567 q 614 417 614 481 l 614 256 q 558 105 614 160 q 404 50 501 50 l 289 50 q 136 106 192 50 q 81 261 81 163 l 81 401 q 136 555 81 499 q 289 611 192 611 l 365 611 q 432 631 410 611 q 454 701 454 650 l 454 768 q 442 782 454 782 l -4 782 q -26 803 -26 782 l -26 844 q -4 865 -26 865 l 711 865 q 732 844 732 865 l 732 803 q 711 782 732 782 z "},"ड":{"ha":653,"x_min":-26,"x_max":679,"o":"m -4 865 l 658 865 q 679 844 679 865 l 679 803 q 658 782 679 782 l 549 782 q 535 768 535 782 l 535 606 q 521 571 535 583 q 486 558 507 558 l 278 558 q 206 541 228 558 q 185 478 185 524 l 185 460 q 206 397 185 414 q 278 379 228 379 l 396 379 q 574 226 574 379 l 574 161 q 526 42 574 83 q 397 0 479 0 l 274 0 q 85 178 85 0 l 85 188 q 107 213 85 213 l 156 213 q 175 188 175 213 l 175 178 q 200 103 175 122 q 281 83 225 83 l 385 83 q 479 168 479 83 l 479 217 q 457 281 479 263 q 385 300 435 300 l 271 300 q 135 337 179 300 q 92 454 92 374 l 92 488 q 139 604 92 565 q 271 643 186 643 l 426 643 q 440 658 440 643 l 440 768 q 426 782 440 782 l -4 782 q -26 803 -26 782 l -26 844 q -4 865 -26 865 z "},"ढ":{"ha":675,"x_min":-26,"x_max":701,"o":"m 424 51 l 292 51 q 140 107 193 51 q 86 260 86 163 l 86 417 q 140 570 86 515 q 290 625 193 625 l 443 625 q 457 639 457 625 l 457 768 q 443 782 457 782 l -4 782 q -26 803 -26 782 l -26 844 q -4 865 -26 865 l 679 865 q 701 844 701 865 l 701 803 q 679 782 701 782 l 565 782 q 551 768 551 782 l 551 586 q 539 553 551 565 q 508 542 526 542 l 297 542 q 178 415 178 542 l 178 257 q 300 133 178 133 l 422 133 q 504 159 479 133 q 529 242 529 185 l 529 264 q 516 324 529 306 q 465 343 503 343 q 415 325 428 343 q 403 264 403 307 l 403 244 q 382 222 403 222 l 349 222 q 321 246 321 222 l 321 268 q 353 380 321 342 q 464 418 386 418 q 578 379 542 418 q 614 263 614 340 l 614 238 q 424 51 614 51 z "},"ण":{"ha":942,"x_min":-26,"x_max":967,"o":"m 415 782 l 208 782 q 194 768 194 782 l 194 432 q 300 319 194 319 l 324 319 q 429 432 429 319 l 429 768 q 415 782 429 782 m 718 782 l 535 782 q 522 768 522 782 l 522 435 q 471 285 522 335 q 326 235 419 235 l 296 235 q 152 285 204 235 q 100 435 100 336 l 100 768 q 86 782 100 782 l -4 782 q -26 803 -26 782 l -26 844 q -4 865 -26 865 l 946 865 q 967 844 967 865 l 967 803 q 946 782 967 782 l 840 782 q 826 768 826 782 l 826 21 q 806 0 826 0 l 753 0 q 732 21 732 0 l 732 768 q 718 782 732 782 z "},"त":{"ha":694,"x_min":-26,"x_max":721,"o":"m 178 376 l 178 204 q 209 110 178 138 q 300 83 240 83 l 317 83 q 339 63 339 83 l 339 21 q 317 0 339 0 l 282 0 q 135 51 188 0 q 82 207 82 103 l 82 381 q 136 533 82 482 q 285 585 190 585 l 471 585 q 486 600 486 585 l 486 768 q 472 782 486 782 l -4 782 q -26 803 -26 782 l -26 844 q -4 865 -26 865 l 700 865 q 721 844 721 865 l 721 803 q 700 782 721 782 l 594 782 q 581 768 581 782 l 581 21 q 560 0 581 0 l 507 0 q 486 21 486 0 l 486 483 q 471 499 486 499 l 294 499 q 178 376 178 499 z "},"थ":{"ha":831,"x_min":78,"x_max":856,"o":"m 621 210 l 615 210 q 460 136 576 136 l 311 136 q 138 202 199 136 q 78 367 78 268 l 78 497 q 100 518 78 518 l 265 518 q 381 628 381 518 l 381 701 q 293 786 381 786 q 206 703 206 786 l 206 643 q 186 621 206 621 l 136 621 q 117 643 117 621 l 117 711 q 165 827 117 785 q 292 869 213 869 q 422 828 372 869 q 472 703 472 786 l 472 624 q 271 433 472 433 l 174 433 l 174 367 q 321 219 174 219 l 461 219 q 579 265 538 219 q 621 378 621 310 l 621 824 q 632 853 621 842 q 661 865 643 865 l 835 865 q 856 844 856 865 l 856 803 q 835 782 856 782 l 731 782 q 715 768 715 782 l 715 21 q 694 0 715 0 l 642 0 q 621 21 621 0 l 621 210 z "},"द":{"ha":676,"x_min":-26,"x_max":703,"o":"m 286 643 l 458 643 q 472 657 472 643 l 472 768 q 458 782 472 782 l -4 782 q -26 803 -26 782 l -26 844 q -4 865 -26 865 l 681 865 q 703 844 703 865 l 703 803 q 681 782 703 782 l 579 782 q 565 768 565 782 l 565 601 q 553 569 565 581 q 522 557 542 557 l 297 557 q 178 431 178 557 l 178 318 q 300 194 178 194 l 389 194 q 490 293 490 194 l 490 346 q 511 367 490 367 l 561 367 q 582 346 582 367 l 582 21 q 561 0 582 0 l 511 0 q 490 21 490 0 l 490 157 l 485 157 q 376 110 457 110 l 289 110 q 137 166 190 110 q 83 318 83 222 l 83 435 q 136 588 83 533 q 286 643 189 643 z "},"ध":{"ha":771,"x_min":-26,"x_max":797,"o":"m 300 782 l 271 782 q 183 683 183 782 l 183 632 q 278 536 183 536 l 365 536 q 388 515 388 536 l 388 471 q 365 451 388 451 l 278 451 q 183 353 183 451 l 183 301 q 210 215 183 242 q 296 189 238 189 l 421 189 q 563 328 563 190 l 563 768 q 547 782 563 782 l 454 782 q 433 803 433 782 l 433 844 q 454 865 433 865 l 775 865 q 797 844 797 865 l 797 803 q 775 782 797 782 l 671 782 q 657 768 657 782 l 657 21 q 636 0 657 0 l 583 0 q 563 21 563 0 l 563 169 l 557 169 q 426 103 524 103 l 285 103 q 140 152 192 103 q 89 294 89 201 l 89 351 q 172 489 89 461 l 172 494 q 89 626 89 524 l 89 678 q 135 776 89 751 l 135 782 l -4 782 q -26 804 -26 782 l -26 844 q -4 865 -26 865 l 300 865 q 321 844 321 865 l 321 803 q 300 782 321 782 z "},"न":{"ha":664,"x_min":-26,"x_max":690,"o":"m 442 782 l -4 782 q -26 803 -26 782 l -26 844 q -4 865 -26 865 l 668 865 q 690 844 690 865 l 690 803 q 668 782 690 782 l 564 782 q 550 768 550 782 l 550 21 q 529 0 550 0 l 475 0 q 454 21 454 0 l 454 432 q 440 446 454 446 l 228 446 q 147 375 147 446 q 156 322 147 358 q 165 285 165 286 q 146 267 165 267 l 106 267 q 76 282 86 267 q 54 388 54 322 q 93 493 54 454 q 200 532 132 532 l 440 532 q 454 546 454 532 l 454 768 q 442 782 454 782 z "},"ऩ":{"ha":664,"x_min":-26,"x_max":690,"o":"m 283 33 l 283 -25 q 263 -47 283 -47 l 204 -47 q 185 -25 185 -47 l 185 33 q 204 54 185 54 l 263 54 q 283 33 283 54 m 442 782 l -4 782 q -26 803 -26 782 l -26 844 q -4 865 -26 865 l 668 865 q 690 844 690 865 l 690 803 q 668 782 690 782 l 564 782 q 550 768 550 782 l 550 21 q 529 0 550 0 l 475 0 q 454 21 454 0 l 454 432 q 440 446 454 446 l 228 446 q 147 375 147 446 q 156 322 147 358 q 165 285 165 286 q 146 267 165 267 l 106 267 q 76 282 86 267 q 54 388 54 322 q 93 493 54 454 q 200 532 132 532 l 440 532 q 454 546 454 532 l 454 768 q 442 782 454 782 z "},"प":{"ha":699,"x_min":-26,"x_max":725,"o":"m 315 322 l 363 322 q 457 356 425 322 q 489 447 489 389 l 489 768 q 475 782 489 782 l 210 782 q 196 768 196 782 l 196 446 q 315 322 196 322 m -4 865 l 703 865 q 725 844 725 865 l 725 803 q 703 782 725 782 l 599 782 q 583 768 583 782 l 583 21 q 563 0 583 0 l 510 0 q 489 21 489 0 l 489 299 l 483 299 q 351 236 449 236 l 303 236 q 156 290 211 236 q 100 436 100 344 l 100 768 q 89 782 100 781 l -4 782 q -26 804 -26 782 l -26 844 q -4 865 -26 865 z "},"फ":{"ha":1029,"x_min":-26,"x_max":1054,"o":"m 569 458 l 569 22 q 549 0 569 0 l 497 0 q 476 21 476 0 l 476 304 l 471 304 q 338 242 436 242 l 303 242 q 156 296 211 242 q 100 443 100 350 l 100 768 q 89 782 100 781 l -4 782 q -26 804 -26 782 l -26 844 q -4 865 -26 865 l 1033 865 q 1054 844 1054 865 l 1054 803 q 1033 782 1054 782 l 585 782 q 569 768 569 782 l 569 599 l 575 599 q 706 660 607 660 l 747 660 q 900 605 844 660 q 956 453 956 550 l 956 332 q 900 180 956 235 q 747 125 844 125 l 683 125 q 663 146 663 125 l 663 189 q 683 210 663 210 l 736 210 q 863 336 863 210 l 863 449 q 829 542 863 510 q 735 575 796 575 l 690 575 q 601 545 632 575 q 569 458 569 515 m 315 329 l 350 329 q 444 361 411 329 q 476 450 476 393 l 476 768 q 461 782 476 782 l 210 782 q 196 768 196 782 l 196 451 q 315 329 196 329 z "},"ब":{"ha":694,"x_min":-26,"x_max":721,"o":"m -4 865 l 699 865 q 721 844 721 865 l 721 803 q 699 782 721 782 l 594 782 q 581 768 581 782 l 581 22 q 560 0 581 0 l 506 0 q 485 22 485 0 l 485 176 l 479 176 q 346 115 447 115 l 288 115 q 134 170 190 115 q 78 322 78 225 l 78 458 q 134 610 79 556 q 286 665 189 665 l 371 665 q 392 644 392 665 l 392 603 q 371 582 392 582 l 294 582 q 215 561 247 582 l 483 297 q 485 324 485 306 l 485 768 q 471 782 485 782 l -4 782 q -26 803 -26 782 l -26 844 q -4 865 -26 865 m 293 197 l 357 197 q 457 238 424 197 l 178 511 q 169 456 169 486 l 169 324 q 293 197 169 197 z "},"भ":{"ha":690,"x_min":-26,"x_max":715,"o":"m 467 382 l 213 382 q 197 367 197 382 l 197 247 q 176 225 197 225 l 124 225 q 103 247 103 225 l 103 678 q 8 782 103 782 l -4 782 q -26 803 -26 782 l -26 844 q -4 865 -26 865 l 8 865 q 148 817 99 865 q 197 681 197 769 l 197 481 q 211 465 197 465 l 467 465 q 481 481 481 465 l 481 768 q 467 782 481 782 l 374 782 q 347 803 347 782 l 347 844 q 374 865 347 865 l 694 865 q 715 844 715 865 l 715 803 q 694 782 715 782 l 589 782 q 575 768 575 782 l 575 21 q 554 0 575 0 l 501 0 q 481 21 481 0 l 481 367 q 467 382 481 382 z "},"म":{"ha":686,"x_min":-26,"x_max":713,"o":"m 478 481 l 478 768 q 464 782 478 782 l 208 782 q 194 768 194 782 l 194 481 q 208 465 194 465 l 463 465 q 478 481 478 465 m 463 382 l 208 382 q 194 367 194 382 l 194 247 q 174 225 194 225 l 121 225 q 100 247 100 225 l 100 768 q 86 782 100 782 l -4 782 q -26 803 -26 782 l -26 846 q -4 865 -26 865 l 692 865 q 713 844 713 865 l 713 803 q 692 782 713 782 l 586 782 q 572 768 572 782 l 572 21 q 551 0 572 0 l 499 0 q 478 21 478 0 l 478 367 q 463 382 478 382 z "},"य":{"ha":790,"x_min":-26,"x_max":817,"o":"m 567 782 l 333 782 l 333 776 q 383 665 383 747 l 383 640 q 199 464 383 464 l 176 464 l 176 368 q 216 255 176 294 q 333 215 256 215 l 421 215 q 540 257 500 215 q 581 372 581 299 l 581 768 q 567 782 581 782 m 292 657 l 292 674 q 267 756 292 731 q 183 782 242 782 l -4 782 q -26 803 -26 782 l -26 846 q -4 865 -26 865 l 794 865 q 817 844 817 865 l 817 803 q 794 782 817 782 l 690 782 q 676 768 676 782 l 676 21 q 656 0 676 0 l 601 0 q 581 21 581 0 l 581 206 l 575 206 q 419 131 538 131 l 325 131 q 147 198 211 131 q 83 368 83 265 l 83 526 q 104 547 83 547 l 183 547 q 267 572 242 547 q 292 657 292 596 z "},"र":{"ha":469,"x_min":-26,"x_max":496,"o":"m 272 561 l 272 768 q 260 782 272 782 l -4 782 q -26 803 -26 782 l -26 844 q -4 865 -26 865 l 474 865 q 496 844 496 865 l 496 803 q 474 782 496 782 l 382 782 q 368 768 368 782 l 368 557 q 323 422 368 468 q 200 375 278 375 l 157 375 l 382 33 q 386 19 386 28 q 368 0 386 0 l 310 0 q 286 15 296 0 l 76 335 l 46 375 l 46 435 q 71 458 46 458 l 179 458 q 272 561 272 458 z "},"ऱ":{"ha":497,"x_min":-26,"x_max":522,"o":"m 118 31 l 118 -29 q 99 -50 118 -50 l 40 -50 q 21 -29 21 -50 l 21 31 q 40 51 21 51 l 99 51 q 118 31 118 51 m 300 561 l 300 768 q 288 782 300 782 l -4 782 q -26 803 -26 782 l -26 844 q -4 865 -26 865 l 501 865 q 522 844 522 865 l 522 803 q 501 782 522 782 l 410 782 q 396 768 396 782 l 396 557 q 351 422 396 468 q 228 375 306 375 l 185 375 l 408 33 q 414 19 414 28 q 394 0 414 0 l 338 0 q 314 15 322 0 l 104 335 l 74 375 l 74 435 q 99 458 74 458 l 207 458 q 300 561 300 458 z "},"ल":{"ha":924,"x_min":-26,"x_max":950,"o":"m 594 614 q 710 564 681 614 l 715 564 l 715 768 q 701 782 715 782 l -4 782 q -26 803 -26 782 l -26 844 q -4 865 -26 865 l 929 865 q 950 844 950 865 l 950 803 q 929 782 950 782 l 824 782 q 810 768 810 782 l 810 21 q 789 0 810 0 l 736 0 q 715 21 715 0 l 715 407 q 688 499 715 472 q 604 526 661 526 q 520 499 547 526 q 493 406 493 472 l 493 299 q 472 276 493 276 l 422 276 q 401 299 401 276 l 401 410 q 374 501 401 474 q 291 528 347 528 q 207 498 235 528 q 179 401 179 468 l 179 258 q 210 162 179 192 q 304 132 242 132 l 354 132 q 376 113 376 132 l 376 68 q 354 47 376 47 l 293 47 q 140 99 194 47 q 86 254 86 151 l 86 407 q 139 563 86 510 q 286 615 192 615 q 443 526 411 615 l 449 526 q 594 614 479 614 z "},"ळ":{"ha":931,"x_min":-26,"x_max":957,"o":"m -4 865 l 936 865 q 957 844 957 865 l 957 803 q 936 782 957 782 l 693 782 q 679 768 679 782 l 679 624 q 693 608 679 611 q 843 407 843 576 l 843 263 q 790 109 843 163 q 636 56 736 56 l 624 56 q 463 128 510 56 q 300 56 414 56 l 289 56 q 135 109 189 56 q 82 263 82 163 l 82 407 q 135 562 82 508 q 289 615 189 615 l 300 615 q 463 540 415 615 q 579 611 500 597 q 592 626 592 615 l 592 768 q 578 782 592 782 l -4 782 q -26 803 -26 782 l -26 844 q -4 865 -26 865 m 417 263 l 417 407 q 300 531 417 531 l 290 531 q 174 407 174 531 l 174 263 q 290 139 174 139 l 300 139 q 417 263 417 139 m 751 263 l 751 407 q 635 531 751 531 l 625 531 q 508 407 508 531 l 508 263 q 625 139 508 139 l 635 139 q 751 263 751 139 z "},"ऴ":{"ha":931,"x_min":-26,"x_max":957,"o":"m -4 865 l 936 865 q 957 844 957 865 l 957 803 q 936 782 957 782 l 693 782 q 679 768 679 782 l 679 624 q 693 608 679 611 q 843 407 843 576 l 843 263 q 790 109 843 163 q 636 56 736 56 l 624 56 q 463 128 510 56 q 300 56 414 56 l 289 56 q 135 109 189 56 q 82 263 82 163 l 82 407 q 135 562 82 508 q 289 615 189 615 l 300 615 q 463 540 415 615 q 579 611 500 597 q 592 626 592 615 l 592 768 q 578 782 592 782 l -4 782 q -26 803 -26 782 l -26 844 q -4 865 -26 865 m 417 263 l 417 407 q 300 531 417 531 l 290 531 q 174 407 174 531 l 174 263 q 290 139 174 139 l 300 139 q 417 263 417 139 m 751 263 l 751 407 q 635 531 751 531 l 625 531 q 508 407 508 531 l 508 263 q 625 139 508 139 l 635 139 q 751 263 751 139 m 257 0 l 315 0 q 335 -21 335 0 l 335 -81 q 315 -101 335 -101 l 257 -101 q 238 -81 238 -101 l 238 -21 q 257 0 238 0 z "},"व":{"ha":683,"x_min":-26,"x_max":710,"o":"m 569 768 l 569 22 q 549 0 569 0 l 496 0 q 475 22 475 0 l 475 181 l 469 181 q 336 119 436 119 l 288 119 q 134 174 190 119 q 78 326 78 229 l 78 450 q 134 603 79 549 q 286 658 189 658 l 361 658 q 383 638 383 658 l 383 593 q 361 572 383 572 l 299 572 q 174 446 174 572 l 174 331 q 299 204 174 204 l 347 204 q 442 238 410 204 q 475 331 475 272 l 475 768 q 461 782 475 782 l -4 782 q -26 803 -26 782 l -26 844 q -4 865 -26 865 l 688 865 q 710 844 710 865 l 710 803 q 688 782 710 782 l 583 782 q 569 768 569 782 z "},"श":{"ha":865,"x_min":68,"x_max":892,"o":"m 657 21 l 657 824 q 668 853 657 842 q 697 865 679 865 l 871 865 q 892 844 892 865 l 892 803 q 871 782 892 782 l 765 782 q 751 768 751 782 l 751 21 q 731 0 751 0 l 678 0 q 657 21 657 0 m 415 18 q 396 0 415 0 l 336 0 q 313 15 319 0 l 100 319 l 68 360 l 68 419 q 93 443 68 443 l 272 443 q 392 561 392 443 l 392 685 q 369 762 392 739 q 294 785 347 785 q 218 762 240 785 q 196 686 196 739 l 196 614 q 176 593 196 593 l 124 593 q 103 614 103 593 l 103 683 q 294 867 103 867 q 485 683 485 867 l 485 563 q 276 360 485 360 l 178 360 l 410 33 q 415 18 415 28 z "},"ष":{"ha":704,"x_min":-26,"x_max":731,"o":"m 494 768 q 481 782 494 782 l 193 782 l 494 444 l 494 768 m 315 311 l 369 311 q 479 369 449 311 l 196 690 l 196 433 q 315 311 196 311 m -4 865 l 710 865 q 731 844 731 865 l 731 803 q 710 782 731 782 l 604 782 q 590 768 590 782 l 590 21 q 569 0 590 0 l 515 0 q 494 21 494 0 l 494 288 l 489 288 q 357 226 457 226 l 303 226 q 156 281 211 226 q 100 426 100 335 l 100 768 q 89 782 100 781 l -4 782 q -26 804 -26 782 l -26 844 q -4 865 -26 865 z "},"स":{"ha":810,"x_min":-26,"x_max":836,"o":"m 304 456 l 586 456 q 601 471 601 456 l 601 768 q 586 782 601 782 l 361 782 q 347 768 347 782 l 347 578 q 304 461 347 492 l 304 456 m 365 18 q 346 0 365 0 l 288 0 q 264 15 272 0 l 86 315 l 46 372 l 46 432 q 71 456 46 456 l 160 456 q 226 481 201 456 q 251 558 251 506 l 251 768 q 238 782 251 782 l -4 782 q -26 804 -26 782 l -26 844 q -4 865 -26 865 l 815 865 q 836 844 836 865 l 836 803 q 815 782 836 782 l 710 782 q 696 768 696 782 l 696 21 q 675 0 696 0 l 622 0 q 601 21 601 0 l 601 356 q 586 371 601 371 l 157 371 l 358 38 q 365 18 365 28 z "},"ह":{"ha":661,"x_min":-26,"x_max":688,"o":"m 444 782 l -4 782 q -26 803 -26 782 l -26 844 q -4 865 -26 865 l 665 865 q 688 844 688 865 l 688 803 q 665 782 688 782 l 565 782 q 551 768 551 782 l 551 617 q 538 581 551 593 q 503 568 524 568 l 293 568 q 217 547 240 568 q 193 474 193 525 q 216 402 193 424 q 292 381 239 381 l 404 381 q 530 339 486 381 q 574 219 574 297 l 574 178 q 553 157 574 157 l 503 157 q 482 178 482 157 l 482 207 q 460 280 482 257 q 389 303 439 303 l 296 303 q 185 176 185 303 l 185 144 q 218 51 185 82 q 325 21 251 21 l 535 21 q 557 1 557 21 l 557 -39 q 535 -60 557 -60 l 317 -60 q 147 -8 204 -60 q 89 143 89 44 l 89 179 q 178 339 89 300 l 178 344 q 97 485 97 375 q 279 651 97 651 l 442 651 q 457 665 457 651 l 457 768 q 444 782 457 782 z "},"़":{"ha":0,"x_min":-300,"x_max":-203,"o":"m -203 -57 l -203 -117 q -222 -137 -203 -137 l -281 -137 q -300 -117 -300 -137 l -300 -57 q -281 -36 -300 -36 l -222 -36 q -203 -57 -203 -36 z "},"ऽ":{"ha":742,"x_min":110,"x_max":629,"o":"m 629 281 l 629 199 q 581 52 629 104 q 433 0 532 0 l 347 0 q 118 140 221 0 q 110 158 110 149 q 122 179 110 168 l 143 196 q 162 204 153 204 q 179 196 171 204 q 203 169 188 188 q 225 147 219 151 q 244 128 231 142 q 267 110 258 115 q 290 97 276 106 q 350 86 311 86 l 421 86 q 510 116 486 86 q 535 206 535 146 l 535 275 q 521 326 535 310 q 498 350 507 342 q 468 369 489 358 q 433 388 447 381 q 343 432 396 407 q 200 539 239 485 q 161 687 161 593 q 201 823 161 781 q 351 865 242 865 l 553 865 q 575 844 575 865 l 575 803 q 553 782 575 782 l 367 782 q 279 759 301 782 q 257 681 257 736 q 296 588 257 626 q 444 495 335 550 q 591 399 553 440 q 629 281 629 358 z "},"ा":{"ha":324,"x_min":-25,"x_max":350,"o":"m 189 0 l 135 0 q 114 21 114 0 l 114 768 q 100 782 114 782 l -4 782 q -25 803 -25 782 l -25 844 q -4 865 -25 865 l 328 865 q 350 844 350 865 l 350 803 q 328 782 350 782 l 224 782 q 210 768 210 782 l 210 21 q 189 0 210 0 z "},"ि":{"ha":324,"x_min":-25,"x_max":893,"o":"m 328 1224 l 681 1224 q 893 1021 893 1224 l 893 978 q 871 956 893 956 l 818 956 q 797 978 797 956 l 797 1019 q 770 1111 797 1085 q 681 1138 743 1138 l 326 1138 q 237 1111 264 1138 q 210 1019 210 1085 l 210 881 q 224 865 210 865 l 328 865 q 350 844 350 865 l 350 803 q 328 782 350 782 l 224 782 q 210 768 210 782 l 210 21 q 189 0 210 0 l 135 0 q 114 21 114 0 l 114 768 q 100 782 114 782 l -4 782 q -25 803 -25 782 l -25 844 q -4 865 -25 865 l 100 865 q 114 881 114 865 l 114 1035 q 170 1177 114 1131 q 328 1224 226 1224 z "},"ी":{"ha":324,"x_min":-215,"x_max":350,"o":"m 224 865 l 328 865 q 350 844 350 865 l 350 803 q 328 782 350 782 l 224 782 q 210 768 210 782 l 210 21 q 189 0 210 0 l 135 0 q 114 21 114 0 l 114 768 q 100 782 114 782 l -4 782 q -25 803 -25 782 l -25 844 q -4 865 -25 865 l 100 865 q 114 881 114 865 l 114 1019 q 87 1111 114 1085 q -3 1138 60 1138 q -93 1110 -65 1138 q -121 1019 -121 1083 l -121 978 q -140 956 -121 956 l -194 956 q -215 978 -215 956 l -215 1021 q -3 1224 -215 1224 q 210 1035 210 1224 l 210 881 q 224 865 210 865 z "},"ु":{"ha":0,"x_min":-489,"x_max":47,"o":"m -210 -37 l -210 1 q -187 22 -210 22 l -126 22 q 8 -20 -32 22 q 47 -155 47 -62 q 5 -296 47 -247 q -133 -344 -37 -344 l -206 -344 q -344 -307 -282 -344 q -394 -258 -367 -293 q -479 -122 -422 -219 q -489 -95 -489 -104 q -478 -78 -489 -86 q -424 -54 -432 -54 q -406 -72 -417 -54 q -374 -131 -396 -89 q -342 -187 -351 -174 q -311 -222 -332 -200 q -203 -261 -275 -261 l -133 -261 q -72 -245 -93 -261 q -47 -210 -51 -229 q -43 -155 -43 -190 q -47 -102 -43 -119 q -69 -72 -50 -85 q -129 -58 -89 -58 l -187 -58 q -210 -37 -210 -58 z "},"ू":{"ha":0,"x_min":-369,"x_max":151,"o":"m -369 -157 q -192 29 -369 29 l -140 29 q -44 13 -74 29 q 1 -12 -15 -3 q 35 -44 18 -22 q 61 -79 51 -67 q 85 -122 71 -92 q 106 -165 100 -151 q 127 -215 113 -179 q 147 -261 142 -250 q 151 -281 151 -272 q 138 -296 151 -290 q 88 -312 99 -312 q 68 -292 78 -312 q 40 -228 58 -271 q 13 -165 22 -185 q -12 -119 4 -146 q -44 -81 -29 -92 q -143 -51 -87 -51 l -192 -51 q -262 -77 -243 -51 q -281 -156 -281 -103 q -265 -233 -281 -210 q -200 -257 -250 -257 l -147 -257 q -125 -278 -125 -257 l -125 -314 q -147 -336 -125 -336 l -200 -336 q -329 -292 -289 -336 q -369 -157 -369 -249 z "},"ृ":{"ha":0,"x_min":-379,"x_max":63,"o":"m -114 1 l -114 -37 q -136 -58 -114 -58 l -199 -58 q -270 -83 -251 -58 q -289 -166 -289 -108 q -266 -249 -289 -224 q -192 -274 -243 -274 l -149 -274 q -60 -244 -103 -274 q -29 -222 -51 -239 q 19 -192 10 -192 q 35 -203 29 -192 l 56 -232 q 63 -248 63 -239 q 44 -271 63 -257 q -146 -357 -53 -357 l -196 -357 q -379 -164 -379 -357 q -335 -22 -379 -65 q -201 22 -292 22 l -136 22 q -114 1 -114 22 z "},"ॅ":{"ha":0,"x_min":-376,"x_max":67,"o":"m -99 958 l -211 958 q -376 1131 -376 958 l -376 1140 q -353 1168 -376 1168 l -312 1168 q -290 1142 -290 1168 l -290 1132 q -269 1060 -290 1081 q -197 1039 -249 1039 l -111 1039 q -41 1060 -61 1039 q -21 1132 -21 1081 l -21 1142 q 4 1168 -21 1168 l 43 1168 q 67 1140 67 1168 l 67 1133 q -99 958 67 958 z "},"ॆ":{"ha":0,"x_min":-503,"x_max":-90,"o":"m -224 865 q -210 883 -210 865 q -226 914 -210 900 q -387 1003 -243 929 q -476 1073 -449 1035 q -503 1171 -503 1111 l -503 1199 q -482 1219 -503 1219 l -431 1219 q -410 1199 -410 1219 l -410 1176 q -391 1112 -410 1133 q -329 1069 -372 1090 l -242 1025 q -144 963 -175 993 q -114 881 -114 933 q -100 865 -114 865 l -90 865 l -90 818 l -235 818 l -235 865 l -224 865 z "},"े":{"ha":0,"x_min":-450,"x_max":-99,"o":"m -106 865 l -99 865 l -99 824 l -165 824 q -362 1067 -261 914 l -444 1188 q -450 1203 -450 1199 q -432 1219 -450 1219 l -372 1219 q -342 1201 -353 1219 l -139 888 q -106 865 -126 865 z "},"ै":{"ha":0,"x_min":-465,"x_max":-92,"o":"m -92 836 l -183 836 q -376 1067 -279 925 l -460 1188 q -465 1203 -465 1194 q -447 1219 -465 1219 l -397 1219 q -360 1201 -372 1219 l -171 893 l -167 896 q -206 1158 -206 981 l -206 1199 q -185 1219 -206 1219 l -135 1219 q -114 1199 -114 1219 l -114 881 q -103 865 -114 865 l -92 865 l -92 836 z "},"ॉ":{"ha":324,"x_min":-60,"x_max":383,"o":"m 189 0 l 135 0 q 114 21 114 0 l 114 768 q 100 782 114 782 l -4 782 q -25 803 -25 782 l -25 844 q -4 865 -25 865 l 328 865 q 350 844 350 865 l 350 803 q 328 782 350 782 l 224 782 q 210 768 210 782 l 210 21 q 189 0 210 0 m 218 958 l 106 958 q -60 1131 -60 958 l -60 1140 q -36 1168 -60 1168 l 6 1168 q 28 1142 28 1168 l 28 1132 q 48 1060 28 1081 q 119 1039 68 1039 l 206 1039 q 276 1060 256 1039 q 296 1132 296 1081 l 296 1142 q 321 1168 296 1168 l 360 1168 q 383 1140 383 1168 l 383 1132 q 218 958 383 958 z "},"ॊ":{"ha":324,"x_min":-179,"x_max":350,"o":"m 224 865 l 328 865 q 350 844 350 865 l 350 803 q 328 782 350 782 l 224 782 q 210 768 210 782 l 210 21 q 189 0 210 0 l 135 0 q 114 21 114 0 l 114 768 q 100 782 114 782 l -4 782 q -25 803 -25 782 l -25 844 q -4 865 -25 865 l 100 865 q 114 883 114 865 q 97 914 114 900 q -64 1003 81 929 q -152 1073 -125 1035 q -179 1171 -179 1111 l -179 1199 q -158 1219 -179 1219 l -107 1219 q -86 1199 -86 1219 l -86 1176 q -67 1112 -86 1133 q -6 1069 -49 1090 l 82 1025 q 179 963 149 993 q 210 881 210 933 q 224 865 210 865 z "},"ो":{"ha":324,"x_min":-125,"x_max":350,"o":"m 219 865 l 328 865 q 350 844 350 865 l 350 803 q 328 782 350 782 l 224 782 q 210 768 210 782 l 210 21 q 189 0 210 0 l 135 0 q 114 21 114 0 l 114 768 q 100 782 114 782 l -4 782 q -25 803 -25 782 l -25 844 q -4 865 -25 865 l 115 865 l 115 871 q -37 1067 22 978 l -119 1188 q -125 1203 -125 1199 q -107 1219 -125 1219 l -47 1219 q -17 1201 -28 1219 l 186 888 q 219 865 199 865 z "},"ौ":{"ha":324,"x_min":-142,"x_max":350,"o":"m 221 865 l 328 865 q 350 844 350 865 l 350 803 q 328 782 350 782 l 224 782 q 210 768 210 782 l 210 21 q 189 0 210 0 l 135 0 q 114 21 114 0 l 114 768 q 100 782 114 782 l -4 782 q -25 803 -25 782 l -25 844 q -4 865 -25 865 l 108 865 l 108 871 q -53 1067 29 947 l -136 1188 q -142 1203 -142 1194 q -124 1219 -142 1219 l -74 1219 q -36 1201 -46 1219 l 153 893 l 157 896 q 118 1158 118 981 l 118 1199 q 139 1219 118 1219 l 189 1219 q 210 1199 210 1219 l 210 881 q 221 865 210 865 z "},"्":{"ha":0,"x_min":-206,"x_max":21,"o":"m -189 -72 l -140 -72 q -110 -92 -122 -72 l 17 -274 q 21 -289 21 -279 q 3 -307 21 -307 l -54 -307 q -81 -290 -71 -307 l -203 -100 q -206 -89 -206 -92 q -189 -72 -206 -72 z "},"ॐ":{"ha":1185,"x_min":81,"x_max":1085,"o":"m 739 633 l 886 633 q 1031 578 978 633 q 1085 422 1085 524 l 1085 204 q 1039 76 1085 121 q 910 31 993 31 l 875 31 q 746 76 792 31 q 700 204 700 121 l 700 310 q 686 324 700 324 l 554 324 l 554 244 q 499 88 554 146 q 344 31 444 31 l 292 31 q 137 88 193 31 q 81 244 81 144 l 81 290 q 101 315 81 315 l 154 315 q 174 290 174 315 l 174 244 q 207 149 174 182 q 301 117 240 117 l 338 117 q 461 250 461 117 l 461 292 q 338 424 461 424 l 265 424 q 244 444 244 424 l 244 488 q 265 508 244 508 l 340 508 q 461 626 461 508 l 461 660 q 339 781 461 781 l 219 781 q 197 801 197 781 l 197 844 q 219 865 197 865 l 350 865 q 502 813 450 865 q 554 661 554 760 l 554 621 q 467 469 554 503 l 467 464 q 532 408 508 447 l 713 408 q 790 333 790 408 l 790 213 q 813 140 790 163 q 886 117 836 118 l 900 117 q 973 140 950 118 q 996 213 996 163 l 996 417 q 868 549 996 549 l 739 549 q 717 569 717 549 l 717 613 q 739 633 717 633 m 888 781 l 740 781 q 717 801 717 781 l 717 844 q 740 865 717 865 l 878 865 q 1007 919 957 865 q 1028 933 1018 933 q 1047 926 1038 933 q 1072 904 1056 918 q 1082 886 1082 894 q 1074 867 1082 878 q 888 781 1007 781 m 797 1007 l 738 1007 q 718 1026 718 1007 l 718 1088 q 738 1108 718 1108 l 797 1108 q 817 1088 817 1108 l 817 1026 q 797 1007 817 1007 z "},"॑":{"ha":0,"x_min":-210,"x_max":-114,"o":"m -210 957 l -210 1179 q -189 1200 -210 1200 l -135 1200 q -114 1179 -114 1200 l -114 957 q -135 936 -114 936 l -189 936 q -210 957 -210 936 z "},"॒":{"ha":0,"x_min":-596,"x_max":-111,"o":"m -111 -129 q -131 -149 -111 -149 l -576 -149 q -596 -129 -596 -149 l -596 -99 q -576 -81 -596 -81 l -131 -81 q -111 -99 -111 -81 l -111 -129 z "},"॓":{"ha":0,"x_min":-367,"x_max":-121,"o":"m -294 1200 q -264 1182 -276 1200 l -126 969 q -121 953 -121 963 q -139 936 -121 936 l -192 936 q -222 954 -210 936 l -361 1168 q -367 1183 -367 1179 q -349 1200 -367 1200 l -294 1200 z "},"॔":{"ha":0,"x_min":-208,"x_max":38,"o":"m -35 1200 l 19 1200 q 38 1183 38 1200 q 32 1168 38 1179 l -108 954 q -137 936 -118 936 l -190 936 q -208 953 -208 936 q -203 969 -208 963 l -65 1182 q -35 1200 -56 1200 z "},"क़":{"ha":1010,"x_min":-26,"x_max":1036,"o":"m 551 768 l 551 599 l 557 599 q 688 660 586 660 l 729 660 q 882 605 826 660 q 938 453 938 550 l 938 332 q 881 180 936 235 q 729 125 826 125 l 665 125 q 643 146 643 125 l 643 189 q 665 210 643 210 l 718 210 q 843 336 843 210 l 843 449 q 810 542 843 510 q 715 575 776 575 l 671 575 q 551 458 551 575 l 551 22 q 531 0 551 0 l 478 0 q 458 22 458 0 l 458 186 l 453 186 q 322 125 419 125 l 281 125 q 128 180 183 125 q 72 332 72 235 l 72 453 q 128 605 72 550 q 281 660 183 660 l 344 660 q 365 639 365 660 l 365 596 q 344 575 365 575 l 292 575 q 165 449 165 575 l 165 336 q 199 242 165 275 q 293 210 232 210 l 338 210 q 427 240 396 210 q 458 326 458 269 l 458 768 q 444 782 458 782 l -4 782 q -26 803 -26 782 l -26 844 q -4 865 -26 865 l 1014 865 q 1036 844 1036 865 l 1036 803 q 1014 782 1036 782 l 565 782 q 551 768 551 782 m 288 0 l 288 -60 q 268 -81 288 -81 l 210 -81 q 190 -60 190 -81 l 190 0 q 210 21 190 21 l 268 21 q 288 0 288 21 z "}}}
